# Blender v3.4.1 OBJ File: 'Holiday_Bits_Export.blend'
# www.blender.org
mtllib bell_clapper.mtl
o bell_clapper
v 0.000000 -0.310299 -0.037295
v 0.000000 -0.361428 -0.089629
v 0.000000 -0.413175 -0.103495
v 0.000000 -0.502804 -0.051748
v 0.018647 -0.310299 -0.032298
v 0.044815 -0.361428 -0.077621
v 0.051747 -0.413175 -0.089629
v 0.044815 -0.464923 -0.077621
v 0.025874 -0.502804 -0.044815
v 0.032298 -0.310299 -0.018647
v 0.077621 -0.361428 -0.044815
v 0.089629 -0.413175 -0.051748
v 0.077621 -0.464923 -0.044815
v 0.044815 -0.502804 -0.025874
v 0.037295 -0.310299 -0.000000
v 0.089629 -0.361428 -0.000000
v 0.103495 -0.413175 -0.000000
v 0.089629 -0.464923 -0.000000
v 0.051747 -0.502804 -0.000000
v 0.032298 -0.310299 0.018647
v 0.077621 -0.361428 0.044815
v 0.089629 -0.413175 0.051747
v 0.077621 -0.464923 0.044815
v 0.044815 -0.502804 0.025874
v 0.018647 -0.310299 0.032298
v 0.044815 -0.361428 0.077621
v 0.051747 -0.413175 0.089629
v 0.044815 -0.464923 0.077621
v 0.025874 -0.502804 0.044815
v 0.000000 -0.310299 0.037295
v -0.000000 -0.361428 0.089629
v 0.000000 -0.413175 0.103495
v -0.000000 -0.464923 0.089629
v -0.000000 -0.502804 0.051747
v -0.018647 -0.310299 0.032298
v -0.044815 -0.361428 0.077621
v -0.051747 -0.413175 0.089629
v -0.044815 -0.464923 0.077621
v -0.025874 -0.502804 0.044815
v 0.000000 -0.516670 -0.000000
v -0.032298 -0.310299 0.018647
v -0.077621 -0.361428 0.044815
v -0.089629 -0.413175 0.051747
v -0.077621 -0.464923 0.044815
v -0.044815 -0.502804 0.025874
v -0.037295 -0.310299 -0.000000
v -0.089629 -0.361428 -0.000000
v -0.103495 -0.413175 -0.000000
v -0.089629 -0.464923 -0.000000
v -0.051747 -0.502804 -0.000000
v -0.032298 -0.310299 -0.018647
v -0.077621 -0.361428 -0.044815
v -0.089629 -0.413175 -0.051748
v -0.077621 -0.464923 -0.044815
v -0.044815 -0.502804 -0.025874
v -0.018647 -0.310299 -0.032298
v -0.044815 -0.361428 -0.077621
v -0.051747 -0.413175 -0.089629
v -0.044815 -0.464923 -0.077621
v -0.025874 -0.502804 -0.044815
v 0.000000 -0.464923 -0.089629
v 0.018647 0.190643 -0.032298
v -0.000000 0.190643 -0.037295
v 0.032298 0.190643 -0.018647
v 0.037295 0.190643 0.000000
v 0.032298 0.190643 0.018647
v 0.018647 0.190643 0.032298
v -0.000000 0.190643 0.037295
v -0.018647 0.190643 0.032298
v -0.032298 0.190643 0.018647
v -0.037295 0.190643 0.000000
v -0.032298 0.190643 -0.018647
v -0.018647 0.190643 -0.032298
v -0.000000 0.207808 0.000000
vt 0.316663 0.362308
vt 0.316663 0.357731
vt 0.305503 0.357731
vt 0.310219 0.362308
vt 0.316663 0.351478
vt 0.316663 0.345226
vt 0.305503 0.345226
vt 0.303776 0.351478
vt 0.308620 0.334412
vt 0.307375 0.334412
vt 0.307375 0.273883
vt 0.308620 0.273883
vt 0.316663 0.363984
vt 0.316663 0.339048
vt 0.312019 0.339048
vt 0.297333 0.357731
vt 0.305503 0.362308
vt 0.297333 0.345226
vt 0.294343 0.351478
vt 0.308620 0.334412
vt 0.308620 0.273883
vt 0.308620 0.339048
vt 0.294343 0.345226
vt 0.290889 0.351478
vt 0.312019 0.334412
vt 0.312019 0.273883
vt 0.303776 0.362308
vt 0.294343 0.357731
vt 0.307375 0.339048
vt 0.312019 0.334412
vt 0.312019 0.273883
vt 0.305503 0.362308
vt 0.294343 0.351478
vt 0.297333 0.357731
vt 0.308620 0.339048
vt 0.297333 0.345226
vt 0.310219 0.362308
vt 0.303776 0.351478
vt 0.305503 0.357731
vt 0.312019 0.339048
vt 0.305503 0.345226
vt 0.316663 0.334412
vt 0.316663 0.273883
vt 0.316663 0.362308
vt 0.316663 0.351478
vt 0.316663 0.357731
vt 0.316663 0.339048
vt 0.316663 0.345226
vt 0.321306 0.334412
vt 0.321306 0.273883
vt 0.323106 0.362308
vt 0.329549 0.351478
vt 0.327824 0.357731
vt 0.321306 0.339048
vt 0.327824 0.345226
vt 0.324707 0.334412
vt 0.325951 0.334412
vt 0.325951 0.273883
vt 0.324707 0.273883
vt 0.338984 0.351478
vt 0.335993 0.357731
vt 0.324707 0.339048
vt 0.335993 0.345226
vt 0.327824 0.362308
vt 0.321306 0.334412
vt 0.321306 0.273883
vt 0.325951 0.339048
vt 0.338984 0.345226
vt 0.338984 0.357731
vt 0.329549 0.362308
vt 0.342436 0.351478
vt 0.316663 0.334412
vt 0.316663 0.273883
vt 0.335993 0.357731
vt 0.327824 0.362308
vt 0.335993 0.345226
vt 0.338984 0.351478
vt 0.324707 0.334412
vt 0.324707 0.273883
vt 0.324707 0.339048
vt 0.327824 0.357731
vt 0.323106 0.362308
vt 0.327824 0.345226
vt 0.329549 0.351478
vt 0.321306 0.339048
vt 0.316663 0.273883
vt 0.321087 0.273883
vt 0.324327 0.273883
vt 0.325512 0.273883
vt 0.312239 0.273883
vt 0.309000 0.273883
vt 0.307814 0.273883
vn -0.0000 -0.8474 -0.5309
vn -0.0000 -0.4823 -0.8760
vn 0.4380 -0.4823 -0.7586
vn 0.2654 -0.8474 -0.4598
vn -0.0000 -0.0000 -1.0000
vn -0.0000 0.4869 -0.8735
vn 0.4367 0.4869 -0.7564
vn 0.5000 -0.0000 -0.8660
vn 0.8660 -0.0000 0.5000
vn 1.0000 0.0000 0.0000
vn -0.0000 -1.0000 -0.0000
vn -0.0000 0.7153 -0.6988
vn 0.3494 0.7153 -0.6052
vn 0.7586 -0.4823 -0.4380
vn 0.4598 -0.8474 -0.2654
vn 0.7564 0.4869 -0.4367
vn 0.8660 -0.0000 -0.5000
vn 0.6052 0.7153 -0.3494
vn 0.8735 0.4869 -0.0000
vn 0.5309 -0.8474 0.0000
vn 0.8760 -0.4823 0.0000
vn 0.6988 0.7153 -0.0000
vn 0.5000 -0.0000 0.8660
vn 0.4598 -0.8474 0.2654
vn 0.7586 -0.4823 0.4380
vn 0.6052 0.7153 0.3494
vn 0.7564 0.4869 0.4367
vn 0.2654 -0.8474 0.4598
vn 0.4380 -0.4823 0.7586
vn 0.3494 0.7153 0.6052
vn 0.4367 0.4869 0.7564
vn 0.0000 -0.0000 1.0000
vn -0.0000 -0.8474 0.5309
vn 0.0000 -0.4823 0.8760
vn 0.0000 0.7153 0.6988
vn -0.0000 0.4869 0.8735
vn -0.5000 -0.0000 0.8660
vn -0.2654 -0.8474 0.4598
vn -0.4380 -0.4823 0.7586
vn -0.3494 0.7153 0.6052
vn -0.4367 0.4869 0.7564
vn -0.8660 0.0000 -0.5000
vn -1.0000 -0.0000 -0.0000
vn -0.8660 -0.0000 0.5000
vn -0.7586 -0.4823 0.4380
vn -0.6052 0.7153 0.3494
vn -0.7564 0.4869 0.4367
vn -0.4598 -0.8474 0.2654
vn -0.5000 0.0000 -0.8660
vn -0.6988 0.7153 0.0000
vn -0.8735 0.4869 0.0000
vn -0.8760 -0.4823 -0.0000
vn -0.5309 -0.8474 -0.0000
vn -0.7586 -0.4823 -0.4380
vn -0.4598 -0.8474 -0.2655
vn -0.7564 0.4869 -0.4367
vn -0.6052 0.7153 -0.3494
vn -0.4380 -0.4823 -0.7586
vn -0.2654 -0.8474 -0.4598
vn -0.4367 0.4869 -0.7564
vn -0.3494 0.7153 -0.6052
vn -0.0000 0.9084 -0.4181
vn -0.2090 0.9084 -0.3621
vn 0.0000 1.0000 0.0000
vn -0.3621 0.9084 -0.2090
vn -0.4181 0.9084 0.0000
vn -0.3621 0.9084 0.2090
vn -0.2090 0.9084 0.3621
vn -0.0000 0.9084 0.4181
vn 0.2090 0.9084 0.3621
vn 0.3621 0.9084 0.2090
vn 0.4181 0.9084 0.0000
vn 0.3621 0.9084 -0.2090
vn 0.2090 0.9084 -0.3621
usemtl holiday
s 1
f 4/1/1 61/2/2 8/3/3 9/4/4
f 3/5/5 2/6/6 6/7/7 7/8/8
f 20/9/9 15/10/10 65/11/10 66/12/9
f 40/13/11 4/1/1 9/4/4
f 61/2/2 3/5/5 7/8/8 8/3/3
f 2/6/6 1/14/12 5/15/13 6/7/7
f 9/4/4 8/3/3 13/16/14 14/17/15
f 7/8/8 6/7/7 11/18/16 12/19/17
f 15/10/10 10/20/17 64/21/17 65/11/10
f 40/13/11 9/4/4 14/17/15
f 8/3/3 7/8/8 12/19/17 13/16/14
f 6/7/7 5/15/13 10/22/18 11/18/16
f 12/19/17 11/18/16 16/23/19 17/24/10
f 10/20/17 5/25/8 62/26/8 64/21/17
f 40/13/11 14/17/15 19/27/20
f 13/16/14 12/19/17 17/24/10 18/28/21
f 11/18/16 10/22/18 15/29/22 16/23/19
f 14/17/15 13/16/14 18/28/21 19/27/20
f 25/30/23 20/9/9 66/12/9 67/31/23
f 40/13/11 19/27/20 24/32/24
f 18/28/21 17/24/10 22/33/9 23/34/25
f 16/23/19 15/29/22 20/35/26 21/36/27
f 19/27/20 18/28/21 23/34/25 24/32/24
f 17/24/10 16/23/19 21/36/27 22/33/9
f 40/13/11 24/32/24 29/37/28
f 23/34/25 22/33/9 27/38/23 28/39/29
f 21/36/27 20/35/26 25/40/30 26/41/31
f 24/32/24 23/34/25 28/39/29 29/37/28
f 22/33/9 21/36/27 26/41/31 27/38/23
f 30/42/32 25/30/23 67/31/23 68/43/32
f 40/13/11 29/37/28 34/44/33
f 28/39/29 27/38/23 32/45/32 33/46/34
f 26/41/31 25/40/30 30/47/35 31/48/36
f 29/37/28 28/39/29 33/46/34 34/44/33
f 27/38/23 26/41/31 31/48/36 32/45/32
f 35/49/37 30/42/32 68/43/32 69/50/37
f 40/13/11 34/44/33 39/51/38
f 33/46/34 32/45/32 37/52/37 38/53/39
f 31/48/36 30/47/35 35/54/40 36/55/41
f 34/44/33 33/46/34 38/53/39 39/51/38
f 32/45/32 31/48/36 36/55/41 37/52/37
f 51/56/42 46/57/43 71/58/43 72/59/42
f 38/53/39 37/52/37 43/60/44 44/61/45
f 36/55/41 35/54/40 41/62/46 42/63/47
f 39/51/38 38/53/39 44/61/45 45/64/48
f 37/52/37 36/55/41 42/63/47 43/60/44
f 56/65/49 51/56/42 72/59/42 73/66/49
f 40/13/11 39/51/38 45/64/48
f 42/63/47 41/62/46 46/67/50 47/68/51
f 45/64/48 44/61/45 49/69/52 50/70/53
f 43/60/44 42/63/47 47/68/51 48/71/43
f 5/25/8 1/72/5 63/73/5 62/26/8
f 40/13/11 45/64/48 50/70/53
f 44/61/45 43/60/44 48/71/43 49/69/52
f 50/70/53 49/69/52 54/74/54 55/75/55
f 48/71/43 47/68/51 52/76/56 53/77/42
f 46/57/43 41/78/44 70/79/44 71/58/43
f 40/13/11 50/70/53 55/75/55
f 49/69/52 48/71/43 53/77/42 54/74/54
f 47/68/51 46/67/50 51/80/57 52/76/56
f 55/75/55 54/74/54 59/81/58 60/82/59
f 53/77/42 52/76/56 57/83/60 58/84/49
f 1/72/5 56/65/49 73/66/49 63/73/5
f 40/13/11 55/75/55 60/82/59
f 54/74/54 53/77/42 58/84/49 59/81/58
f 52/76/56 51/80/57 56/85/61 57/83/60
f 60/82/59 59/81/58 61/2/2 4/1/1
f 58/84/49 57/83/60 2/6/6 3/5/5
f 41/78/44 35/49/37 69/50/37 70/79/44
f 40/13/11 60/82/59 4/1/1
f 59/81/58 58/84/49 3/5/5 61/2/2
f 57/83/60 56/85/61 1/14/12 2/6/6
f 63/73/62 73/66/63 74/86/64
f 73/66/63 72/59/65 74/87/64
f 72/59/65 71/58/66 74/88/64
f 71/58/66 70/79/67 74/89/64
f 70/79/67 69/50/68 74/88/64
f 69/50/68 68/43/69 74/87/64
f 68/43/69 67/31/70 74/86/64
f 67/31/70 66/12/71 74/90/64
f 66/12/71 65/11/72 74/91/64
f 65/11/72 64/21/73 74/92/64
f 64/21/73 62/26/74 74/91/64
f 62/26/74 63/73/62 74/90/64
