# Blender v3.4.1 OBJ File: 'Holiday_Bits_Export.blend'
# www.blender.org
mtllib carpet_round_small.mtl
o carpet_round_small
v -0.192219 0.035355 -0.966353
v -0.377052 0.035355 -0.910284
v -0.547395 0.035355 -0.819234
v -0.696702 0.035355 -0.696701
v -0.000000 -0.000000 0.000000
v -0.819234 0.035355 -0.547395
v -0.910284 0.035355 -0.377052
v -0.966353 0.035355 -0.192219
v -0.985284 0.035355 -0.000000
v -0.966353 0.035355 0.192219
v -0.910284 0.035355 0.377052
v -0.819234 0.035355 0.547395
v -0.696701 0.035355 0.696701
v -0.547395 0.035355 0.819234
v -0.377052 0.035355 0.910284
v -0.192219 0.035355 0.966353
v -0.000000 0.035355 0.985284
v 0.000000 0.050000 -0.000000
v 0.192219 0.035355 0.966353
v 0.377052 0.035355 0.910284
v 0.547395 0.035355 0.819234
v 0.696701 0.035355 0.696701
v 0.819234 0.035355 0.547395
v 0.910284 0.035355 0.377052
v 0.966353 0.035355 0.192219
v 0.985284 0.035355 0.000000
v 0.966353 0.035355 -0.192219
v 0.910284 0.035355 -0.377052
v 0.819234 0.035355 -0.547395
v 0.696701 0.035355 -0.696701
v 0.547395 0.035355 -0.819234
v 0.377052 0.035355 -0.910284
v -0.000000 0.035355 -0.985284
v 0.192219 0.035355 -0.966353
v 0.831470 -0.000000 0.555570
v 0.923880 -0.000000 0.382683
v -1.000000 0.000000 -0.000000
v -0.980785 -0.000000 0.195090
v 0.195090 0.000000 -0.980785
v 0.000000 0.000000 -1.000000
v 0.555570 0.000000 -0.831470
v 0.382683 0.000000 -0.923880
v -0.923880 -0.000000 0.382684
v -0.831469 -0.000000 0.555570
v -0.555570 -0.000000 0.831470
v -0.382683 -0.000000 0.923880
v -0.195090 -0.000000 0.980785
v -0.000000 -0.000000 1.000000
v -0.980785 0.000000 -0.195090
v -0.707107 -0.000000 0.707107
v 0.707107 -0.000000 0.707107
v 0.707107 0.000000 -0.707107
v -0.195090 0.000000 -0.980785
v -0.185288 0.050000 -0.931509
v -0.000000 0.050000 -0.949758
v -0.382683 0.000000 -0.923880
v -0.363457 0.050000 -0.877462
v -0.555570 0.000000 -0.831470
v -0.527657 0.050000 -0.789695
v -0.707107 0.000000 -0.707107
v -0.671581 0.050000 -0.671580
v -0.831470 0.000000 -0.555570
v -0.789695 0.050000 -0.527657
v -0.923879 0.000000 -0.382684
v -0.877462 0.050000 -0.363457
v -0.931509 0.050000 -0.185288
v -0.949758 0.050000 -0.000000
v -0.931509 0.050000 0.185288
v -0.877462 0.050000 0.363457
v -0.789695 0.050000 0.527658
v -0.671580 0.050000 0.671580
v -0.527657 0.050000 0.789695
v -0.363457 0.050000 0.877462
v -0.185288 0.050000 0.931509
v -0.000000 0.050000 0.949758
v 0.195090 -0.000000 0.980785
v 0.185288 0.050000 0.931509
v 0.382683 -0.000000 0.923880
v 0.363457 0.050000 0.877462
v 0.555570 -0.000000 0.831470
v 0.527657 0.050000 0.789695
v 0.671580 0.050000 0.671580
v 0.789695 0.050000 0.527657
v 0.877462 0.050000 0.363457
v 0.980785 -0.000000 0.195090
v 0.931509 0.050000 0.185288
v 1.000000 -0.000000 0.000000
v 0.949758 0.050000 0.000000
v 0.980785 0.000000 -0.195090
v 0.931509 0.050000 -0.185288
v 0.923880 0.000000 -0.382683
v 0.877462 0.050000 -0.363457
v 0.831470 0.000000 -0.555570
v 0.789695 0.050000 -0.527657
v 0.671580 0.050000 -0.671580
v 0.527657 0.050000 -0.789695
v 0.363457 0.050000 -0.877462
v 0.185288 0.050000 -0.931509
v -0.162004 0.050000 -0.814452
v -0.000000 0.050000 -0.830408
v -0.317784 0.050000 -0.767197
v -0.461350 0.050000 -0.690459
v -0.587187 0.050000 -0.587187
v -0.690459 0.050000 -0.461350
v -0.767197 0.050000 -0.317784
v -0.814452 0.050000 -0.162004
v -0.830408 0.050000 -0.000000
v -0.814452 0.050000 0.162004
v -0.767197 0.050000 0.317784
v -0.690459 0.050000 0.461350
v -0.587187 0.050000 0.587187
v -0.461350 0.050000 0.690459
v -0.317784 0.050000 0.767197
v -0.162004 0.050000 0.814452
v -0.000000 0.050000 0.830408
v 0.162004 0.050000 0.814452
v 0.317784 0.050000 0.767197
v 0.461350 0.050000 0.690459
v 0.587187 0.050000 0.587187
v 0.690459 0.050000 0.461350
v 0.767197 0.050000 0.317784
v 0.814452 0.050000 0.162004
v 0.830408 0.050000 0.000000
v 0.814452 0.050000 -0.162004
v 0.767197 0.050000 -0.317784
v 0.690459 0.050000 -0.461350
v 0.587187 0.050000 -0.587187
v 0.461350 0.050000 -0.690459
v 0.317784 0.050000 -0.767197
v 0.162004 0.050000 -0.814452
vt 0.312500 0.389224
vt 0.304957 0.389224
vt 0.305068 0.391205
vt 0.312500 0.391205
vt 0.305336 0.392026
vt 0.312500 0.392026
vt 0.297705 0.389224
vt 0.297922 0.391205
vt 0.298448 0.392026
vt 0.291020 0.389224
vt 0.291336 0.391205
vt 0.292099 0.392026
vt 0.285161 0.389224
vt 0.285564 0.391205
vt 0.286535 0.392026
vt 0.280353 0.389224
vt 0.280826 0.391205
vt 0.281968 0.392026
vt 0.276780 0.389224
vt 0.277306 0.391205
vt 0.278575 0.392026
vt 0.274580 0.389224
vt 0.275138 0.391205
vt 0.276485 0.392026
vt 0.273837 0.389224
vt 0.274406 0.391205
vt 0.275780 0.392026
vt 0.274580 0.389224
vt 0.275138 0.391205
vt 0.276485 0.392026
vt 0.276780 0.389224
vt 0.277306 0.391205
vt 0.278575 0.392026
vt 0.280353 0.389224
vt 0.280826 0.391205
vt 0.281968 0.392026
vt 0.285161 0.389224
vt 0.285564 0.391205
vt 0.286535 0.392026
vt 0.291020 0.389224
vt 0.291336 0.391205
vt 0.292099 0.392026
vt 0.297705 0.389224
vt 0.297922 0.391205
vt 0.298448 0.392026
vt 0.304957 0.389224
vt 0.305068 0.391205
vt 0.305336 0.392026
vt 0.312500 0.389224
vt 0.312500 0.391205
vt 0.312500 0.392026
vt 0.320043 0.389224
vt 0.319932 0.391205
vt 0.319664 0.392026
vt 0.327296 0.389224
vt 0.327078 0.391205
vt 0.326553 0.392026
vt 0.333980 0.389224
vt 0.333664 0.391205
vt 0.332901 0.392026
vt 0.339839 0.389224
vt 0.339437 0.391205
vt 0.338466 0.392026
vt 0.344647 0.389224
vt 0.344174 0.391205
vt 0.343032 0.392026
vt 0.348220 0.389224
vt 0.347695 0.391205
vt 0.346426 0.392026
vt 0.350420 0.389224
vt 0.349862 0.391205
vt 0.348515 0.392026
vt 0.351163 0.389224
vt 0.350594 0.391205
vt 0.349221 0.392026
vt 0.350420 0.389224
vt 0.349862 0.391205
vt 0.348515 0.392026
vt 0.348220 0.389224
vt 0.347695 0.391205
vt 0.346426 0.392026
vt 0.344647 0.389224
vt 0.344174 0.391205
vt 0.343032 0.392026
vt 0.339839 0.389224
vt 0.339437 0.391205
vt 0.338466 0.392026
vt 0.333980 0.389224
vt 0.333664 0.391205
vt 0.332901 0.392026
vt 0.327296 0.389224
vt 0.327078 0.391205
vt 0.326553 0.392026
vt 0.320043 0.389224
vt 0.319932 0.391205
vt 0.319664 0.392026
vt 0.312500 0.357974
vt 0.348220 0.357974
vt 0.344647 0.357974
vt 0.274580 0.357974
vt 0.273837 0.357974
vt 0.312500 0.357974
vt 0.320043 0.357974
vt 0.327296 0.357974
vt 0.333980 0.357974
vt 0.280353 0.357974
vt 0.276780 0.357974
vt 0.297705 0.357974
vt 0.291020 0.357974
vt 0.312500 0.357974
vt 0.304957 0.357974
vt 0.274580 0.357974
vt 0.285161 0.357974
vt 0.339839 0.357974
vt 0.339839 0.357974
vt 0.304957 0.357974
vt 0.306237 0.470151
vt 0.312500 0.470151
vt 0.312500 0.470151
vt 0.305336 0.470151
vt 0.297705 0.357974
vt 0.300214 0.470151
vt 0.298448 0.470151
vt 0.291020 0.357974
vt 0.294663 0.470151
vt 0.292099 0.470151
vt 0.285161 0.357974
vt 0.289798 0.470151
vt 0.286535 0.470151
vt 0.280353 0.357974
vt 0.285805 0.470151
vt 0.281968 0.470151
vt 0.276780 0.357974
vt 0.282838 0.470151
vt 0.278575 0.470151
vt 0.281011 0.470151
vt 0.276485 0.470151
vt 0.280394 0.470151
vt 0.275780 0.470151
vt 0.281011 0.470151
vt 0.276485 0.470151
vt 0.282838 0.470151
vt 0.278575 0.470151
vt 0.285805 0.470151
vt 0.281968 0.470151
vt 0.289798 0.470151
vt 0.286535 0.470151
vt 0.294663 0.470151
vt 0.292099 0.470151
vt 0.300214 0.470151
vt 0.298448 0.470151
vt 0.306237 0.470151
vt 0.305336 0.470151
vt 0.312500 0.470151
vt 0.312500 0.470151
vt 0.320043 0.357974
vt 0.318764 0.470151
vt 0.319664 0.470151
vt 0.327296 0.357974
vt 0.324787 0.470151
vt 0.326553 0.470151
vt 0.333980 0.357974
vt 0.330337 0.470151
vt 0.332901 0.470151
vt 0.335203 0.470151
vt 0.338466 0.470151
vt 0.339195 0.470151
vt 0.343032 0.470151
vt 0.342162 0.470151
vt 0.346426 0.470151
vt 0.350420 0.357974
vt 0.343989 0.470151
vt 0.348515 0.470151
vt 0.351163 0.357974
vt 0.344606 0.470151
vt 0.349221 0.470151
vt 0.350420 0.357974
vt 0.343989 0.470151
vt 0.348515 0.470151
vt 0.348220 0.357974
vt 0.342162 0.470151
vt 0.346426 0.470151
vt 0.344647 0.357974
vt 0.339195 0.470151
vt 0.343032 0.470151
vt 0.335203 0.470151
vt 0.338466 0.470151
vt 0.330337 0.470151
vt 0.332901 0.470151
vt 0.324787 0.470151
vt 0.326553 0.470151
vt 0.318764 0.470151
vt 0.319664 0.470151
vt 0.312500 0.392026
vt 0.312500 0.392026
vt 0.306237 0.392026
vt 0.300214 0.392026
vt 0.294663 0.392026
vt 0.289798 0.392026
vt 0.285805 0.392026
vt 0.282838 0.392026
vt 0.281011 0.392026
vt 0.280394 0.392026
vt 0.281011 0.392026
vt 0.282838 0.392026
vt 0.285805 0.392026
vt 0.289798 0.392026
vt 0.294663 0.392026
vt 0.300214 0.392026
vt 0.306237 0.392026
vt 0.312500 0.392026
vt 0.318764 0.392026
vt 0.324787 0.392026
vt 0.330337 0.392026
vt 0.335203 0.392026
vt 0.339195 0.392026
vt 0.342162 0.392026
vt 0.343989 0.392026
vt 0.344606 0.392026
vt 0.343989 0.392026
vt 0.342162 0.392026
vt 0.339195 0.392026
vt 0.335203 0.392026
vt 0.330337 0.392026
vt 0.324787 0.392026
vt 0.318764 0.392026
vn -0.0000 0.3843 -0.9232
vn -0.1801 0.3843 -0.9055
vn -0.1400 0.6966 -0.7037
vn 0.0000 0.6966 -0.7175
vn -0.0402 0.9786 -0.2019
vn 0.0000 0.9786 -0.2059
vn -0.3533 0.3843 -0.8529
vn -0.2746 0.6966 -0.6629
vn -0.0788 0.9786 -0.1902
vn -0.5129 0.3843 -0.7676
vn -0.3986 0.6966 -0.5966
vn -0.1144 0.9786 -0.1712
vn -0.6528 0.3843 -0.6528
vn -0.2695 0.9245 -0.2695
vn -0.1456 0.9786 -0.1456
vn -0.7676 0.3843 -0.5129
vn -0.3169 0.9245 -0.2117
vn -0.1712 0.9786 -0.1144
vn -0.8529 0.3843 -0.3533
vn -0.6629 0.6966 -0.2746
vn -0.1902 0.9786 -0.0788
vn -0.9055 0.3843 -0.1801
vn -0.7037 0.6966 -0.1400
vn -0.2019 0.9786 -0.0402
vn -0.9232 0.3843 0.0000
vn -0.3811 0.9245 0.0000
vn -0.2059 0.9786 0.0000
vn -0.9055 0.3843 0.1801
vn -0.3738 0.9245 0.0744
vn -0.2019 0.9786 0.0402
vn -0.8529 0.3843 0.3533
vn -0.3521 0.9245 0.1458
vn -0.1902 0.9786 0.0788
vn -0.7676 0.3843 0.5129
vn -0.5966 0.6966 0.3986
vn -0.1712 0.9786 0.1144
vn -0.6528 0.3843 0.6528
vn -0.5073 0.6966 0.5073
vn -0.1456 0.9786 0.1456
vn -0.5129 0.3843 0.7676
vn -0.2117 0.9245 0.3169
vn -0.1144 0.9786 0.1712
vn -0.3533 0.3843 0.8529
vn -0.1458 0.9245 0.3521
vn -0.0788 0.9786 0.1902
vn -0.1801 0.3843 0.9055
vn -0.1400 0.6966 0.7037
vn -0.0402 0.9786 0.2019
vn -0.0000 0.3843 0.9232
vn -0.0000 0.6966 0.7175
vn -0.0000 0.9786 0.2059
vn 0.1801 0.3843 0.9055
vn 0.1400 0.6966 0.7037
vn 0.0402 0.9786 0.2019
vn 0.3533 0.3843 0.8529
vn 0.1458 0.9245 0.3521
vn 0.0788 0.9786 0.1902
vn 0.5129 0.3843 0.7676
vn 0.2117 0.9245 0.3169
vn 0.1144 0.9786 0.1712
vn 0.6528 0.3843 0.6528
vn 0.2695 0.9245 0.2695
vn 0.1456 0.9786 0.1456
vn 0.7676 0.3843 0.5129
vn 0.3169 0.9245 0.2117
vn 0.1712 0.9786 0.1144
vn 0.8529 0.3843 0.3533
vn 0.3521 0.9245 0.1458
vn 0.1902 0.9786 0.0788
vn 0.9055 0.3843 0.1801
vn 0.3738 0.9245 0.0744
vn 0.2019 0.9786 0.0402
vn 0.9232 0.3843 0.0000
vn 0.3811 0.9245 0.0000
vn 0.2059 0.9786 0.0000
vn 0.9055 0.3843 -0.1801
vn 0.3738 0.9245 -0.0744
vn 0.2019 0.9786 -0.0402
vn 0.8529 0.3843 -0.3533
vn 0.6629 0.6966 -0.2746
vn 0.1902 0.9786 -0.0788
vn 0.7676 0.3843 -0.5129
vn 0.5966 0.6966 -0.3986
vn 0.1712 0.9786 -0.1144
vn 0.6528 0.3843 -0.6528
vn 0.5073 0.6966 -0.5073
vn 0.1456 0.9786 -0.1456
vn 0.5129 0.3843 -0.7676
vn 0.3986 0.6966 -0.5966
vn 0.1144 0.9786 -0.1712
vn 0.3533 0.3843 -0.8529
vn 0.2746 0.6966 -0.6629
vn 0.0788 0.9786 -0.1902
vn 0.1801 0.3843 -0.9055
vn 0.1400 0.6966 -0.7037
vn 0.0402 0.9786 -0.2019
vn -0.0000 -1.0000 -0.0000
vn 0.0000 1.0000 0.0000
usemtl holiday
s 1
f 40/1/1 53/2/2 1/3/3 33/4/4
f 33/4/4 1/3/3 54/5/5 55/6/6
f 53/2/2 56/7/7 2/8/8 1/3/3
f 1/3/3 2/8/8 57/9/9 54/5/5
f 56/7/7 58/10/10 3/11/11 2/8/8
f 2/8/8 3/11/11 59/12/12 57/9/9
f 58/10/10 60/13/13 4/14/13 3/11/11
f 3/11/11 4/14/14 61/15/15 59/12/12
f 60/13/13 62/16/16 6/17/16 4/14/13
f 4/14/14 6/17/17 63/18/18 61/15/15
f 62/16/16 64/19/19 7/20/20 6/17/16
f 6/17/17 7/20/20 65/21/21 63/18/18
f 64/19/19 49/22/22 8/23/23 7/20/20
f 7/20/20 8/23/23 66/24/24 65/21/21
f 49/22/22 37/25/25 9/26/25 8/23/23
f 8/23/23 9/26/26 67/27/27 66/24/24
f 37/25/25 38/28/28 10/29/28 9/26/25
f 9/26/26 10/29/29 68/30/30 67/27/27
f 38/28/28 43/31/31 11/32/31 10/29/28
f 10/29/29 11/32/32 69/33/33 68/30/30
f 43/31/31 44/34/34 12/35/35 11/32/31
f 11/32/32 12/35/35 70/36/36 69/33/33
f 44/34/34 50/37/37 13/38/38 12/35/35
f 12/35/35 13/38/38 71/39/39 70/36/36
f 50/37/37 45/40/40 14/41/40 13/38/38
f 13/38/38 14/41/41 72/42/42 71/39/39
f 45/40/40 46/43/43 15/44/43 14/41/40
f 14/41/41 15/44/44 73/45/45 72/42/42
f 46/43/43 47/46/46 16/47/47 15/44/43
f 15/44/44 16/47/47 74/48/48 73/45/45
f 47/46/46 48/49/49 17/50/50 16/47/47
f 16/47/47 17/50/50 75/51/51 74/48/48
f 48/49/49 76/52/52 19/53/53 17/50/50
f 17/50/50 19/53/53 77/54/54 75/51/51
f 76/52/52 78/55/55 20/56/55 19/53/53
f 19/53/53 20/56/56 79/57/57 77/54/54
f 78/55/55 80/58/58 21/59/58 20/56/55
f 20/56/56 21/59/59 81/60/60 79/57/57
f 80/58/58 51/61/61 22/62/61 21/59/58
f 21/59/59 22/62/62 82/63/63 81/60/60
f 51/61/61 35/64/64 23/65/64 22/62/61
f 22/62/62 23/65/65 83/66/66 82/63/63
f 35/64/64 36/67/67 24/68/67 23/65/64
f 23/65/65 24/68/68 84/69/69 83/66/66
f 36/67/67 85/70/70 25/71/70 24/68/67
f 24/68/68 25/71/71 86/72/72 84/69/69
f 85/70/70 87/73/73 26/74/73 25/71/70
f 25/71/71 26/74/74 88/75/75 86/72/72
f 87/73/73 89/76/76 27/77/76 26/74/73
f 26/74/74 27/77/77 90/78/78 88/75/75
f 89/76/76 91/79/79 28/80/80 27/77/76
f 27/77/77 28/80/80 92/81/81 90/78/78
f 91/79/79 93/82/82 29/83/83 28/80/80
f 28/80/80 29/83/83 94/84/84 92/81/81
f 93/82/82 52/85/85 30/86/86 29/83/83
f 29/83/83 30/86/86 95/87/87 94/84/84
f 52/85/85 41/88/88 31/89/89 30/86/86
f 30/86/86 31/89/89 96/90/90 95/87/87
f 41/88/88 42/91/91 32/92/92 31/89/89
f 31/89/89 32/92/92 97/93/93 96/90/90
f 42/91/91 39/94/94 34/95/95 32/92/92
f 32/92/92 34/95/95 98/96/96 97/93/93
f 39/94/94 40/1/1 33/4/4 34/95/95
f 34/95/95 33/4/4 55/6/6 98/96/96
f 5/97/97 36/98/97 35/99/97
f 5/97/97 38/100/97 37/101/97
f 5/97/97 40/102/97 39/103/97
f 5/97/97 42/104/97 41/105/97
f 5/97/97 44/106/97 43/107/97
f 5/97/97 46/108/97 45/109/97
f 5/97/97 48/110/97 47/111/97
f 5/97/97 37/101/97 49/112/97
f 5/97/97 43/107/97 38/100/97
f 5/97/97 45/109/97 50/113/97
f 5/97/97 47/111/97 46/108/97
f 5/97/97 35/99/97 51/114/97
f 5/97/97 41/105/97 52/115/97
f 5/97/97 39/103/97 42/104/97
f 5/97/97 53/116/97 40/102/97
f 99/117/98 100/118/98 55/119/6 54/120/5
f 5/97/97 56/121/97 53/116/97
f 101/122/98 99/117/98 54/120/5 57/123/9
f 5/97/97 58/124/97 56/121/97
f 102/125/98 101/122/98 57/123/9 59/126/12
f 5/97/97 60/127/97 58/124/97
f 103/128/98 102/125/98 59/126/12 61/129/15
f 5/97/97 62/130/97 60/127/97
f 104/131/98 103/128/98 61/129/15 63/132/18
f 5/97/97 64/133/97 62/130/97
f 105/134/98 104/131/98 63/132/18 65/135/21
f 5/97/97 49/112/97 64/133/97
f 106/136/98 105/134/98 65/135/21 66/137/24
f 107/138/98 106/136/98 66/137/24 67/139/27
f 108/140/98 107/138/98 67/139/27 68/141/30
f 109/142/98 108/140/98 68/141/30 69/143/33
f 110/144/98 109/142/98 69/143/33 70/145/36
f 5/97/97 50/113/97 44/106/97
f 111/146/98 110/144/98 70/145/36 71/147/39
f 112/148/98 111/146/98 71/147/39 72/149/42
f 113/150/98 112/148/98 72/149/42 73/151/45
f 114/152/98 113/150/98 73/151/45 74/153/48
f 115/154/98 114/152/98 74/153/48 75/155/51
f 5/97/97 76/156/97 48/110/97
f 116/157/98 115/154/98 75/155/51 77/158/54
f 5/97/97 78/159/97 76/156/97
f 117/160/98 116/157/98 77/158/54 79/161/57
f 5/97/97 80/162/97 78/159/97
f 118/163/98 117/160/98 79/161/57 81/164/60
f 5/97/97 51/114/97 80/162/97
f 119/165/98 118/163/98 81/164/60 82/166/63
f 120/167/98 119/165/98 82/166/63 83/168/66
f 121/169/98 120/167/98 83/168/66 84/170/69
f 5/97/97 85/171/97 36/98/97
f 122/172/98 121/169/98 84/170/69 86/173/72
f 5/97/97 87/174/97 85/171/97
f 123/175/98 122/172/98 86/173/72 88/176/75
f 5/97/97 89/177/97 87/174/97
f 124/178/98 123/175/98 88/176/75 90/179/78
f 5/97/97 91/180/97 89/177/97
f 125/181/98 124/178/98 90/179/78 92/182/81
f 5/97/97 93/183/97 91/180/97
f 126/184/98 125/181/98 92/182/81 94/185/84
f 5/97/97 52/115/97 93/183/97
f 127/186/98 126/184/98 94/185/84 95/187/87
f 128/188/98 127/186/98 95/187/87 96/189/90
f 129/190/98 128/188/98 96/189/90 97/191/93
f 130/192/98 129/190/98 97/191/93 98/193/96
f 100/118/98 130/192/98 98/193/96 55/119/6
f 18/194/98 100/195/98 99/196/98
f 18/194/98 99/196/98 101/197/98
f 18/194/98 101/197/98 102/198/98
f 18/194/98 102/198/98 103/199/98
f 18/194/98 103/199/98 104/200/98
f 18/194/98 104/200/98 105/201/98
f 18/194/98 105/201/98 106/202/98
f 18/194/98 106/202/98 107/203/98
f 18/194/98 107/203/98 108/204/98
f 18/194/98 108/204/98 109/205/98
f 18/194/98 109/205/98 110/206/98
f 18/194/98 110/206/98 111/207/98
f 18/194/98 111/207/98 112/208/98
f 18/194/98 112/208/98 113/209/98
f 18/194/98 113/209/98 114/210/98
f 18/194/98 114/210/98 115/211/98
f 18/194/98 115/211/98 116/212/98
f 18/194/98 116/212/98 117/213/98
f 18/194/98 117/213/98 118/214/98
f 18/194/98 118/214/98 119/215/98
f 18/194/98 119/215/98 120/216/98
f 18/194/98 120/216/98 121/217/98
f 18/194/98 121/217/98 122/218/98
f 18/194/98 122/218/98 123/219/98
f 18/194/98 123/219/98 124/220/98
f 18/194/98 124/220/98 125/221/98
f 18/194/98 125/221/98 126/222/98
f 18/194/98 126/222/98 127/223/98
f 18/194/98 127/223/98 128/224/98
f 18/194/98 128/224/98 129/225/98
f 18/194/98 129/225/98 130/226/98
f 18/194/98 130/226/98 100/195/98
