# Blender v3.4.1 OBJ File: 'Holiday_Bits_Export.blend'
# www.blender.org
mtllib christmas_tree_base.mtl
o christmas_tree_base
v -0.155196 0.499827 -0.374677
v -0.130958 0.499827 -0.316161
v -0.286765 0.499827 -0.286765
v -0.241979 0.499827 -0.241979
v -0.374677 0.499827 -0.155196
v -0.316161 0.499827 -0.130958
v -0.405547 0.499827 0.000000
v -0.342210 0.499827 0.000000
v -0.374677 0.499827 0.155196
v -0.316161 0.499827 0.130958
v -0.286765 0.499827 0.286765
v -0.241979 0.499827 0.241979
v -0.155196 0.499827 0.374677
v -0.130958 0.499827 0.316161
v -0.000000 0.499827 0.405547
v -0.000000 0.499827 0.342210
v 0.169067 0.484690 -0.408164
v -0.000000 0.484690 -0.441793
v 0.312395 0.484690 -0.312395
v 0.408164 0.484690 -0.169067
v 0.441793 0.484690 0.000000
v 0.408164 0.484690 0.169067
v 0.312395 0.484690 0.312395
v 0.169067 0.484690 0.408164
v -0.000000 0.484690 0.441793
v -0.169067 0.484690 0.408164
v -0.312395 0.484690 0.312395
v -0.408164 0.484690 0.169067
v -0.441793 0.484690 0.000000
v -0.408164 0.484690 -0.169067
v -0.312395 0.484690 -0.312395
v -0.169067 0.484690 -0.408164
v -0.000000 0.386008 0.000000
v 0.155196 0.499827 0.374677
v 0.130958 0.499827 0.316161
v 0.286765 0.499827 0.286765
v 0.241979 0.499827 0.241979
v 0.374677 0.499827 0.155196
v 0.316161 0.499827 0.130958
v 0.405547 0.499827 0.000000
v 0.342210 0.499827 0.000000
v 0.374677 0.499827 -0.155196
v 0.316161 0.499827 -0.130958
v 0.286765 0.499827 -0.286765
v 0.241979 0.499827 -0.241979
v 0.155196 0.499827 -0.374677
v 0.130958 0.499827 -0.316161
v -0.000000 0.499827 -0.342210
v -0.000000 0.499827 -0.405547
v 0.000000 0.035050 -0.444317
v 0.170033 0.035050 -0.410495
v 0.314179 0.035050 -0.314179
v 0.410495 0.035049 -0.170033
v 0.444317 0.035049 0.000000
v 0.410495 0.035049 0.170033
v 0.314179 0.035049 0.314179
v 0.170033 0.035049 0.410495
v -0.000000 0.035049 0.444317
v 0.000000 0.000000 -0.000000
v -0.170033 0.035049 0.410495
v -0.314179 0.035049 0.314179
v -0.410495 0.035049 0.170033
v -0.444317 0.035049 -0.000000
v -0.410495 0.035049 -0.170033
v -0.314179 0.035050 -0.314179
v -0.170033 0.035050 -0.410495
v 0.000000 0.325381 -0.428223
v 0.000000 0.289123 -0.449656
v 0.172076 0.289123 -0.415428
v 0.163874 0.325381 -0.395627
v 0.317955 0.289123 -0.317955
v 0.302800 0.325381 -0.302800
v 0.415428 0.289123 -0.172076
v 0.395627 0.325381 -0.163874
v 0.449656 0.289123 0.000000
v 0.428223 0.325381 0.000000
v 0.415428 0.289123 0.172076
v 0.395627 0.325381 0.163874
v 0.317955 0.289123 0.317955
v 0.302800 0.325381 0.302800
v 0.172076 0.289123 0.415428
v 0.163874 0.325381 0.395627
v -0.000000 0.289123 0.449657
v -0.000000 0.325381 0.428223
v -0.172076 0.289123 0.415428
v -0.163874 0.325381 0.395627
v -0.317955 0.289123 0.317955
v -0.302800 0.325381 0.302800
v -0.415428 0.289123 0.172076
v -0.395627 0.325381 0.163874
v -0.449656 0.289123 0.000000
v -0.428223 0.325381 0.000000
v -0.415428 0.289123 -0.172076
v -0.395627 0.325381 -0.163874
v -0.317955 0.289123 -0.317955
v -0.302800 0.325381 -0.302800
v -0.172076 0.289123 -0.415428
v -0.163874 0.325381 -0.395627
v 0.168539 0.439580 -0.406888
v -0.000000 0.439580 -0.440412
v -0.168539 0.439580 -0.406888
v 0.311419 0.439580 -0.311419
v 0.406888 0.439580 -0.168538
v 0.440412 0.439580 0.000000
v 0.406888 0.439580 0.168539
v 0.311419 0.439580 0.311419
v 0.168539 0.439580 0.406888
v -0.000000 0.439580 0.440412
v -0.168539 0.439580 0.406888
v -0.311419 0.439580 0.311419
v -0.406888 0.439580 0.168539
v -0.440412 0.439580 0.000000
v -0.406888 0.439580 -0.168539
v -0.311419 0.439580 -0.311418
v 0.150908 0.375099 -0.364323
v 0.000000 0.375099 -0.394341
v 0.278841 0.375099 -0.278841
v 0.364323 0.375099 -0.150908
v 0.394341 0.375099 0.000000
v 0.364324 0.375099 0.150908
v 0.278841 0.375099 0.278841
v 0.150908 0.375099 0.364324
v -0.000000 0.375099 0.394341
v -0.150908 0.375099 0.364324
v -0.278841 0.375099 0.278841
v -0.364323 0.375099 0.150908
v -0.394341 0.375099 0.000000
v -0.364323 0.375099 -0.150908
v -0.278841 0.375099 -0.278841
v -0.150908 0.375099 -0.364323
v 0.120332 0.386008 -0.290508
v -0.000000 0.386008 -0.314444
v 0.222345 0.386008 -0.222345
v 0.290508 0.386008 -0.120332
v 0.314444 0.386008 0.000000
v 0.290508 0.386008 0.120332
v 0.222345 0.386008 0.222345
v 0.120332 0.386008 0.290508
v -0.000000 0.386008 0.314444
v -0.120332 0.386008 0.290508
v -0.222345 0.386008 0.222345
v -0.290508 0.386008 0.120333
v -0.314444 0.386008 0.000000
v -0.290508 0.386008 -0.120332
v -0.222345 0.386008 -0.222345
v -0.120332 0.386008 -0.290508
v 0.148904 0.000000 -0.359487
v -0.000000 0.000000 -0.389106
v 0.275140 0.000000 -0.275140
v 0.359487 0.000000 -0.148904
v 0.389106 -0.000000 0.000000
v 0.359487 -0.000000 0.148904
v 0.275140 -0.000000 0.275140
v 0.148905 -0.000000 0.359487
v -0.000000 -0.000000 0.389106
v -0.148904 -0.000000 0.359487
v -0.275140 -0.000000 0.275140
v -0.359487 -0.000000 0.148905
v -0.389106 -0.000000 0.000000
v -0.359487 0.000000 -0.148905
v -0.275140 0.000000 -0.275140
v -0.148904 0.000000 -0.359487
v -0.171054 0.162086 -0.412962
v 0.000000 0.162086 -0.446986
v 0.171054 0.162086 -0.412962
v 0.316067 0.162086 -0.316067
v 0.412962 0.162086 -0.171054
v 0.446987 0.162086 0.000000
v 0.412962 0.162086 0.171054
v 0.316067 0.162086 0.316067
v 0.171054 0.162086 0.412962
v -0.000000 0.162086 0.446987
v -0.171054 0.162086 0.412962
v -0.316067 0.162086 0.316067
v -0.412962 0.162086 0.171054
v -0.446987 0.162086 0.000000
v -0.412962 0.162086 -0.171054
v -0.316067 0.162086 -0.316067
vt 0.789730 0.381982
vt 0.804509 0.381982
vt 0.804509 0.365138
vt 0.792170 0.365138
vt 0.840188 0.413232
vt 0.831816 0.413232
vt 0.831902 0.425017
vt 0.840300 0.425017
vt 0.843127 0.413232
vt 0.843248 0.425017
vt 0.840188 0.413232
vt 0.840300 0.425017
vt 0.831816 0.413232
vt 0.831902 0.425017
vt 0.819287 0.413232
vt 0.819334 0.425017
vt 0.804509 0.413232
vt 0.804509 0.425017
vt 0.789730 0.413232
vt 0.789683 0.425017
vt 0.777201 0.413232
vt 0.777115 0.425017
vt 0.768829 0.413232
vt 0.768717 0.425017
vt 0.765889 0.413232
vt 0.765769 0.425017
vt 0.768829 0.413232
vt 0.768717 0.425017
vt 0.777201 0.413232
vt 0.777115 0.425017
vt 0.777201 0.381982
vt 0.781709 0.365138
vt 0.789509 0.416303
vt 0.789419 0.452053
vt 0.804509 0.452053
vt 0.804509 0.416303
vt 0.789730 0.413232
vt 0.789683 0.425017
vt 0.804509 0.413232
vt 0.804509 0.425017
vt 0.804509 0.369428
vt 0.804509 0.405178
vt 0.819598 0.405178
vt 0.819508 0.369428
vt 0.826203 0.367987
vt 0.834427 0.397721
vt 0.827407 0.397721
vt 0.821112 0.367987
vt 0.831816 0.381982
vt 0.840188 0.381982
vt 0.834298 0.365138
vt 0.827308 0.365138
vt 0.819287 0.381982
vt 0.804509 0.381982
vt 0.804509 0.365138
vt 0.816847 0.365138
vt 0.819287 0.381982
vt 0.816847 0.365138
vt 0.765889 0.381982
vt 0.768829 0.381982
vt 0.774719 0.365138
vt 0.772265 0.365138
vt 0.840188 0.381982
vt 0.831816 0.381982
vt 0.827308 0.365138
vt 0.834298 0.365138
vt 0.777201 0.381982
vt 0.768829 0.381982
vt 0.774719 0.365138
vt 0.781709 0.365138
vt 0.819287 0.413232
vt 0.819334 0.425017
vt 0.843127 0.381982
vt 0.836752 0.365138
vt 0.789730 0.381982
vt 0.792170 0.365138
vt 0.804509 0.428971
vt 0.818117 0.428971
vt 0.829655 0.428971
vt 0.837363 0.428971
vt 0.840070 0.428971
vt 0.837363 0.428971
vt 0.829655 0.428971
vt 0.818117 0.428971
vt 0.804509 0.428971
vt 0.790900 0.428971
vt 0.779362 0.428971
vt 0.771653 0.428971
vt 0.768947 0.428971
vt 0.771653 0.428971
vt 0.779362 0.428971
vt 0.790900 0.428971
vt 0.782814 0.367987
vt 0.774590 0.397721
vt 0.781610 0.397721
vt 0.787905 0.367987
vt 0.827990 0.367987
vt 0.836892 0.397721
vt 0.781026 0.367987
vt 0.772125 0.397721
vt 0.826203 0.367987
vt 0.834427 0.397721
vt 0.782814 0.367987
vt 0.774590 0.397721
vt 0.821112 0.367987
vt 0.827407 0.397721
vt 0.787905 0.367987
vt 0.781610 0.397721
vt 0.813495 0.367987
vt 0.816901 0.397721
vt 0.795522 0.367987
vt 0.792116 0.397721
vt 0.804509 0.367987
vt 0.804509 0.397721
vt 0.804509 0.397721
vt 0.804509 0.367987
vt 0.795522 0.367987
vt 0.792116 0.397721
vt 0.816901 0.397721
vt 0.813495 0.367987
vt 0.832224 0.369428
vt 0.832389 0.405178
vt 0.840937 0.405178
vt 0.840721 0.369428
vt 0.776793 0.369428
vt 0.776628 0.405178
vt 0.789419 0.405178
vt 0.789509 0.369428
vt 0.768296 0.416303
vt 0.768080 0.452053
vt 0.776628 0.452053
vt 0.776793 0.416303
vt 0.765313 0.369428
vt 0.765079 0.405178
vt 0.768080 0.405178
vt 0.768296 0.369428
vt 0.768296 0.416303
vt 0.768080 0.452053
vt 0.765079 0.452053
vt 0.765313 0.416303
vt 0.776793 0.369428
vt 0.776628 0.405178
vt 0.768080 0.405178
vt 0.768296 0.369428
vt 0.789509 0.416303
vt 0.789419 0.452053
vt 0.776628 0.452053
vt 0.776793 0.416303
vt 0.804509 0.369428
vt 0.804509 0.405178
vt 0.789419 0.405178
vt 0.789509 0.369428
vt 0.819508 0.416303
vt 0.819598 0.452053
vt 0.804509 0.452053
vt 0.804509 0.416303
vt 0.832224 0.369428
vt 0.832389 0.405178
vt 0.819598 0.405178
vt 0.819508 0.369428
vt 0.840721 0.416303
vt 0.840937 0.452053
vt 0.832389 0.452053
vt 0.832224 0.416303
vt 0.843704 0.369428
vt 0.843938 0.405178
vt 0.840937 0.405178
vt 0.840721 0.369428
vt 0.840721 0.416303
vt 0.840937 0.452053
vt 0.843938 0.452053
vt 0.843704 0.416303
vt 0.804509 0.302428
vt 0.819419 0.302428
vt 0.817566 0.293272
vt 0.804509 0.293272
vt 0.832058 0.302428
vt 0.828635 0.293272
vt 0.840504 0.302428
vt 0.836031 0.293272
vt 0.843470 0.302428
vt 0.838628 0.293272
vt 0.840504 0.302428
vt 0.836031 0.293272
vt 0.832058 0.302428
vt 0.828635 0.293272
vt 0.819419 0.302428
vt 0.817566 0.293272
vt 0.804509 0.302428
vt 0.804509 0.293272
vt 0.789598 0.302428
vt 0.791451 0.293272
vt 0.776959 0.302428
vt 0.780382 0.293272
vt 0.768513 0.302428
vt 0.772985 0.293272
vt 0.765547 0.302428
vt 0.770388 0.293272
vt 0.768513 0.302428
vt 0.772985 0.293272
vt 0.776959 0.302428
vt 0.780382 0.293272
vt 0.789598 0.302428
vt 0.791451 0.293272
vt 0.819508 0.416303
vt 0.819598 0.452053
vt 0.832389 0.452053
vt 0.832224 0.416303
vt 0.816847 0.396388
vt 0.827308 0.396388
vt 0.831061 0.414650
vt 0.818878 0.414650
vt 0.834298 0.396388
vt 0.839200 0.414650
vt 0.836752 0.396388
vt 0.842058 0.414650
vt 0.834298 0.396388
vt 0.839200 0.414650
vt 0.827308 0.396388
vt 0.831061 0.414650
vt 0.816847 0.396388
vt 0.818878 0.414650
vt 0.804509 0.396388
vt 0.804509 0.414650
vt 0.792170 0.396388
vt 0.790138 0.414650
vt 0.781709 0.396388
vt 0.777956 0.414650
vt 0.774719 0.396388
vt 0.769817 0.414650
vt 0.772265 0.396388
vt 0.766958 0.414650
vt 0.774719 0.396388
vt 0.769817 0.414650
vt 0.781709 0.396388
vt 0.777956 0.414650
vt 0.792170 0.396388
vt 0.790138 0.414650
vt 0.804509 0.396388
vt 0.804509 0.414650
vt 0.790138 0.461525
vt 0.804509 0.461525
vt 0.777956 0.461525
vt 0.769817 0.461525
vt 0.766958 0.461525
vt 0.769817 0.461525
vt 0.777956 0.461525
vt 0.790138 0.461525
vt 0.804509 0.461525
vt 0.818878 0.461525
vt 0.831061 0.461525
vt 0.839200 0.461525
vt 0.842058 0.461525
vt 0.839200 0.461525
vt 0.831061 0.461525
vt 0.818878 0.461525
vt 0.792116 0.428971
vt 0.804509 0.428971
vt 0.781610 0.428971
vt 0.774590 0.428971
vt 0.772125 0.428971
vt 0.774590 0.428971
vt 0.781610 0.428971
vt 0.792116 0.428971
vt 0.804509 0.428971
vt 0.816901 0.428971
vt 0.827407 0.428971
vt 0.834427 0.428971
vt 0.836892 0.428971
vt 0.834427 0.428971
vt 0.827407 0.428971
vt 0.816901 0.428971
vt 0.804509 0.258612
vt 0.813495 0.258612
vt 0.804509 0.258612
vt 0.821112 0.258612
vt 0.826203 0.258612
vt 0.827990 0.258612
vt 0.826203 0.258612
vt 0.821112 0.258612
vt 0.813495 0.258612
vt 0.804509 0.258612
vt 0.795522 0.258612
vt 0.787905 0.258612
vt 0.782814 0.258612
vt 0.781026 0.258612
vt 0.782814 0.258612
vt 0.787905 0.258612
vt 0.795522 0.258612
vt 0.804509 0.277647
vt 0.804509 0.277647
vt 0.817566 0.277647
vt 0.828635 0.277647
vt 0.836031 0.277647
vt 0.838628 0.277647
vt 0.836031 0.277647
vt 0.828635 0.277647
vt 0.817566 0.277647
vt 0.804509 0.277647
vt 0.791451 0.277647
vt 0.780382 0.277647
vt 0.772985 0.277647
vt 0.770388 0.277647
vt 0.772985 0.277647
vt 0.780382 0.277647
vt 0.791451 0.277647
vt 0.819419 0.333678
vt 0.832058 0.333678
vt 0.840504 0.333678
vt 0.843470 0.333678
vt 0.843470 0.380553
vt 0.840504 0.380553
vt 0.840504 0.333678
vt 0.832058 0.333678
vt 0.832058 0.380553
vt 0.819419 0.380553
vt 0.819419 0.333678
vt 0.804509 0.333678
vt 0.804509 0.380553
vt 0.789598 0.380553
vt 0.789598 0.333678
vt 0.776959 0.333678
vt 0.776959 0.380553
vt 0.768513 0.380553
vt 0.768513 0.333678
vt 0.765547 0.333678
vt 0.765547 0.380553
vt 0.768513 0.380553
vt 0.768513 0.333678
vt 0.776959 0.333678
vt 0.776959 0.380553
vt 0.789598 0.380553
vt 0.832058 0.380553
vt 0.840504 0.380553
vt 0.804509 0.380553
vt 0.819419 0.380553
vt 0.789598 0.333678
vt 0.804509 0.333678
vn -0.3114 -0.5814 -0.7517
vn 0.0000 -0.5813 -0.8137
vn 0.9234 -0.0306 -0.3825
vn 0.7068 -0.0306 -0.7068
vn 0.9995 -0.0306 -0.0000
vn 0.9234 -0.0306 0.3825
vn 0.7068 -0.0306 0.7068
vn 0.3825 -0.0306 0.9234
vn -0.0000 -0.0306 0.9995
vn -0.3825 -0.0306 0.9234
vn -0.7068 -0.0306 0.7068
vn -0.9234 -0.0306 0.3825
vn -0.9995 -0.0306 -0.0000
vn -0.9234 -0.0306 -0.3825
vn -0.7068 -0.0306 -0.7068
vn -0.5753 -0.5814 -0.5753
vn -0.3826 -0.0210 -0.9237
vn -0.3710 0.2457 -0.8956
vn 0.0000 0.2457 -0.9694
vn 0.0000 -0.0210 -0.9998
vn -0.3825 -0.0306 -0.9234
vn 0.0000 -0.0306 -0.9995
vn 0.3710 0.2457 -0.8956
vn 0.3826 -0.0210 -0.9237
vn -0.8976 0.2370 0.3718
vn -0.6870 0.2370 0.6870
vn 0.5753 -0.5813 -0.5753
vn 0.7517 -0.5813 -0.3114
vn 0.5753 -0.5814 -0.5753
vn 0.3114 -0.5814 0.7517
vn -0.0000 -0.5814 0.8137
vn 0.3114 -0.5814 -0.7517
vn -0.8137 -0.5814 -0.0000
vn -0.7517 -0.5814 -0.3114
vn 0.7517 -0.5813 0.3114
vn 0.5753 -0.5814 0.5753
vn -0.5753 -0.5814 0.5753
vn -0.7517 -0.5814 0.3114
vn 0.3825 -0.0306 -0.9234
vn 0.8137 -0.5813 -0.0000
vn -0.3114 -0.5814 0.7517
vn 0.0000 0.9755 -0.2199
vn 0.0841 0.9755 -0.2031
vn 0.1475 0.9228 -0.3560
vn 0.0000 0.9228 -0.3854
vn 0.1555 0.9755 -0.1555
vn 0.2725 0.9228 -0.2725
vn 0.2031 0.9755 -0.0841
vn 0.3560 0.9228 -0.1475
vn 0.2199 0.9755 -0.0000
vn 0.3854 0.9228 -0.0000
vn 0.2031 0.9755 0.0841
vn 0.3560 0.9228 0.1475
vn 0.1555 0.9755 0.1555
vn 0.2725 0.9228 0.2725
vn 0.0841 0.9755 0.2031
vn 0.1475 0.9228 0.3560
vn -0.0000 0.9755 0.2199
vn -0.0000 0.9228 0.3854
vn -0.0841 0.9755 0.2031
vn -0.1475 0.9228 0.3560
vn -0.1555 0.9755 0.1555
vn -0.2725 0.9228 0.2725
vn -0.2031 0.9755 0.0841
vn -0.3560 0.9228 0.1475
vn -0.2199 0.9755 0.0000
vn -0.3854 0.9228 0.0000
vn -0.2031 0.9755 -0.0841
vn -0.3560 0.9228 -0.1475
vn -0.1555 0.9755 -0.1555
vn -0.2725 0.9228 -0.2725
vn -0.0841 0.9755 -0.2031
vn -0.1475 0.9228 -0.3560
vn 0.8976 0.2370 -0.3718
vn 0.6870 0.2370 -0.6870
vn -0.9715 0.2370 0.0000
vn 0.9715 0.2370 0.0000
vn -0.8976 0.2370 -0.3718
vn 0.8976 0.2370 0.3718
vn -0.6870 0.2370 -0.6870
vn 0.6870 0.2370 0.6870
vn -0.3718 0.2370 -0.8976
vn 0.3718 0.2370 0.8976
vn -0.0000 0.2370 -0.9715
vn -0.0000 0.2370 0.9715
vn 0.3718 0.2370 -0.8976
vn -0.3718 0.2370 0.8976
vn 0.7070 -0.0210 -0.7070
vn 0.6854 0.2457 -0.6854
vn 0.8956 0.2457 -0.3710
vn 0.9237 -0.0210 -0.3826
vn -0.7070 -0.0210 -0.7070
vn -0.6854 0.2457 -0.6854
vn -0.9237 -0.0210 -0.3826
vn -0.8956 0.2457 -0.3710
vn -0.9998 -0.0210 -0.0000
vn -0.9694 0.2457 0.0000
vn -0.9237 -0.0210 0.3826
vn -0.8956 0.2457 0.3710
vn -0.7070 -0.0210 0.7070
vn -0.6854 0.2457 0.6854
vn -0.3826 -0.0210 0.9237
vn -0.3710 0.2457 0.8956
vn -0.0000 -0.0210 0.9998
vn -0.0000 0.2457 0.9694
vn 0.3826 -0.0210 0.9237
vn 0.3710 0.2457 0.8956
vn 0.7070 -0.0210 0.7070
vn 0.6854 0.2457 0.6854
vn 0.9237 -0.0210 0.3826
vn 0.8956 0.2457 0.3710
vn 0.9998 -0.0210 -0.0000
vn 0.9694 0.2457 -0.0000
vn 0.0000 -0.8442 -0.5360
vn 0.2051 -0.8442 -0.4952
vn 0.3790 -0.8442 -0.3790
vn 0.4952 -0.8442 -0.2051
vn 0.5360 -0.8442 -0.0000
vn 0.4952 -0.8442 0.2051
vn 0.3790 -0.8442 0.3790
vn 0.2051 -0.8442 0.4952
vn -0.0000 -0.8442 0.5360
vn -0.2051 -0.8442 0.4952
vn -0.3790 -0.8442 0.3790
vn -0.4952 -0.8442 0.2051
vn -0.5360 -0.8442 -0.0000
vn -0.4952 -0.8442 -0.2051
vn -0.3790 -0.8442 -0.3790
vn -0.2051 -0.8442 -0.4952
vn 0.3162 0.5632 -0.7634
vn 0.5843 0.5632 -0.5843
vn 0.5976 0.5345 -0.5976
vn 0.3234 0.5345 -0.7808
vn 0.7634 0.5632 -0.3162
vn 0.7808 0.5345 -0.3234
vn 0.8263 0.5632 -0.0000
vn 0.8452 0.5345 -0.0000
vn 0.7634 0.5632 0.3162
vn 0.7808 0.5345 0.3234
vn 0.5843 0.5632 0.5843
vn 0.5976 0.5345 0.5976
vn 0.3162 0.5632 0.7634
vn 0.3234 0.5345 0.7808
vn -0.0000 0.5632 0.8263
vn 0.0000 0.5345 0.8452
vn -0.3162 0.5632 0.7634
vn -0.3234 0.5345 0.7808
vn -0.5843 0.5632 0.5843
vn -0.5976 0.5345 0.5976
vn -0.7634 0.5632 0.3162
vn -0.7808 0.5345 0.3234
vn -0.8263 0.5632 0.0000
vn -0.8452 0.5345 0.0000
vn -0.7634 0.5632 -0.3162
vn -0.7808 0.5345 -0.3234
vn -0.5843 0.5632 -0.5843
vn -0.5976 0.5345 -0.5976
vn -0.3162 0.5632 -0.7634
vn -0.3234 0.5345 -0.7808
vn 0.0000 0.5632 -0.8263
vn 0.0000 0.5345 -0.8452
vn -0.0000 1.0000 0.0000
vn -0.0000 -1.0000 -0.0000
usemtl holiday
s 1
f 101/1/1 100/2/2 116/3/2 130/4/1
f 103/5/3 102/6/4 19/7/4 20/8/3
f 104/9/5 103/5/3 20/8/3 21/10/5
f 105/11/6 104/9/5 21/10/5 22/12/6
f 106/13/7 105/11/6 22/12/6 23/14/7
f 107/15/8 106/13/7 23/14/7 24/16/8
f 108/17/9 107/15/8 24/16/8 25/18/9
f 109/19/10 108/17/9 25/18/9 26/20/10
f 110/21/11 109/19/10 26/20/10 27/22/11
f 111/23/12 110/21/11 27/22/11 28/24/12
f 112/25/13 111/23/12 28/24/12 29/26/13
f 113/27/14 112/25/13 29/26/13 30/28/14
f 114/29/15 113/27/14 30/28/14 31/30/15
f 114/31/16 101/1/1 130/4/1 129/32/16
f 163/33/17 97/34/18 68/35/19 164/36/20
f 101/37/21 114/29/15 31/30/15 32/38/21
f 100/39/22 101/37/21 32/38/21 18/40/22
f 164/41/20 68/42/19 69/43/23 165/44/24
f 134/45/25 43/46/25 45/47/26 133/48/26
f 102/49/27 103/50/28 118/51/28 117/52/29
f 107/53/30 108/54/31 123/55/31 122/56/30
f 116/3/2 100/2/2 99/57/32 115/58/32
f 112/59/33 113/60/34 128/61/34 127/62/33
f 105/63/35 106/64/36 121/65/36 120/66/35
f 110/67/37 111/68/38 126/69/38 125/70/37
f 102/6/4 99/71/39 17/72/39 19/7/4
f 103/50/28 104/73/40 119/74/40 118/51/28
f 108/54/31 109/75/41 124/76/41 123/55/31
f 113/60/34 114/31/16 129/32/16 128/61/34
f 99/57/32 102/49/27 117/52/29 115/58/32
f 106/64/36 107/53/30 122/56/30 121/65/36
f 111/68/38 112/59/33 127/62/33 126/69/38
f 104/73/40 105/63/35 120/66/35 119/74/40
f 109/75/41 110/67/37 125/70/37 124/76/41
f 49/77/42 46/78/43 17/72/44 18/40/45
f 46/78/43 44/79/46 19/7/47 17/72/44
f 44/79/46 42/80/48 20/8/49 19/7/47
f 42/80/48 40/81/50 21/10/51 20/8/49
f 40/81/50 38/82/52 22/12/53 21/10/51
f 38/82/52 36/83/54 23/14/55 22/12/53
f 36/83/54 34/84/56 24/16/57 23/14/55
f 34/84/56 15/85/58 25/18/59 24/16/57
f 15/85/58 13/86/60 26/20/61 25/18/59
f 13/86/60 11/87/62 27/22/63 26/20/61
f 11/87/62 9/88/64 28/24/65 27/22/63
f 9/88/64 7/89/66 29/26/67 28/24/65
f 7/89/66 5/90/68 30/28/69 29/26/67
f 5/90/68 3/91/70 31/30/71 30/28/69
f 3/91/70 1/92/72 32/38/73 31/30/71
f 1/92/72 49/77/42 18/40/45 32/38/73
f 142/93/74 10/94/74 12/95/75 141/96/75
f 135/97/76 41/98/76 43/46/25 134/45/25
f 143/99/77 8/100/77 10/94/74 142/93/74
f 136/101/78 39/102/78 41/98/76 135/97/76
f 144/103/79 6/104/79 8/100/77 143/99/77
f 137/105/80 37/106/80 39/102/78 136/101/78
f 145/107/81 4/108/81 6/104/79 144/103/79
f 138/109/82 35/110/82 37/106/80 137/105/80
f 146/111/83 2/112/83 4/108/81 145/107/81
f 139/113/84 16/114/84 35/110/82 138/109/82
f 48/115/85 2/112/83 146/111/83 132/116/85
f 140/117/86 14/118/86 16/114/84 139/113/84
f 133/48/26 45/47/26 47/119/87 131/120/87
f 141/96/75 12/95/75 14/118/86 140/117/86
f 166/121/88 71/122/89 73/123/90 167/124/91
f 178/125/92 95/126/93 97/127/18 163/128/17
f 177/129/94 93/130/95 95/131/93 178/132/92
f 176/133/96 91/134/97 93/135/95 177/136/94
f 175/137/98 89/138/99 91/139/97 176/140/96
f 174/141/100 87/142/101 89/143/99 175/144/98
f 173/145/102 85/146/103 87/147/101 174/148/100
f 172/149/104 83/150/105 85/151/103 173/152/102
f 171/153/106 81/154/107 83/155/105 172/156/104
f 170/157/108 79/158/109 81/159/107 171/160/106
f 169/161/110 77/162/111 79/163/109 170/164/108
f 168/165/112 75/166/113 77/167/111 169/168/110
f 167/169/91 73/170/90 75/171/113 168/172/112
f 50/173/114 51/174/115 147/175/115 148/176/114
f 51/174/115 52/177/116 149/178/116 147/175/115
f 52/177/116 53/179/117 150/180/117 149/178/116
f 53/179/117 54/181/118 151/182/118 150/180/117
f 54/181/118 55/183/119 152/184/119 151/182/118
f 55/183/119 56/185/120 153/186/120 152/184/119
f 56/185/120 57/187/121 154/188/121 153/186/120
f 57/187/121 58/189/122 155/190/122 154/188/121
f 58/189/122 60/191/123 156/192/123 155/190/122
f 60/191/123 61/193/124 157/194/124 156/192/123
f 61/193/124 62/195/125 158/196/125 157/194/124
f 62/195/125 63/197/126 159/198/126 158/196/125
f 63/197/126 64/199/127 160/200/127 159/198/126
f 64/199/127 65/201/128 161/202/128 160/200/127
f 65/201/128 66/203/129 162/204/129 161/202/128
f 66/203/129 50/173/114 148/176/114 162/204/129
f 165/205/24 69/206/23 71/207/89 166/208/88
f 115/209/130 117/210/131 72/211/132 70/212/133
f 117/210/131 118/213/134 74/214/135 72/211/132
f 118/213/134 119/215/136 76/216/137 74/214/135
f 119/215/136 120/217/138 78/218/139 76/216/137
f 120/217/138 121/219/140 80/220/141 78/218/139
f 121/219/140 122/221/142 82/222/143 80/220/141
f 122/221/142 123/223/144 84/224/145 82/222/143
f 123/223/144 124/225/146 86/226/147 84/224/145
f 124/225/146 125/227/148 88/228/149 86/226/147
f 125/227/148 126/229/150 90/230/151 88/228/149
f 126/229/150 127/231/152 92/232/153 90/230/151
f 127/231/152 128/233/154 94/234/155 92/232/153
f 128/233/154 129/235/156 96/236/157 94/234/155
f 129/235/156 130/237/158 98/238/159 96/236/157
f 130/237/158 116/239/160 67/240/161 98/238/159
f 98/241/159 67/242/161 68/35/19 97/34/18
f 96/243/157 98/241/159 97/34/18 95/131/93
f 94/244/155 96/243/157 95/131/93 93/130/95
f 92/245/153 94/244/155 93/130/95 91/139/97
f 90/246/151 92/245/153 91/139/97 89/138/99
f 88/247/149 90/246/151 89/138/99 87/147/101
f 86/248/147 88/247/149 87/147/101 85/146/103
f 84/249/145 86/248/147 85/146/103 83/155/105
f 82/250/143 84/249/145 83/155/105 81/154/107
f 80/251/141 82/250/143 81/154/107 79/163/109
f 78/252/139 80/251/141 79/163/109 77/162/111
f 76/253/137 78/252/139 77/162/111 75/171/113
f 74/254/135 76/253/137 75/171/113 73/170/90
f 72/255/132 74/254/135 73/170/90 71/207/89
f 70/256/133 72/255/132 71/207/89 69/206/23
f 67/242/161 70/256/133 69/206/23 68/35/19
f 99/71/39 100/39/22 18/40/22 17/72/39
f 2/257/162 48/258/162 49/77/42 1/92/72
f 4/259/162 2/257/162 1/92/72 3/91/70
f 6/260/162 4/259/162 3/91/70 5/90/68
f 8/261/162 6/260/162 5/90/68 7/89/66
f 10/262/162 8/261/162 7/89/66 9/88/64
f 12/263/162 10/262/162 9/88/64 11/87/62
f 14/264/162 12/263/162 11/87/62 13/86/60
f 16/265/162 14/264/162 13/86/60 15/85/58
f 35/266/162 16/265/162 15/85/58 34/84/56
f 37/267/162 35/266/162 34/84/56 36/83/54
f 39/268/162 37/267/162 36/83/54 38/82/52
f 41/269/162 39/268/162 38/82/52 40/81/50
f 43/270/162 41/269/162 40/81/50 42/80/48
f 45/271/162 43/270/162 42/80/48 44/79/46
f 47/272/162 45/271/162 44/79/46 46/78/43
f 48/258/162 47/272/162 46/78/43 49/77/42
f 67/240/161 116/239/160 115/209/130 70/212/133
f 33/273/162 131/274/162 132/275/162
f 33/273/162 133/276/162 131/274/162
f 33/273/162 134/277/162 133/276/162
f 33/273/162 135/278/162 134/277/162
f 33/273/162 136/279/162 135/278/162
f 33/273/162 137/280/162 136/279/162
f 33/273/162 138/281/162 137/280/162
f 33/273/162 139/282/162 138/281/162
f 33/273/162 140/283/162 139/282/162
f 33/273/162 141/284/162 140/283/162
f 33/273/162 142/285/162 141/284/162
f 33/273/162 143/286/162 142/285/162
f 33/273/162 144/287/162 143/286/162
f 33/273/162 145/288/162 144/287/162
f 33/273/162 146/289/162 145/288/162
f 33/273/162 132/275/162 146/289/162
f 59/290/163 148/291/163 147/292/163
f 59/290/163 147/292/163 149/293/163
f 59/290/163 149/293/163 150/294/163
f 59/290/163 150/294/163 151/295/163
f 59/290/163 151/295/163 152/296/163
f 59/290/163 152/296/163 153/297/163
f 59/290/163 153/297/163 154/298/163
f 59/290/163 154/298/163 155/299/163
f 59/290/163 155/299/163 156/300/163
f 59/290/163 156/300/163 157/301/163
f 59/290/163 157/301/163 158/302/163
f 59/290/163 158/302/163 159/303/163
f 59/290/163 159/303/163 160/304/163
f 59/290/163 160/304/163 161/305/163
f 59/290/163 161/305/163 162/306/163
f 59/290/163 162/306/163 148/291/163
f 131/120/87 47/119/87 48/115/85 132/116/85
f 51/307/24 165/44/24 166/121/88 52/308/88
f 53/309/91 167/124/91 168/165/112 54/310/112
f 54/311/112 168/172/112 169/161/110 55/312/110
f 55/313/110 169/168/110 170/157/108 56/314/108
f 56/315/108 170/164/108 171/153/106 57/316/106
f 57/317/106 171/160/106 172/149/104 58/318/104
f 58/319/104 172/156/104 173/145/102 60/320/102
f 60/321/102 173/152/102 174/141/100 61/322/100
f 61/323/100 174/148/100 175/137/98 62/324/98
f 62/325/98 175/144/98 176/133/96 63/326/96
f 63/327/96 176/140/96 177/129/94 64/328/94
f 64/329/94 177/136/94 178/125/92 65/330/92
f 65/331/92 178/132/92 163/33/17 66/332/17
f 52/333/88 166/208/88 167/169/91 53/334/91
f 50/335/20 164/36/20 165/205/24 51/336/24
f 66/337/17 163/128/17 164/41/20 50/338/20
