# Blender v3.4.1 OBJ File: 'Holiday_Bits_Export.blend'
# www.blender.org
mtllib lantern_mini.mtl
o lantern_mini
v -0.032894 0.468843 0.032907
v -0.043179 0.526824 0.043191
v -0.032895 0.468845 -0.032881
v -0.043179 0.526824 -0.043168
v 0.032894 0.468843 0.032907
v 0.043179 0.526824 0.043191
v 0.032895 0.468845 -0.032881
v 0.043179 0.526824 -0.043168
v -0.068038 0.531962 0.068049
v -0.068038 0.531962 -0.068026
v 0.068038 0.531962 -0.068026
v 0.068038 0.531962 0.068049
v -0.068799 0.556241 0.068811
v -0.068799 0.556241 -0.068788
v 0.068799 0.556241 -0.068788
v 0.068799 0.556241 0.068811
v 0.000000 0.603922 0.000012
v -0.048638 0.456676 -0.048639
v -0.048639 0.456675 0.048639
v 0.048638 0.456676 -0.048639
v 0.048639 0.456675 0.048639
v -0.015847 0.428800 -0.014603
v -0.015847 0.428800 0.014603
v 0.015847 0.428800 -0.014603
v 0.015847 0.428800 0.014603
v -0.048457 0.442873 -0.048456
v -0.048457 0.442873 0.048457
v 0.048457 0.442873 -0.048456
v 0.048457 0.442873 0.048457
v -0.015457 0.247374 -0.014603
v -0.015457 0.247374 0.014603
v 0.015457 0.247374 -0.014603
v 0.015457 0.247374 0.014603
v -0.028836 0.233935 -0.028836
v -0.028836 0.233935 0.028836
v 0.028836 0.233935 -0.028836
v 0.028836 0.233935 0.028836
v -0.024284 0.030000 -0.024284
v -0.024284 0.030000 0.024284
v 0.024284 0.030000 -0.024284
v 0.024284 0.030000 0.024284
v 0.014198 0.384198 0.014603
v 0.014198 0.384198 -0.014603
v -0.014198 0.384198 -0.014603
v -0.014198 0.384198 0.014603
v 0.011959 0.366470 0.014603
v -0.011959 0.366470 -0.014603
v 0.011959 0.366470 -0.014603
v -0.011959 0.366470 0.014603
v 0.034136 0.350014 -0.018774
v 0.060768 0.384460 -0.017614
v 0.060768 0.384460 0.017614
v 0.034136 0.350014 0.018774
v -0.034136 0.350014 0.018774
v -0.060768 0.384460 0.017614
v -0.060768 0.384460 -0.017614
v -0.034136 0.350014 -0.018774
v -0.040000 0.000000 -0.040000
v -0.040000 0.000000 0.040000
v 0.040000 0.000000 -0.040000
v 0.040000 0.000000 0.040000
v -0.034009 0.030000 -0.070590
v -0.070590 0.030000 -0.034009
v -0.070590 0.030000 0.034009
v -0.034009 0.030000 0.070590
v 0.070590 0.030000 -0.034009
v 0.034009 0.030000 -0.070590
v 0.034009 0.030000 0.070590
v 0.070590 0.030000 0.034009
v -0.070590 0.000000 -0.034009
v -0.034009 0.000000 -0.070590
v -0.034009 0.000000 0.070590
v -0.070590 0.000000 0.034009
v 0.034009 0.000000 -0.070590
v 0.070590 0.000000 -0.034009
v 0.070590 0.000000 0.034009
v 0.034009 0.000000 0.070590
v 0.000008 0.550752 0.062560
v -0.062543 0.550752 0.000008
v 0.000008 0.550752 -0.062543
v 0.062559 0.550752 0.000008
v 0.000008 0.560567 0.000008
v 0.000008 0.599669 0.074260
v -0.074243 0.599669 0.000008
v 0.000008 0.599669 -0.074243
v 0.074259 0.599669 0.000008
v 0.000008 0.641776 0.000008
v -0.055056 0.558568 0.055073
v -0.055056 0.558568 -0.055056
v 0.055073 0.558568 -0.055056
v 0.055073 0.558568 0.055073
v 0.000008 0.555813 0.034058
v 0.000008 0.555813 -0.034042
v 0.034058 0.555813 0.000008
v -0.034042 0.555813 0.000008
v -0.063314 0.607438 0.063330
v -0.063314 0.607438 -0.063314
v 0.063330 0.607438 -0.063314
v 0.063330 0.607438 0.063330
v 0.000008 0.624946 0.043632
v 0.000008 0.624947 -0.043616
v 0.043632 0.624947 0.000008
v -0.043616 0.624947 0.000008
v -0.079627 0.572319 0.000008
v 0.000008 0.572319 -0.079627
v 0.079643 0.572319 0.000008
v 0.000008 0.572319 0.079643
v 0.035680 0.560919 -0.035664
v -0.035664 0.560919 0.035680
v 0.035680 0.560920 0.035680
v -0.035664 0.560920 -0.035664
v 0.042676 0.625664 -0.042660
v -0.042660 0.625664 0.042676
v 0.042676 0.625663 0.042676
v -0.042660 0.625664 -0.042660
v -0.067422 0.580328 -0.067422
v 0.067438 0.580328 -0.067422
v -0.067422 0.580328 0.067439
v 0.067439 0.580328 0.067439
v 0.000006 0.028685 0.060720
v -0.060705 0.028685 0.000010
v 0.000006 0.028685 -0.060701
v 0.060716 0.028685 0.000010
v 0.000006 0.056085 0.057699
v -0.057684 0.056085 0.000009
v 0.000006 0.056084 -0.057681
v 0.057697 0.056084 0.000009
v 0.000006 0.063847 0.000009
v -0.047974 0.028685 0.047990
v -0.047974 0.028685 -0.047969
v 0.047985 0.028685 -0.047969
v 0.047986 0.028685 0.047990
v -0.043120 0.063915 0.043136
v -0.043120 0.063915 -0.043117
v 0.043133 0.063915 -0.043117
v 0.043133 0.063914 0.043136
v 0.000006 0.061459 0.035813
v 0.000006 0.061459 -0.035798
v 0.035812 0.061459 0.000008
v -0.035799 0.061459 0.000008
v -0.066581 0.040977 0.000009
v 0.000006 0.040977 -0.066578
v 0.066593 0.040977 0.000009
v 0.000006 0.040977 0.066596
v 0.032892 0.067240 -0.032878
v -0.032879 0.067238 0.032893
v 0.032892 0.067240 0.032893
v -0.032879 0.067238 -0.032878
v -0.050008 0.040977 -0.050004
v 0.050020 0.040977 -0.050004
v -0.050008 0.040977 0.050024
v 0.050020 0.040977 0.050024
vt 0.543600 0.940621
vt 0.550148 0.940621
vt 0.553420 0.938984
vt 0.540328 0.938984
vt 0.553420 0.891214
vt 0.540328 0.891214
vt 0.537055 0.891214
vt 0.556695 0.891214
vt 0.556695 0.922464
vt 0.537055 0.922464
vt 0.537055 0.925737
vt 0.556695 0.925737
vt 0.553420 0.875589
vt 0.553420 0.875589
vt 0.556695 0.875589
vt 0.556695 0.875589
vt 0.540328 0.875589
vt 0.540328 0.875589
vt 0.537055 0.875589
vt 0.537055 0.875589
vt 0.540328 0.891214
vt 0.553420 0.891214
vt 0.556695 0.891214
vt 0.537055 0.891214
vt 0.537055 0.922464
vt 0.556695 0.922464
vt 0.556695 0.925737
vt 0.537055 0.925737
vt 0.537055 0.894487
vt 0.537055 0.894487
vt 0.556695 0.894487
vt 0.556695 0.894487
vt 0.556695 0.941362
vt 0.556695 0.941362
vt 0.546875 0.947909
vt 0.537055 0.941362
vt 0.537055 0.941362
vt 0.537055 0.956987
vt 0.556695 0.956987
vt 0.546875 0.963534
vt 0.556695 0.956987
vt 0.537055 0.956987
vt 0.553420 0.907734
vt 0.540328 0.907734
vt 0.540328 0.904460
vt 0.553420 0.904460
vt 0.543600 0.924996
vt 0.543600 0.924996
vt 0.540328 0.923359
vt 0.540328 0.923359
vt 0.550148 0.924996
vt 0.550148 0.924996
vt 0.553420 0.923359
vt 0.553420 0.923359
vt 0.550148 0.940621
vt 0.543600 0.940621
vt 0.540328 0.938984
vt 0.553420 0.938984
vt 0.540328 0.907734
vt 0.553420 0.907734
vt 0.553420 0.904460
vt 0.540328 0.904460
vt 0.553420 0.892109
vt 0.553420 0.892109
vt 0.553420 0.888835
vt 0.553420 0.888835
vt 0.540328 0.892109
vt 0.540328 0.892109
vt 0.540328 0.888835
vt 0.540328 0.888835
vt 0.548510 0.874105
vt 0.548510 0.874105
vt 0.548510 0.841371
vt 0.548510 0.841371
vt 0.545237 0.855949
vt 0.545237 0.855949
vt 0.540328 0.857585
vt 0.540328 0.857585
vt 0.548510 0.871574
vt 0.545237 0.871574
vt 0.540328 0.873210
vt 0.553420 0.873210
vt 0.548510 0.855949
vt 0.548510 0.855949
vt 0.553420 0.857585
vt 0.553420 0.857585
vt 0.545237 0.871574
vt 0.548510 0.871574
vt 0.553420 0.873210
vt 0.540328 0.873210
vt 0.548510 0.888246
vt 0.545237 0.888246
vt 0.540328 0.883336
vt 0.553420 0.883336
vt 0.545237 0.874105
vt 0.545237 0.874105
vt 0.545237 0.841371
vt 0.545237 0.841371
vt 0.548510 0.889730
vt 0.545237 0.889730
vt 0.545237 0.856996
vt 0.548510 0.856996
vt 0.545237 0.889730
vt 0.548510 0.889730
vt 0.548510 0.856996
vt 0.545237 0.856996
vt 0.553420 0.836461
vt 0.553420 0.836461
vt 0.553420 0.802091
vt 0.553420 0.802091
vt 0.545237 0.888246
vt 0.548510 0.888246
vt 0.553420 0.883336
vt 0.540328 0.883336
vt 0.548510 0.872621
vt 0.548510 0.872621
vt 0.553420 0.867711
vt 0.553420 0.867711
vt 0.545237 0.872621
vt 0.545237 0.872621
vt 0.540328 0.867711
vt 0.540328 0.867711
vt 0.540328 0.802091
vt 0.553420 0.802091
vt 0.550028 0.802091
vt 0.543720 0.802091
vt 0.540328 0.836461
vt 0.540328 0.836461
vt 0.540328 0.802091
vt 0.540328 0.802091
vt 0.553420 0.852086
vt 0.540328 0.852086
vt 0.540328 0.817716
vt 0.553420 0.817716
vt 0.540328 0.852086
vt 0.553420 0.852086
vt 0.553420 0.817716
vt 0.540328 0.817716
vt 0.545237 0.902824
vt 0.548510 0.902824
vt 0.548510 0.893004
vt 0.545237 0.893004
vt 0.548510 0.902824
vt 0.545237 0.902824
vt 0.545237 0.893004
vt 0.548510 0.893004
vt 0.545237 0.887199
vt 0.545237 0.887199
vt 0.545237 0.877379
vt 0.545237 0.877379
vt 0.548510 0.887199
vt 0.548510 0.887199
vt 0.548510 0.877379
vt 0.548510 0.877379
vt 0.545237 0.908629
vt 0.545237 0.908629
vt 0.538690 0.908629
vt 0.538690 0.908629
vt 0.548510 0.842855
vt 0.548510 0.842855
vt 0.551785 0.842855
vt 0.551785 0.842855
vt 0.555058 0.846129
vt 0.555058 0.846129
vt 0.548510 0.908629
vt 0.548510 0.908629
vt 0.555058 0.908629
vt 0.555058 0.908629
vt 0.555058 0.893004
vt 0.551785 0.889730
vt 0.551785 0.889730
vt 0.555058 0.893004
vt 0.538690 0.846129
vt 0.538690 0.846129
vt 0.541965 0.842855
vt 0.541965 0.842855
vt 0.541965 0.889730
vt 0.538690 0.893004
vt 0.538690 0.893004
vt 0.541965 0.889730
vt 0.545237 0.842855
vt 0.545237 0.842855
vt 0.540328 0.802091
vt 0.553420 0.802091
vt 0.553420 0.802091
vt 0.553420 0.802091
vt 0.543720 0.817716
vt 0.550028 0.817716
vt 0.543720 0.817716
vt 0.550028 0.817716
vt 0.553420 0.802091
vt 0.553420 0.802091
vt 0.540328 0.802091
vt 0.540328 0.802091
vt 0.540328 0.802091
vt 0.540328 0.802091
vt 0.550028 0.817716
vt 0.543720 0.817716
vt 0.550028 0.817716
vt 0.543720 0.817716
vt 0.543720 0.802091
vt 0.550028 0.802091
vt 0.540328 0.802091
vt 0.540328 0.802091
vt 0.553420 0.802091
vt 0.553420 0.802091
vt 0.540328 0.802091
vt 0.540328 0.802091
vt 0.557077 0.802091
vt 0.553420 0.802091
vt 0.553420 0.802091
vt 0.721142 0.035777
vt 0.707936 0.053462
vt 0.707970 0.069691
vt 0.715840 0.057256
vt 0.687515 0.068643
vt 0.687515 0.053462
vt 0.687515 0.035777
vt 0.653887 0.035777
vt 0.667093 0.053462
vt 0.667060 0.069691
vt 0.659190 0.057256
vt 0.687515 0.053462
vt 0.687515 0.035777
vt 0.707970 0.069691
vt 0.715840 0.057256
vt 0.667060 0.069691
vt 0.659190 0.057256
vt 0.724920 0.137963
vt 0.719066 0.159321
vt 0.709834 0.199689
vt 0.709871 0.187523
vt 0.687515 0.137963
vt 0.687515 0.187523
vt 0.687515 0.207741
vt 0.650110 0.137963
vt 0.655964 0.159321
vt 0.665193 0.199689
vt 0.665156 0.187523
vt 0.687515 0.137963
vt 0.687515 0.187523
vt 0.719066 0.159321
vt 0.709834 0.199689
vt 0.655964 0.159321
vt 0.665193 0.199689
vt 0.654482 0.101177
vt 0.687515 0.078672
vt 0.647703 0.078672
vt 0.720548 0.101177
vt 0.727327 0.078672
vt 0.654482 0.101177
vt 0.687515 0.078672
vt 0.720548 0.101177
vt 0.724920 0.137963
vt 0.719066 0.159321
vt 0.709834 0.199689
vt 0.709871 0.187523
vt 0.687515 0.137963
vt 0.687515 0.187523
vt 0.687515 0.207741
vt 0.650110 0.137963
vt 0.655964 0.159321
vt 0.665193 0.199689
vt 0.665156 0.187523
vt 0.687515 0.137963
vt 0.687515 0.187523
vt 0.719066 0.159321
vt 0.709834 0.199689
vt 0.655964 0.159321
vt 0.665193 0.199689
vt 0.687515 0.035777
vt 0.659190 0.057256
vt 0.654482 0.101177
vt 0.687515 0.078672
vt 0.653887 0.035777
vt 0.647703 0.078672
vt 0.721142 0.035777
vt 0.715840 0.057256
vt 0.720548 0.101177
vt 0.727327 0.078672
vt 0.659190 0.057256
vt 0.654482 0.101177
vt 0.687515 0.035777
vt 0.687515 0.078672
vt 0.715840 0.057256
vt 0.720548 0.101177
vt 0.281547 0.301882
vt 0.271866 0.416871
vt 0.271866 0.416871
vt 0.281541 0.301887
vt 0.353128 0.416871
vt 0.343453 0.301887
vt 0.353128 0.416871
vt 0.343440 0.301882
vn 0.0000 0.7915 -0.6112
vn 0.1023 -0.9895 -0.1023
vn -0.1023 -0.9895 -0.1023
vn 0.0000 -0.0314 -0.9995
vn 0.1023 -0.9895 0.1023
vn -0.1023 -0.9895 0.1023
vn 0.0000 -0.0314 0.9995
vn -0.9995 -0.0314 0.0000
vn 0.9995 -0.0314 0.0000
vn 0.5696 0.8219 0.0000
vn -0.5696 0.8219 0.0000
vn 0.0000 0.8219 0.5696
vn 0.0000 0.8219 -0.5696
vn 0.0000 -0.0132 0.9999
vn -0.6115 0.7912 0.0000
vn 0.6115 0.7912 0.0000
vn 0.0000 0.7910 0.6118
vn 0.0000 -0.0132 -0.9999
vn 0.9999 -0.0132 -0.0000
vn -0.9999 -0.0132 -0.0000
vn 0.9996 0.0294 0.0000
vn -0.2077 -0.9579 -0.1982
vn -0.2077 -0.9579 0.1982
vn -0.2018 -0.9580 0.2038
vn -0.2018 -0.9580 -0.2038
vn 0.2077 -0.9579 -0.1982
vn 0.2018 -0.9580 -0.2038
vn 0.2077 -0.9579 0.1982
vn 0.2018 -0.9580 0.2038
vn 0.0000 0.7271 0.6865
vn -0.9996 0.0294 0.0000
vn -0.0338 0.0272 0.9991
vn 0.0338 0.0272 0.9991
vn 0.0000 -0.0000 1.0000
vn 0.0338 0.0272 -0.9991
vn -0.0338 0.0272 -0.9991
vn 0.0000 0.0000 -1.0000
vn 0.9998 -0.0223 0.0000
vn 0.0000 0.7271 -0.6865
vn 0.7087 0.7055 0.0000
vn -0.7087 0.7055 0.0000
vn -0.0000 -1.0000 -0.0000
vn -0.9998 -0.0223 0.0000
vn 0.0000 -0.0223 0.9998
vn 0.0000 -0.0223 -0.9998
vn -0.0313 0.0252 -0.9992
vn 0.0313 0.0252 -0.9992
vn 0.0313 0.0252 0.9992
vn -0.0313 0.0252 0.9992
vn -0.9993 -0.0369 0.0000
vn 0.9993 -0.0369 0.0000
vn 0.0056 1.0000 0.0000
vn -0.5959 -0.8031 0.0000
vn 0.7911 -0.6117 0.0000
vn -0.0056 1.0000 0.0000
vn -0.0872 0.0704 -0.9937
vn -0.0872 0.0704 0.9937
vn -0.7911 -0.6117 0.0000
vn 0.0872 0.0704 -0.9937
vn 0.0872 0.0704 0.9937
vn 0.5959 -0.8031 0.0000
vn -0.0000 1.0000 0.0000
vn -0.9239 0.0000 0.3827
vn -0.9239 0.0000 -0.3827
vn 0.9239 0.0000 -0.3827
vn 0.9239 0.0000 0.3827
vn -0.7071 0.0000 0.7071
vn 0.7071 0.0000 0.7071
vn 0.7071 0.0000 -0.7071
vn -0.7071 0.0000 -0.7071
vn -0.2027 -0.9792 -0.0000
vn -0.0975 -0.9952 -0.0000
vn -0.0284 -0.9992 0.0284
vn -0.0389 -0.9985 0.0389
vn -0.0000 -0.9952 0.0975
vn -0.0000 -0.9792 0.2027
vn 0.2027 -0.9792 0.0000
vn 0.0975 -0.9952 0.0000
vn 0.0284 -0.9992 -0.0284
vn 0.0389 -0.9985 -0.0389
vn 0.0000 -0.9952 -0.0975
vn 0.0000 -0.9792 -0.2027
vn -0.0284 -0.9992 -0.0284
vn -0.0389 -0.9985 -0.0389
vn 0.0284 -0.9992 0.0284
vn 0.0389 -0.9985 0.0389
vn 0.8834 0.4685 0.0000
vn 0.8867 0.4520 -0.0976
vn 0.3149 0.8954 -0.3149
vn 0.5116 0.8592 0.0000
vn -0.0000 0.4685 -0.8834
vn -0.0000 0.8592 -0.5116
vn 0.0976 0.4520 -0.8867
vn -0.8834 0.4685 0.0000
vn -0.8867 0.4520 0.0976
vn -0.3149 0.8954 0.3149
vn -0.5116 0.8592 0.0000
vn 0.0000 0.4686 0.8834
vn 0.0000 0.8592 0.5116
vn -0.0976 0.4520 0.8867
vn 0.0976 0.4520 0.8867
vn 0.3149 0.8954 0.3149
vn 0.8867 0.4520 0.0976
vn -0.0976 0.4520 -0.8867
vn -0.3149 0.8954 -0.3149
vn -0.8867 0.4520 -0.0976
vn 0.0000 -0.6017 -0.7987
vn -0.2019 -0.5893 -0.7823
vn -0.7823 -0.5893 -0.2019
vn -0.7987 -0.6017 0.0000
vn -0.9720 0.1807 -0.1502
vn -0.9831 0.1828 0.0000
vn -0.0000 0.1828 -0.9831
vn -0.1502 0.1807 -0.9720
vn 0.7987 -0.6017 -0.0000
vn 0.7823 -0.5893 -0.2019
vn 0.2019 -0.5893 -0.7823
vn 0.1502 0.1807 -0.9720
vn 0.9831 0.1828 -0.0000
vn 0.9720 0.1807 -0.1502
vn -0.7823 -0.5893 0.2019
vn -0.2019 -0.5893 0.7823
vn -0.0000 -0.6017 0.7987
vn -0.1502 0.1807 0.9720
vn -0.0000 0.1828 0.9831
vn -0.9720 0.1807 0.1502
vn 0.2019 -0.5893 0.7823
vn 0.7823 -0.5893 0.2019
vn 0.9720 0.1807 0.1502
vn 0.1502 0.1807 0.9720
vn 0.2922 0.9564 -0.0000
vn 0.0974 0.9905 -0.0974
vn 0.0544 0.9970 -0.0544
vn 0.1891 0.9820 0.0000
vn -0.0000 0.9564 -0.2922
vn -0.0000 0.9820 -0.1891
vn -0.2921 0.9564 -0.0000
vn -0.0974 0.9905 0.0974
vn -0.0544 0.9970 0.0544
vn -0.1890 0.9820 0.0000
vn -0.0000 0.9564 0.2921
vn -0.0000 0.9820 0.1890
vn 0.0974 0.9905 0.0974
vn 0.0544 0.9970 0.0544
vn -0.0974 0.9905 -0.0974
vn -0.0544 0.9970 -0.0544
vn -0.0000 -0.3275 -0.9449
vn -0.2719 -0.3151 -0.9093
vn -0.2846 0.0407 -0.9578
vn 0.0000 0.0495 -0.9988
vn -0.9093 -0.3151 -0.2719
vn -0.9449 -0.3274 0.0000
vn -0.9988 0.0495 -0.0000
vn -0.9578 0.0408 -0.2845
vn -0.9056 0.4241 -0.0000
vn -0.8749 0.4097 -0.2581
vn -0.2581 0.4097 -0.8749
vn -0.0000 0.4241 -0.9056
vn 0.9449 -0.3275 0.0000
vn 0.9093 -0.3151 -0.2719
vn 0.9578 0.0407 -0.2845
vn 0.9988 0.0495 -0.0000
vn 0.2719 -0.3152 -0.9093
vn 0.2846 0.0407 -0.9578
vn 0.2581 0.4097 -0.8749
vn 0.8749 0.4097 -0.2580
vn 0.9056 0.4241 -0.0000
vn -0.9093 -0.3150 0.2719
vn -0.9578 0.0408 0.2845
vn -0.2719 -0.3150 0.9093
vn -0.0000 -0.3274 0.9449
vn 0.0000 0.0495 0.9988
vn -0.2845 0.0408 0.9578
vn -0.0000 0.4241 0.9056
vn -0.2580 0.4097 0.8750
vn -0.8750 0.4097 0.2580
vn 0.2719 -0.3150 0.9093
vn 0.2845 0.0408 0.9578
vn 0.9093 -0.3151 0.2719
vn 0.9578 0.0407 0.2845
vn 0.8750 0.4097 0.2580
vn 0.2580 0.4097 0.8750
vn -0.9846 -0.1747 0.0000
vn 0.0000 -0.1747 -0.9846
vn 0.9846 -0.1747 0.0000
vn 0.0000 -0.1746 0.9846
usemtl holiday
s 1
f 3/1/1 7/2/1 20/3/1 18/4/1
f 8/5/2 4/6/3 10/7/3 11/8/2
f 11/9/4 10/10/4 14/11/4 15/12/4
f 6/13/5 8/14/2 11/15/2 12/16/5
f 4/17/3 2/18/6 9/19/6 10/20/3
f 2/21/6 6/22/5 12/23/5 9/24/6
f 9/25/7 12/26/7 16/27/7 13/28/7
f 10/7/8 9/24/8 13/29/8 14/30/8
f 12/23/9 11/8/9 15/31/9 16/32/9
f 16/33/10 15/34/10 17/35/10
f 14/36/11 13/37/11 17/35/11
f 13/38/12 16/39/12 17/40/12
f 15/41/13 14/42/13 17/40/13
f 21/43/14 19/44/14 27/45/14 29/46/14
f 1/47/15 3/48/15 18/49/15 19/50/15
f 7/51/16 5/52/16 21/53/16 20/54/16
f 5/55/17 1/56/17 19/57/17 21/58/17
f 18/59/18 20/60/18 28/61/18 26/62/18
f 20/63/19 21/64/19 29/65/19 28/66/19
f 19/67/20 18/68/20 26/69/20 27/70/20
f 48/71/21 46/72/21 33/73/21 32/74/21
f 22/75/22 23/76/23 27/77/24 26/78/25
f 24/79/26 22/80/22 26/81/25 28/82/27
f 25/83/28 24/84/26 28/85/27 29/86/29
f 23/87/23 25/88/28 29/89/29 27/90/24
f 33/91/30 31/92/30 35/93/30 37/94/30
f 49/95/31 47/96/31 30/97/31 31/98/31
f 46/99/32 49/100/33 31/101/34 33/102/34
f 47/103/35 48/104/36 32/105/37 30/106/37
f 36/107/38 37/108/38 41/109/38 40/110/38
f 30/111/39 32/112/39 36/113/39 34/114/39
f 32/115/40 33/116/40 37/117/40 36/118/40
f 31/119/41 30/120/41 34/121/41 35/122/41
f 59/123/42 61/124/42 77/125/42 72/126/42
f 35/127/43 34/128/43 38/129/43 39/130/43
f 37/131/44 35/132/44 39/133/44 41/134/44
f 34/135/45 36/136/45 40/137/45 38/138/45
f 22/139/37 24/140/37 43/141/46 44/142/47
f 25/143/34 23/144/34 45/145/48 42/146/49
f 23/147/50 22/148/50 44/149/50 45/150/50
f 24/151/51 25/152/51 42/153/51 43/154/51
f 44/142/47 43/141/46 48/104/36 47/103/35
f 42/146/49 45/145/48 49/100/33 46/99/32
f 45/155/52 44/156/52 56/157/52 55/158/52
f 46/159/53 48/160/53 50/161/53 53/162/53
f 51/163/54 52/164/54 53/162/54 50/161/54
f 43/165/55 42/166/55 52/167/55 51/168/55
f 48/104/36 43/141/46 51/169/56 50/170/56
f 42/146/49 46/99/32 53/171/57 52/172/57
f 55/173/58 56/174/58 57/175/58 54/176/58
f 44/142/47 47/103/35 57/177/59 56/178/59
f 49/100/33 45/145/48 55/179/60 54/180/60
f 47/181/61 49/182/61 54/176/61 57/175/61
f 58/183/42 60/184/42 61/124/42 59/123/42
f 61/124/42 60/184/42 75/185/42 76/186/42
f 41/134/62 39/133/62 65/187/62 68/188/62
f 68/188/34 65/187/34 72/189/34 77/190/34
f 40/110/62 41/109/62 69/191/62 66/192/62
f 64/193/63 63/194/64 70/195/64 73/196/63
f 58/183/42 59/123/42 73/196/42 70/195/42
f 38/138/62 40/137/62 67/197/62 62/198/62
f 66/192/65 69/191/66 76/186/66 75/185/65
f 62/198/37 67/197/37 74/199/37 71/200/37
f 60/184/42 58/183/42 71/201/42 74/202/42
f 62/203/62 63/194/62 38/129/62
f 64/193/62 65/204/62 39/130/62
f 66/192/62 67/205/62 40/110/62
f 68/206/62 69/191/62 41/109/62
f 70/195/42 71/207/42 58/183/42
f 72/208/42 73/196/42 59/123/42
f 74/202/42 75/185/42 60/184/42
f 76/209/42 77/125/42 61/124/42
f 64/193/63 73/196/63 72/208/67 65/204/67
f 76/186/66 69/191/66 68/206/68 77/210/68
f 66/192/65 75/185/65 74/211/69 67/205/69
f 70/195/64 63/194/64 62/203/70 71/207/70
f 39/130/62 38/129/62 63/194/62 64/193/62
f 81/212/71 94/213/72 108/214/73 90/215/74
f 82/216/42 93/217/75 108/214/73 94/213/72
f 80/218/76 90/215/74 108/214/73 93/217/75
f 79/219/77 95/220/78 109/221/79 88/222/80
f 82/216/42 92/223/81 109/221/79 95/220/78
f 78/224/82 88/222/80 109/221/79 92/223/81
f 78/224/82 92/223/81 110/225/83 91/226/84
f 82/216/42 94/213/72 110/225/83 92/223/81
f 81/212/71 91/226/84 110/225/83 94/213/72
f 80/218/76 93/217/75 111/227/85 89/228/86
f 82/216/42 95/220/78 111/227/85 93/217/75
f 79/219/77 89/228/86 111/227/85 95/220/78
f 86/229/87 98/230/88 112/231/89 102/232/90
f 85/233/91 101/234/92 112/231/89 98/230/93
f 87/235/62 102/232/90 112/231/89
f 84/236/94 96/237/95 113/238/96 103/239/97
f 83/240/98 100/241/99 113/238/96 96/237/100
f 87/235/62 103/239/97 113/238/96
f 83/240/98 99/242/101 114/243/102 100/241/99
f 86/229/87 102/232/90 114/243/102 99/242/103
f 87/235/62 100/241/99 114/243/102
f 85/233/91 97/244/104 115/245/105 101/234/92
f 84/236/94 103/239/97 115/245/105 97/244/106
f 87/235/62 101/234/92 115/245/105
f 80/218/107 89/228/108 116/246/108 105/247/107
f 89/228/109 79/219/110 104/248/110 116/246/109
f 116/246/111 104/248/112 84/236/94 97/244/106
f 105/247/113 116/246/114 97/244/104 85/233/91
f 81/212/115 90/215/116 117/249/116 106/250/115
f 90/215/117 80/218/107 105/247/107 117/249/117
f 117/249/118 105/247/113 85/233/91 98/230/93
f 106/250/119 117/249/120 98/230/88 86/229/87
f 79/219/110 88/222/121 118/251/121 104/248/110
f 88/222/122 78/224/123 107/252/123 118/251/122
f 118/251/124 107/252/125 83/240/98 96/237/100
f 104/248/112 118/251/126 96/237/95 84/236/94
f 78/224/123 91/226/127 119/253/127 107/252/123
f 91/226/128 81/212/115 106/250/115 119/253/128
f 119/253/129 106/250/119 86/229/87 99/242/103
f 107/252/125 119/253/130 99/242/101 83/240/98
f 100/241/99 87/235/62 113/238/96
f 101/234/92 87/235/62 112/231/89
f 103/239/97 87/235/62 115/245/105
f 102/232/90 87/235/62 114/243/102
f 127/254/131 135/255/132 145/256/133 139/257/134
f 126/258/135 138/259/136 145/256/133 135/255/132
f 128/260/62 139/257/134 145/256/133
f 125/261/137 133/262/138 146/263/139 140/264/140
f 124/265/141 137/266/142 146/263/139 133/262/138
f 128/260/62 140/264/140 146/263/139
f 124/265/141 136/267/143 147/268/144 137/266/142
f 127/254/131 139/257/134 147/268/144 136/267/143
f 128/260/62 137/266/142 147/268/144
f 126/258/135 134/269/145 148/270/146 138/259/136
f 125/261/137 140/264/140 148/270/146 134/269/145
f 128/260/62 138/259/136 148/270/146
f 122/271/147 130/272/148 149/273/149 142/274/150
f 130/272/151 121/275/152 141/276/153 149/273/154
f 149/273/154 141/276/153 125/261/155 134/269/156
f 142/274/150 149/273/149 134/269/157 126/258/158
f 123/277/159 131/278/160 150/279/161 143/280/162
f 131/278/163 122/271/147 142/274/150 150/279/164
f 150/279/164 142/274/150 126/258/158 135/255/165
f 143/280/162 150/279/161 135/255/166 127/254/167
f 121/275/152 129/281/168 151/282/169 141/276/153
f 129/281/170 120/283/171 144/284/172 151/282/173
f 151/282/173 144/284/172 124/265/174 133/262/175
f 141/276/153 151/282/169 133/262/176 125/261/155
f 120/283/171 132/285/177 152/286/178 144/284/172
f 132/285/179 123/277/159 143/280/162 152/286/180
f 152/286/180 143/280/162 127/254/167 136/267/181
f 144/284/172 152/286/178 136/267/182 124/265/174
f 137/266/142 128/260/62 146/263/139
f 138/259/136 128/260/62 145/256/133
f 140/264/140 128/260/62 148/270/146
f 139/257/134 128/260/62 147/268/144
usemtl holiday_glow
f 1/287/183 2/288/183 4/289/183 3/290/183
f 3/290/184 4/289/184 8/291/184 7/292/184
f 7/292/185 8/291/185 6/293/185 5/294/185
f 5/294/186 6/293/186 2/288/186 1/287/186
