# Blender v3.4.1 OBJ File: 'Holiday_Bits_Export.blend'
# www.blender.org
mtllib mistletoe_A.mtl
o mistletoe_A
v 0.195446 -0.297504 0.131948
v 0.000000 -0.000000 -0.000000
v 0.200723 -0.050157 0.098227
v 0.093279 -0.065315 0.067408
v 0.159788 -0.111885 0.082324
v 0.227343 -0.159187 0.086001
v 0.049711 -0.195253 0.125967
v 0.200480 0.020067 0.125967
v 0.346409 -0.081907 0.131948
v 0.366777 -0.256820 0.033067
v 0.115783 -0.171463 0.098227
v 0.104088 -0.072883 0.023017
v 0.163552 -0.114521 0.036242
v 0.225883 -0.158165 0.039725
v 0.244797 -0.259825 0.095189
v 0.327881 -0.141169 0.095189
v 0.000001 0.008034 0.060529
v 0.046423 0.022308 0.107342
v -0.017730 0.012050 0.125488
v -0.057379 0.038906 0.077981
v -0.017730 0.065761 0.030475
v 0.046423 0.055503 0.048621
v 0.017733 0.062002 0.153726
v -0.046420 0.072260 0.135580
v -0.046420 0.105455 0.076859
v 0.017733 0.115713 0.058713
v 0.057382 0.088857 0.106219
v 0.000001 0.119729 0.123671
v -0.010421 0.000590 0.093168
v 0.027287 0.006619 0.082502
v 0.016865 0.008979 0.120683
v 0.054573 0.034521 0.075502
v 0.027287 0.026130 0.047987
v -0.033726 0.016375 0.065245
v -0.044148 0.018735 0.103426
v -0.010421 0.032160 0.037321
v -0.044148 0.050306 0.047579
v 0.016865 0.060062 0.030321
v 0.061015 0.054126 0.109358
v 0.061015 0.073637 0.074843
v 0.000001 0.032311 0.147948
v 0.037710 0.038340 0.137282
v -0.061012 0.054126 0.109358
v -0.037707 0.038340 0.137282
v -0.037707 0.089423 0.046919
v -0.061012 0.073637 0.074843
v 0.037710 0.089423 0.046919
v 0.000001 0.095452 0.036253
v 0.044151 0.077457 0.136622
v -0.016863 0.067701 0.153879
v -0.054570 0.093243 0.108698
v -0.016863 0.118784 0.063517
v 0.044151 0.109028 0.080775
v 0.010423 0.095603 0.146880
v 0.033729 0.111388 0.118956
v -0.027284 0.101633 0.136214
v -0.027284 0.121144 0.101699
v 0.010423 0.127174 0.091033
v 0.059892 -0.086519 0.074013
v 0.105258 -0.072570 0.119761
v 0.042563 -0.082595 0.137495
v 0.003815 -0.056349 0.091068
v 0.042563 -0.030104 0.044641
v 0.105258 -0.040129 0.062375
v 0.077220 -0.033778 0.165091
v 0.014525 -0.023753 0.147357
v 0.014525 0.008688 0.089971
v 0.077220 0.018713 0.072237
v 0.115968 -0.007533 0.118664
v 0.059892 0.022637 0.135719
v 0.049706 -0.093795 0.105909
v 0.086557 -0.087902 0.095486
v 0.076372 -0.085595 0.132800
v 0.113223 -0.060635 0.088645
v 0.086557 -0.068834 0.061755
v 0.026931 -0.078368 0.078621
v 0.016745 -0.076061 0.115934
v 0.049706 -0.062942 0.051332
v 0.016745 -0.045208 0.061357
v 0.076372 -0.035674 0.044491
v 0.119518 -0.041475 0.121731
v 0.119518 -0.022407 0.088001
v 0.059892 -0.062794 0.159444
v 0.096743 -0.056902 0.149021
v 0.000265 -0.041475 0.121731
v 0.023040 -0.056902 0.149021
v 0.023040 -0.006980 0.060711
v 0.000265 -0.022407 0.088001
v 0.096743 -0.006980 0.060711
v 0.059892 -0.001088 0.050288
v 0.103038 -0.018674 0.148376
v 0.043411 -0.028208 0.165241
v 0.006560 -0.003247 0.121087
v 0.043411 0.021713 0.076932
v 0.103038 0.012179 0.093798
v 0.070077 -0.000940 0.158400
v 0.092852 0.014486 0.131112
v 0.033226 0.004952 0.147977
v 0.033226 0.024020 0.114246
v 0.070077 0.029913 0.103823
v -0.059887 -0.086519 0.074013
v -0.014520 -0.072570 0.119761
v -0.077215 -0.082595 0.137495
v -0.115963 -0.056349 0.091068
v -0.077215 -0.030104 0.044641
v -0.014520 -0.040129 0.062375
v -0.042559 -0.033778 0.165091
v -0.105254 -0.023753 0.147357
v -0.105254 0.008688 0.089971
v -0.042559 0.018713 0.072237
v -0.003811 -0.007533 0.118664
v -0.059887 0.022637 0.135719
v -0.070072 -0.093795 0.105909
v -0.033221 -0.087902 0.095486
v -0.043406 -0.085595 0.132800
v -0.006555 -0.060635 0.088645
v -0.033221 -0.068834 0.061755
v -0.092848 -0.078368 0.078621
v -0.103033 -0.076061 0.115934
v -0.070072 -0.062942 0.051332
v -0.103033 -0.045208 0.061356
v -0.043406 -0.035674 0.044491
v -0.000260 -0.041475 0.121731
v -0.000260 -0.022407 0.088001
v -0.059887 -0.062794 0.159444
v -0.023036 -0.056902 0.149021
v -0.119514 -0.041475 0.121731
v -0.096738 -0.056902 0.149021
v -0.096738 -0.006980 0.060711
v -0.119514 -0.022407 0.088001
v -0.023036 -0.006980 0.060711
v -0.059887 -0.001088 0.050288
v -0.016741 -0.018674 0.148376
v -0.076368 -0.028208 0.165241
v -0.113219 -0.003247 0.121087
v -0.076368 0.021713 0.076932
v -0.016741 0.012179 0.093798
v -0.049702 -0.000940 0.158400
v -0.026926 0.014486 0.131111
v -0.086553 0.004952 0.147977
v -0.086553 0.024020 0.114246
v -0.049702 0.029913 0.103823
v -0.168235 -0.390339 0.234243
v 0.000002 0.000002 0.000000
v 0.094661 -0.223670 0.163519
v 0.000002 -0.129890 0.108384
v 0.000002 -0.229291 0.143835
v 0.000002 -0.332606 0.165365
v -0.168019 -0.166910 0.190235
v 0.168023 -0.166910 0.190235
v 0.168239 -0.390339 0.234243
v 0.000002 -0.558246 0.133428
v -0.094657 -0.223669 0.163519
v 0.000002 -0.155631 0.055070
v 0.000002 -0.244528 0.086626
v 0.000002 -0.339836 0.106605
v -0.092589 -0.421609 0.191710
v 0.092593 -0.421609 0.191710
v -0.346407 -0.081905 0.131949
v 0.000002 0.000002 0.000000
v -0.115781 -0.171461 0.098227
v -0.093277 -0.065313 0.067408
v -0.159786 -0.111883 0.082324
v -0.227341 -0.159185 0.086001
v -0.200478 0.020070 0.125968
v -0.049709 -0.195251 0.125967
v -0.195444 -0.297502 0.131949
v -0.366775 -0.256818 0.033067
v -0.200721 -0.050155 0.098227
v -0.104086 -0.072881 0.023018
v -0.163550 -0.114518 0.036243
v -0.225881 -0.158163 0.039725
v -0.327879 -0.141167 0.095189
v -0.244795 -0.259823 0.095189
vt 0.062500 0.579778
vt 0.062500 0.597589
vt 0.035928 0.660595
vt 0.047876 0.660655
vt 0.062500 0.607915
vt 0.062500 0.576685
vt 0.089038 0.622355
vt 0.062500 0.561040
vt 0.047549 0.627951
vt 0.089072 0.660595
vt 0.062500 0.644464
vt 0.062500 0.626653
vt 0.077451 0.627951
vt 0.035962 0.622355
vt 0.062500 0.529810
vt 0.077124 0.660655
vt 0.062500 0.674781
vt 0.062500 0.627906
vt 0.062500 0.622717
vt 0.062500 0.639160
vt 0.062500 0.543475
vt 0.062500 0.514185
vt 0.062500 0.605975
vt 0.062500 0.560217
vt 0.062500 0.576660
vt 0.062500 0.612281
vt 0.828125 0.279754
vt 0.841274 0.289312
vt 0.823102 0.289312
vt 0.850496 0.315130
vt 0.854424 0.310105
vt 0.811871 0.289312
vt 0.823102 0.289312
vt 0.841274 0.289312
vt 0.857528 0.421875
vt 0.819580 0.315130
vt 0.836252 0.310105
vt 0.828125 0.421875
vt 0.800472 0.315130
vt 0.806849 0.310105
vt 0.798722 0.421875
vt 0.819580 0.315130
vt 0.806849 0.310105
vt 0.809953 0.421875
vt 0.850496 0.315130
vt 0.836252 0.310105
vt 0.846297 0.421875
vt 0.846297 0.421875
vt 0.809953 0.421875
vt 0.798722 0.421875
vt 0.828125 0.421875
vt 0.857528 0.421875
vt 0.836670 0.450496
vt 0.849401 0.455521
vt 0.833148 0.476314
vt 0.805754 0.450496
vt 0.819998 0.455521
vt 0.814976 0.476314
vt 0.805754 0.450496
vt 0.801826 0.455521
vt 0.814976 0.476314
vt 0.836670 0.450496
vt 0.819998 0.455521
vt 0.833148 0.476314
vt 0.855778 0.450496
vt 0.849401 0.455521
vt 0.844379 0.476314
vt 0.828125 0.485872
vt 0.828125 0.279754
vt 0.841274 0.289312
vt 0.823102 0.289312
vt 0.850496 0.315130
vt 0.854424 0.310105
vt 0.811871 0.289312
vt 0.823102 0.289312
vt 0.841274 0.289312
vt 0.857528 0.421875
vt 0.819580 0.315130
vt 0.836252 0.310105
vt 0.828125 0.421875
vt 0.800472 0.315130
vt 0.806849 0.310105
vt 0.798722 0.421875
vt 0.819580 0.315130
vt 0.806849 0.310105
vt 0.809953 0.421875
vt 0.850496 0.315130
vt 0.836252 0.310105
vt 0.846297 0.421875
vt 0.846297 0.421875
vt 0.809953 0.421875
vt 0.798722 0.421875
vt 0.828125 0.421875
vt 0.857528 0.421875
vt 0.836670 0.450496
vt 0.849401 0.455521
vt 0.833148 0.476314
vt 0.805754 0.450496
vt 0.819998 0.455521
vt 0.814976 0.476314
vt 0.805754 0.450496
vt 0.801826 0.455521
vt 0.814976 0.476314
vt 0.836670 0.450496
vt 0.819998 0.455521
vt 0.833148 0.476314
vt 0.855778 0.450496
vt 0.849401 0.455521
vt 0.844379 0.476314
vt 0.828125 0.485872
vt 0.828125 0.279754
vt 0.841274 0.289312
vt 0.823102 0.289312
vt 0.850496 0.315130
vt 0.854424 0.310105
vt 0.811871 0.289312
vt 0.823102 0.289312
vt 0.841274 0.289312
vt 0.857528 0.421875
vt 0.819580 0.315130
vt 0.836252 0.310105
vt 0.828125 0.421875
vt 0.800472 0.315130
vt 0.806849 0.310105
vt 0.798722 0.421875
vt 0.819580 0.315130
vt 0.806849 0.310105
vt 0.809953 0.421875
vt 0.850496 0.315130
vt 0.836252 0.310105
vt 0.846297 0.421875
vt 0.846297 0.421875
vt 0.809953 0.421875
vt 0.798722 0.421875
vt 0.828125 0.421875
vt 0.857528 0.421875
vt 0.836670 0.450496
vt 0.849401 0.455521
vt 0.833148 0.476314
vt 0.805754 0.450496
vt 0.819998 0.455521
vt 0.814976 0.476314
vt 0.805754 0.450496
vt 0.801826 0.455521
vt 0.814976 0.476314
vt 0.836670 0.450496
vt 0.819998 0.455521
vt 0.833148 0.476314
vt 0.855778 0.450496
vt 0.849401 0.455521
vt 0.844379 0.476314
vt 0.828125 0.485872
vt 0.062500 0.579778
vt 0.062500 0.597589
vt 0.035928 0.660595
vt 0.047876 0.660655
vt 0.062500 0.607915
vt 0.062500 0.576685
vt 0.089038 0.622355
vt 0.062500 0.561040
vt 0.047549 0.627951
vt 0.089072 0.660595
vt 0.062500 0.644464
vt 0.062500 0.626653
vt 0.077451 0.627951
vt 0.035962 0.622355
vt 0.062500 0.529810
vt 0.077124 0.660655
vt 0.062500 0.674781
vt 0.062500 0.627906
vt 0.062500 0.622717
vt 0.062500 0.639160
vt 0.062500 0.543475
vt 0.062500 0.514185
vt 0.062500 0.605975
vt 0.062500 0.560217
vt 0.062500 0.576660
vt 0.062500 0.612281
vt 0.062500 0.579778
vt 0.062500 0.597589
vt 0.035928 0.660595
vt 0.047876 0.660655
vt 0.062500 0.607915
vt 0.062500 0.576685
vt 0.089038 0.622355
vt 0.062500 0.561040
vt 0.047549 0.627951
vt 0.089072 0.660595
vt 0.062500 0.644464
vt 0.062500 0.626653
vt 0.077451 0.627951
vt 0.035962 0.622355
vt 0.062500 0.529810
vt 0.077124 0.660655
vt 0.062500 0.674781
vt 0.062500 0.627906
vt 0.062500 0.622717
vt 0.062500 0.639160
vt 0.062500 0.543475
vt 0.062500 0.514185
vt 0.062500 0.605975
vt 0.062500 0.560217
vt 0.062500 0.576660
vt 0.062500 0.612281
vn -0.2479 -0.1160 0.9618
vn -0.1265 -0.3428 0.9308
vn -0.1173 -0.3438 0.9317
vn 0.0116 -0.5048 0.8631
vn -0.1369 0.4130 0.9004
vn -0.2763 0.4704 0.8381
vn 0.0575 0.3941 0.9173
vn -0.4349 -0.0126 0.9004
vn -0.2364 -0.1932 0.9523
vn 0.2830 0.2278 0.9317
vn 0.2789 0.2361 0.9308
vn 0.0243 0.2726 0.9618
vn 0.1007 0.2882 0.9523
vn -0.3507 -0.1888 0.9173
vn -0.5365 0.0988 0.8381
vn 0.4783 0.1618 0.8631
vn 0.4451 0.1577 0.8815
vn 0.0041 -0.4721 0.8815
vn 0.4074 0.4751 -0.7800
vn 0.4339 0.4452 -0.7833
vn 0.3525 0.4628 -0.8134
vn 0.3525 0.4614 -0.8141
vn 0.3670 0.4514 -0.8133
vn -0.2170 -0.5851 -0.7814
vn -0.1576 -0.5938 -0.7890
vn -0.2224 -0.5679 -0.7925
vn 0.4756 0.4040 -0.7814
vn 0.5041 0.3512 -0.7890
vn -0.3071 -0.5453 -0.7800
vn -0.3130 -0.4891 -0.8141
vn -0.3144 -0.4895 -0.8134
vn -0.2699 -0.5600 -0.7833
vn 0.4576 0.4032 -0.7925
vn -0.3843 -0.4962 -0.7785
vn -0.2987 -0.4993 -0.8133
vn 0.3349 0.5308 -0.7785
vn -0.0000 -0.8705 -0.4921
vn 0.4253 -0.8926 -0.1496
vn -0.1625 -0.9866 0.0166
vn 0.7236 -0.6480 0.2376
vn 0.8506 -0.4577 -0.2587
vn -0.5257 -0.7405 -0.4186
vn -0.1625 -0.4945 -0.8539
vn 0.4253 -0.5884 -0.6876
vn 0.9511 -0.1521 0.2690
vn -0.2764 -0.8079 0.5204
vn 0.2629 -0.8558 0.4455
vn -0.0000 -0.4921 0.8705
vn -0.8944 -0.3893 -0.2201
vn -0.6882 -0.7037 0.1765
vn -0.9511 -0.1521 0.2690
vn -0.2764 0.0293 -0.9606
vn -0.6882 -0.2116 -0.6940
vn -0.5878 0.3981 -0.7043
vn 0.7236 -0.1306 -0.6777
vn 0.2629 -0.0595 -0.9630
vn 0.5878 0.3981 -0.7043
vn 0.5878 -0.3981 0.7043
vn -0.5878 -0.3981 0.7043
vn -0.9511 0.1521 -0.2690
vn -0.0000 0.4921 -0.8705
vn 0.9511 0.1521 -0.2690
vn 0.2764 -0.0293 0.9606
vn 0.6882 0.2116 0.6940
vn 0.1625 0.4945 0.8539
vn -0.7236 0.1306 0.6777
vn -0.2629 0.0595 0.9630
vn -0.4253 0.5884 0.6876
vn -0.7236 0.6480 -0.2376
vn -0.8506 0.4577 0.2587
vn -0.4253 0.8926 0.1496
vn 0.2764 0.8079 -0.5204
vn -0.2629 0.8558 -0.4455
vn 0.1625 0.9866 -0.0166
vn 0.8944 0.3893 0.2201
vn 0.6882 0.7037 -0.1765
vn 0.5257 0.7405 0.4186
vn 0.0000 0.8705 0.4921
vn -0.2372 0.2888 0.9275
vn -0.3534 0.0573 0.9337
vn -0.3489 0.0494 0.9359
vn -0.4069 -0.1569 0.8999
vn 0.2598 0.4887 0.8329
vn 0.2268 0.6240 0.7478
vn 0.3558 0.3236 0.8767
vn -0.2598 0.4887 0.8329
vn -0.2938 0.2343 0.9267
vn 0.3489 0.0494 0.9359
vn 0.3534 0.0573 0.9337
vn 0.2372 0.2888 0.9275
vn 0.2938 0.2343 0.9267
vn -0.3558 0.3236 0.8767
vn -0.2268 0.6240 0.7478
vn 0.4069 -0.1569 0.8999
vn 0.3844 -0.1294 0.9140
vn -0.3844 -0.1294 0.9140
vn 0.6228 -0.1853 -0.7601
vn 0.6136 -0.2243 -0.7571
vn 0.5813 -0.1533 -0.7991
vn 0.5802 -0.1543 -0.7998
vn 0.5803 -0.1715 -0.7961
vn -0.6037 -0.2810 -0.7460
vn -0.5768 -0.3352 -0.7450
vn -0.5928 -0.2687 -0.7593
vn 0.6037 -0.2810 -0.7460
vn 0.5768 -0.3352 -0.7450
vn -0.6228 -0.1853 -0.7601
vn -0.5802 -0.1543 -0.7998
vn -0.5813 -0.1533 -0.7991
vn -0.6136 -0.2243 -0.7571
vn 0.5928 -0.2687 -0.7593
vn -0.6269 -0.0950 -0.7733
vn -0.5803 -0.1715 -0.7961
vn 0.6269 -0.0950 -0.7733
vn -0.0243 0.2726 0.9618
vn -0.2789 0.2361 0.9308
vn -0.2830 0.2278 0.9317
vn -0.4783 0.1618 0.8631
vn 0.4349 -0.0126 0.9004
vn 0.5365 0.0988 0.8381
vn 0.3507 -0.1888 0.9173
vn 0.1369 0.4130 0.9004
vn -0.1007 0.2882 0.9523
vn 0.1173 -0.3438 0.9317
vn 0.1265 -0.3428 0.9308
vn 0.2479 -0.1160 0.9618
vn 0.2364 -0.1932 0.9523
vn -0.0575 0.3941 0.9173
vn 0.2763 0.4704 0.8381
vn -0.0116 -0.5048 0.8631
vn -0.0041 -0.4721 0.8815
vn -0.4451 0.1577 0.8815
vn 0.3071 -0.5453 -0.7800
vn 0.2699 -0.5600 -0.7833
vn 0.3144 -0.4895 -0.8134
vn 0.3130 -0.4891 -0.8141
vn 0.2987 -0.4993 -0.8133
vn -0.4756 0.4040 -0.7814
vn -0.5041 0.3512 -0.7890
vn -0.4576 0.4032 -0.7925
vn 0.2170 -0.5851 -0.7814
vn 0.1576 -0.5938 -0.7890
vn -0.4074 0.4751 -0.7800
vn -0.3525 0.4614 -0.8141
vn -0.3525 0.4628 -0.8134
vn -0.4339 0.4452 -0.7833
vn 0.2224 -0.5679 -0.7925
vn -0.3349 0.5308 -0.7785
vn -0.3670 0.4514 -0.8133
vn 0.3843 -0.4962 -0.7785
usemtl holiday
s 1
f 5/1/1 6/2/2 9/3/3
f 6/2/2 16/4/4 9/3/3
f 4/5/5 2/6/6 7/7/7
f 4/8/8 5/1/1 3/9/9
f 1/10/10 6/11/11 5/12/12
f 11/13/13 5/12/12 4/5/5
f 8/14/14 2/15/15 4/8/8
f 6/11/11 15/16/16 10/17/17
f 1/10/10 15/16/16 6/11/11
f 10/18/18 16/4/4 6/2/2
f 13/19/19 3/9/20 9/3/21
f 14/20/22 9/3/21 16/4/23
f 12/21/24 7/7/25 2/22/26
f 12/23/27 8/14/28 3/9/20
f 13/24/29 14/25/30 1/10/31
f 12/21/24 13/24/29 11/13/32
f 8/14/28 12/23/27 2/6/33
f 14/25/30 10/26/34 15/16/35
f 1/10/31 14/25/30 15/16/35
f 10/17/36 14/20/22 16/4/23
f 7/7/7 11/13/13 4/5/5
f 8/14/14 4/8/8 3/9/9
f 3/9/9 5/1/1 9/3/3
f 11/13/13 1/10/10 5/12/12
f 13/19/19 12/23/27 3/9/20
f 7/7/25 12/21/24 11/13/32
f 11/13/32 13/24/29 1/10/31
f 14/20/22 13/19/19 9/3/21
f 17/27/37 30/28/38 29/29/39
f 18/30/40 30/28/38 32/31/41
f 17/27/37 29/29/39 34/32/42
f 17/27/37 34/32/42 36/33/43
f 17/27/37 36/33/43 33/34/44
f 18/30/40 32/31/41 39/35/45
f 19/36/46 31/37/47 41/38/48
f 20/39/49 35/40/50 43/41/51
f 21/42/52 37/43/53 45/44/54
f 22/45/55 38/46/56 47/47/57
f 18/30/40 39/35/45 42/48/58
f 19/36/46 41/38/48 44/49/59
f 20/39/49 43/41/51 46/50/60
f 21/42/52 45/44/54 48/51/61
f 22/45/55 47/47/57 40/52/62
f 23/53/63 49/54/64 54/55/65
f 24/56/66 50/57/67 56/58/68
f 25/59/69 51/60/70 57/61/71
f 26/62/72 52/63/73 58/64/74
f 27/65/75 53/66/76 55/67/77
f 55/67/77 58/64/74 28/68/78
f 55/67/77 53/66/76 58/64/74
f 53/66/76 26/62/72 58/64/74
f 58/64/74 57/61/71 28/68/78
f 58/64/74 52/63/73 57/61/71
f 52/63/73 25/59/69 57/61/71
f 57/61/71 56/58/68 28/68/78
f 57/61/71 51/60/70 56/58/68
f 51/60/70 24/56/66 56/58/68
f 56/58/68 54/55/65 28/68/78
f 56/58/68 50/57/67 54/55/65
f 50/57/67 23/53/63 54/55/65
f 54/55/65 55/67/77 28/68/78
f 54/55/65 49/54/64 55/67/77
f 49/54/64 27/65/75 55/67/77
f 40/52/62 53/66/76 27/65/75
f 40/52/62 47/47/57 53/66/76
f 47/47/57 26/62/72 53/66/76
f 48/51/61 52/63/73 26/62/72
f 48/51/61 45/44/54 52/63/73
f 45/44/54 25/59/69 52/63/73
f 46/50/60 51/60/70 25/59/69
f 46/50/60 43/41/51 51/60/70
f 43/41/51 24/56/66 51/60/70
f 44/49/59 50/57/67 24/56/66
f 44/49/59 41/38/48 50/57/67
f 41/38/48 23/53/63 50/57/67
f 42/48/58 49/54/64 23/53/63
f 42/48/58 39/35/45 49/54/64
f 39/35/45 27/65/75 49/54/64
f 47/47/57 48/51/61 26/62/72
f 47/47/57 38/46/56 48/51/61
f 38/46/56 21/42/52 48/51/61
f 45/44/54 46/50/60 25/59/69
f 45/44/54 37/43/53 46/50/60
f 37/43/53 20/39/49 46/50/60
f 43/41/51 44/49/59 24/56/66
f 43/41/51 35/40/50 44/49/59
f 35/40/50 19/36/46 44/49/59
f 41/38/48 42/48/58 23/53/63
f 41/38/48 31/37/47 42/48/58
f 31/37/47 18/30/40 42/48/58
f 39/35/45 40/52/62 27/65/75
f 39/35/45 32/31/41 40/52/62
f 32/31/41 22/45/55 40/52/62
f 33/34/44 38/46/56 22/45/55
f 33/34/44 36/33/43 38/46/56
f 36/33/43 21/42/52 38/46/56
f 36/33/43 37/43/53 21/42/52
f 36/33/43 34/32/42 37/43/53
f 34/32/42 20/39/49 37/43/53
f 34/32/42 35/40/50 20/39/49
f 34/32/42 29/29/39 35/40/50
f 29/29/39 19/36/46 35/40/50
f 32/31/41 33/34/44 22/45/55
f 32/31/41 30/28/38 33/34/44
f 30/28/38 17/27/37 33/34/44
f 29/29/39 31/37/47 19/36/46
f 29/29/39 30/28/38 31/37/47
f 30/28/38 18/30/40 31/37/47
f 59/69/37 72/70/38 71/71/39
f 60/72/40 72/70/38 74/73/41
f 59/69/37 71/71/39 76/74/42
f 59/69/37 76/74/42 78/75/43
f 59/69/37 78/75/43 75/76/44
f 60/72/40 74/73/41 81/77/45
f 61/78/46 73/79/47 83/80/48
f 62/81/49 77/82/50 85/83/51
f 63/84/52 79/85/53 87/86/54
f 64/87/55 80/88/56 89/89/57
f 60/72/40 81/77/45 84/90/58
f 61/78/46 83/80/48 86/91/59
f 62/81/49 85/83/51 88/92/60
f 63/84/52 87/86/54 90/93/61
f 64/87/55 89/89/57 82/94/62
f 65/95/63 91/96/64 96/97/65
f 66/98/66 92/99/67 98/100/68
f 67/101/69 93/102/70 99/103/71
f 68/104/72 94/105/73 100/106/74
f 69/107/75 95/108/76 97/109/77
f 97/109/77 100/106/74 70/110/78
f 97/109/77 95/108/76 100/106/74
f 95/108/76 68/104/72 100/106/74
f 100/106/74 99/103/71 70/110/78
f 100/106/74 94/105/73 99/103/71
f 94/105/73 67/101/69 99/103/71
f 99/103/71 98/100/68 70/110/78
f 99/103/71 93/102/70 98/100/68
f 93/102/70 66/98/66 98/100/68
f 98/100/68 96/97/65 70/110/78
f 98/100/68 92/99/67 96/97/65
f 92/99/67 65/95/63 96/97/65
f 96/97/65 97/109/77 70/110/78
f 96/97/65 91/96/64 97/109/77
f 91/96/64 69/107/75 97/109/77
f 82/94/62 95/108/76 69/107/75
f 82/94/62 89/89/57 95/108/76
f 89/89/57 68/104/72 95/108/76
f 90/93/61 94/105/73 68/104/72
f 90/93/61 87/86/54 94/105/73
f 87/86/54 67/101/69 94/105/73
f 88/92/60 93/102/70 67/101/69
f 88/92/60 85/83/51 93/102/70
f 85/83/51 66/98/66 93/102/70
f 86/91/59 92/99/67 66/98/66
f 86/91/59 83/80/48 92/99/67
f 83/80/48 65/95/63 92/99/67
f 84/90/58 91/96/64 65/95/63
f 84/90/58 81/77/45 91/96/64
f 81/77/45 69/107/75 91/96/64
f 89/89/57 90/93/61 68/104/72
f 89/89/57 80/88/56 90/93/61
f 80/88/56 63/84/52 90/93/61
f 87/86/54 88/92/60 67/101/69
f 87/86/54 79/85/53 88/92/60
f 79/85/53 62/81/49 88/92/60
f 85/83/51 86/91/59 66/98/66
f 85/83/51 77/82/50 86/91/59
f 77/82/50 61/78/46 86/91/59
f 83/80/48 84/90/58 65/95/63
f 83/80/48 73/79/47 84/90/58
f 73/79/47 60/72/40 84/90/58
f 81/77/45 82/94/62 69/107/75
f 81/77/45 74/73/41 82/94/62
f 74/73/41 64/87/55 82/94/62
f 75/76/44 80/88/56 64/87/55
f 75/76/44 78/75/43 80/88/56
f 78/75/43 63/84/52 80/88/56
f 78/75/43 79/85/53 63/84/52
f 78/75/43 76/74/42 79/85/53
f 76/74/42 62/81/49 79/85/53
f 76/74/42 77/82/50 62/81/49
f 76/74/42 71/71/39 77/82/50
f 71/71/39 61/78/46 77/82/50
f 74/73/41 75/76/44 64/87/55
f 74/73/41 72/70/38 75/76/44
f 72/70/38 59/69/37 75/76/44
f 71/71/39 73/79/47 61/78/46
f 71/71/39 72/70/38 73/79/47
f 72/70/38 60/72/40 73/79/47
f 101/111/37 114/112/38 113/113/39
f 102/114/40 114/112/38 116/115/41
f 101/111/37 113/113/39 118/116/42
f 101/111/37 118/116/42 120/117/43
f 101/111/37 120/117/43 117/118/44
f 102/114/40 116/115/41 123/119/45
f 103/120/46 115/121/47 125/122/48
f 104/123/49 119/124/50 127/125/51
f 105/126/52 121/127/53 129/128/54
f 106/129/55 122/130/56 131/131/57
f 102/114/40 123/119/45 126/132/58
f 103/120/46 125/122/48 128/133/59
f 104/123/49 127/125/51 130/134/60
f 105/126/52 129/128/54 132/135/61
f 106/129/55 131/131/57 124/136/62
f 107/137/63 133/138/64 138/139/65
f 108/140/66 134/141/67 140/142/68
f 109/143/69 135/144/70 141/145/71
f 110/146/72 136/147/73 142/148/74
f 111/149/75 137/150/76 139/151/77
f 139/151/77 142/148/74 112/152/78
f 139/151/77 137/150/76 142/148/74
f 137/150/76 110/146/72 142/148/74
f 142/148/74 141/145/71 112/152/78
f 142/148/74 136/147/73 141/145/71
f 136/147/73 109/143/69 141/145/71
f 141/145/71 140/142/68 112/152/78
f 141/145/71 135/144/70 140/142/68
f 135/144/70 108/140/66 140/142/68
f 140/142/68 138/139/65 112/152/78
f 140/142/68 134/141/67 138/139/65
f 134/141/67 107/137/63 138/139/65
f 138/139/65 139/151/77 112/152/78
f 138/139/65 133/138/64 139/151/77
f 133/138/64 111/149/75 139/151/77
f 124/136/62 137/150/76 111/149/75
f 124/136/62 131/131/57 137/150/76
f 131/131/57 110/146/72 137/150/76
f 132/135/61 136/147/73 110/146/72
f 132/135/61 129/128/54 136/147/73
f 129/128/54 109/143/69 136/147/73
f 130/134/60 135/144/70 109/143/69
f 130/134/60 127/125/51 135/144/70
f 127/125/51 108/140/66 135/144/70
f 128/133/59 134/141/67 108/140/66
f 128/133/59 125/122/48 134/141/67
f 125/122/48 107/137/63 134/141/67
f 126/132/58 133/138/64 107/137/63
f 126/132/58 123/119/45 133/138/64
f 123/119/45 111/149/75 133/138/64
f 131/131/57 132/135/61 110/146/72
f 131/131/57 122/130/56 132/135/61
f 122/130/56 105/126/52 132/135/61
f 129/128/54 130/134/60 109/143/69
f 129/128/54 121/127/53 130/134/60
f 121/127/53 104/123/49 130/134/60
f 127/125/51 128/133/59 108/140/66
f 127/125/51 119/124/50 128/133/59
f 119/124/50 103/120/46 128/133/59
f 125/122/48 126/132/58 107/137/63
f 125/122/48 115/121/47 126/132/58
f 115/121/47 102/114/40 126/132/58
f 123/119/45 124/136/62 111/149/75
f 123/119/45 116/115/41 124/136/62
f 116/115/41 106/129/55 124/136/62
f 117/118/44 122/130/56 106/129/55
f 117/118/44 120/117/43 122/130/56
f 120/117/43 105/126/52 122/130/56
f 120/117/43 121/127/53 105/126/52
f 120/117/43 118/116/42 121/127/53
f 118/116/42 104/123/49 121/127/53
f 118/116/42 119/124/50 104/123/49
f 118/116/42 113/113/39 119/124/50
f 113/113/39 103/120/46 119/124/50
f 116/115/41 117/118/44 106/129/55
f 116/115/41 114/112/38 117/118/44
f 114/112/38 101/111/37 117/118/44
f 113/113/39 115/121/47 103/120/46
f 113/113/39 114/112/38 115/121/47
f 114/112/38 102/114/40 115/121/47
f 147/153/79 148/154/80 151/155/81
f 148/154/80 158/156/82 151/155/81
f 146/157/83 144/158/84 149/159/85
f 146/160/86 147/153/79 145/161/87
f 143/162/88 148/163/89 147/164/90
f 153/165/91 147/164/90 146/157/83
f 150/166/92 144/167/93 146/160/86
f 148/163/89 157/168/94 152/169/95
f 143/162/88 157/168/94 148/163/89
f 152/170/96 158/156/82 148/154/80
f 155/171/97 145/161/98 151/155/99
f 156/172/100 151/155/99 158/156/101
f 154/173/102 149/159/103 144/174/104
f 154/175/105 150/166/106 145/161/98
f 155/176/107 156/177/108 143/162/109
f 154/173/102 155/176/107 153/165/110
f 150/166/106 154/175/105 144/158/111
f 156/177/108 152/178/112 157/168/113
f 143/162/109 156/177/108 157/168/113
f 152/169/114 156/172/100 158/156/101
f 149/159/85 153/165/91 146/157/83
f 150/166/92 146/160/86 145/161/87
f 145/161/87 147/153/79 151/155/81
f 153/165/91 143/162/88 147/164/90
f 155/171/97 154/175/105 145/161/98
f 149/159/103 154/173/102 153/165/110
f 153/165/110 155/176/107 143/162/109
f 156/172/100 155/171/97 151/155/99
f 163/179/115 164/180/116 167/181/117
f 164/180/116 174/182/118 167/181/117
f 162/183/119 160/184/120 165/185/121
f 162/186/122 163/179/115 161/187/123
f 159/188/124 164/189/125 163/190/126
f 169/191/127 163/190/126 162/183/119
f 166/192/128 160/193/129 162/186/122
f 164/189/125 173/194/130 168/195/131
f 159/188/124 173/194/130 164/189/125
f 168/196/132 174/182/118 164/180/116
f 171/197/133 161/187/134 167/181/135
f 172/198/136 167/181/135 174/182/137
f 170/199/138 165/185/139 160/200/140
f 170/201/141 166/192/142 161/187/134
f 171/202/143 172/203/144 159/188/145
f 170/199/138 171/202/143 169/191/146
f 166/192/142 170/201/141 160/184/147
f 172/203/144 168/204/148 173/194/149
f 159/188/145 172/203/144 173/194/149
f 168/195/150 172/198/136 174/182/137
f 165/185/121 169/191/127 162/183/119
f 166/192/128 162/186/122 161/187/123
f 161/187/123 163/179/115 167/181/117
f 169/191/127 159/188/124 163/190/126
f 171/197/133 170/201/141 161/187/134
f 165/185/139 170/199/138 169/191/146
f 169/191/146 171/202/143 159/188/145
f 172/198/136 171/197/133 167/181/135
