# Blender v3.4.1 OBJ File: 'Holiday_Bits_Export.blend'
# www.blender.org
mtllib plate_red.mtl
o plate_red
v -0.074592 0.100000 -0.375000
v 0.074592 0.100000 -0.375000
v 0.212420 0.100000 -0.317910
v 0.317910 0.100000 -0.212420
v 0.375000 0.100000 -0.074592
v 0.375000 0.100000 0.074592
v 0.317910 0.100000 0.212420
v 0.212420 0.100000 0.317910
v 0.074592 0.100000 0.375000
v -0.074592 0.100000 0.375000
v -0.212420 0.100000 0.317910
v -0.317910 0.100000 0.212421
v -0.375000 0.100000 0.074592
v -0.375000 0.100000 -0.074592
v -0.317910 0.100000 -0.212420
v -0.212420 0.100000 -0.317910
v 0.094483 0.100000 -0.475000
v -0.094483 0.100000 -0.475000
v 0.269066 0.100000 -0.402686
v 0.402686 0.100000 -0.269066
v 0.475000 0.100000 -0.094483
v 0.475000 0.100000 0.094483
v 0.402686 0.100000 0.269066
v 0.269066 0.100000 0.402686
v 0.094483 0.100000 0.475000
v -0.094483 0.100000 0.475000
v -0.269066 0.100000 0.402686
v -0.402686 0.100000 0.269066
v -0.475000 0.100000 0.094483
v -0.475000 0.100000 -0.094483
v -0.402686 0.100000 -0.269066
v -0.269066 0.100000 -0.402686
v 0.000000 0.030000 -0.000000
v 0.000000 -0.000000 0.000000
v -0.094483 0.050000 -0.475000
v 0.094483 0.050000 -0.475000
v 0.269066 0.050000 -0.402686
v 0.402686 0.050000 -0.269066
v 0.475000 0.050000 -0.094483
v 0.475000 0.050000 0.094483
v 0.402686 0.050000 0.269066
v 0.269066 0.050000 0.402686
v 0.094483 0.050000 0.475000
v -0.094483 0.050000 0.475000
v -0.269066 0.050000 0.402686
v -0.402686 0.050000 0.269066
v -0.475000 0.050000 0.094483
v -0.475000 0.050000 -0.094483
v -0.402686 0.050000 -0.269066
v -0.269066 0.050000 -0.402686
v 0.059674 0.030000 -0.300000
v -0.059674 0.030000 -0.300000
v 0.169936 0.030000 -0.254328
v 0.254328 0.030000 -0.169936
v 0.300000 0.030000 -0.059674
v 0.300000 0.030000 0.059674
v 0.254328 0.030000 0.169936
v 0.169936 0.030000 0.254328
v 0.059674 0.030000 0.300000
v -0.059674 0.030000 0.300000
v -0.169936 0.030000 0.254328
v -0.254328 0.030000 0.169936
v -0.300000 0.030000 0.059674
v -0.300000 0.030000 -0.059674
v -0.254328 0.030000 -0.169936
v -0.169936 0.030000 -0.254328
v 0.084538 0.000000 -0.425000
v -0.084538 0.000000 -0.425000
v 0.240743 0.000000 -0.360298
v 0.360298 0.000000 -0.240743
v 0.425000 0.000000 -0.084538
v 0.425000 -0.000000 0.084538
v 0.360298 -0.000000 0.240743
v 0.240743 -0.000000 0.360298
v 0.084538 -0.000000 0.425000
v -0.084538 -0.000000 0.425000
v -0.240743 -0.000000 0.360298
v -0.360298 -0.000000 0.240743
v -0.425000 -0.000000 0.084538
v -0.425000 0.000000 -0.084538
v -0.360298 0.000000 -0.240743
v -0.240743 0.000000 -0.360298
vt 0.914862 0.182500
vt 0.914862 0.198636
vt 0.927398 0.198636
vt 0.927398 0.182500
vt 0.953503 0.182500
vt 0.953503 0.198636
vt 0.963098 0.198636
vt 0.963098 0.182500
vt 0.968290 0.198636
vt 0.968290 0.182500
vt 0.968290 0.198636
vt 0.968290 0.182500
vt 0.963098 0.198636
vt 0.963098 0.182500
vt 0.953503 0.198636
vt 0.953503 0.182500
vt 0.940967 0.198636
vt 0.940967 0.182500
vt 0.927398 0.198636
vt 0.927398 0.182500
vt 0.914862 0.198636
vt 0.914862 0.182500
vt 0.905268 0.198636
vt 0.905268 0.182500
vt 0.900075 0.198636
vt 0.900075 0.182500
vt 0.900075 0.198636
vt 0.900075 0.182500
vt 0.905268 0.198636
vt 0.905268 0.182500
vt 0.946385 0.176045
vt 0.938468 0.176045
vt 0.939539 0.198636
vt 0.949436 0.198636
vt 0.940967 0.182500
vt 0.940967 0.198636
vt 0.928827 0.229070
vt 0.939539 0.229070
vt 0.940967 0.229070
vt 0.927398 0.229070
vt 0.949436 0.229070
vt 0.953503 0.229070
vt 0.957010 0.229070
vt 0.963098 0.229070
vt 0.961110 0.229070
vt 0.968290 0.229070
vt 0.961110 0.229070
vt 0.968290 0.229070
vt 0.957010 0.229070
vt 0.963098 0.229070
vt 0.949436 0.229070
vt 0.953503 0.229070
vt 0.939539 0.229070
vt 0.940967 0.229070
vt 0.928827 0.229070
vt 0.927398 0.229070
vt 0.918930 0.229070
vt 0.914862 0.229070
vt 0.911355 0.229070
vt 0.905268 0.229070
vt 0.907256 0.229070
vt 0.900075 0.229070
vt 0.907256 0.229070
vt 0.900075 0.229070
vt 0.911355 0.229070
vt 0.905268 0.229070
vt 0.918930 0.229070
vt 0.914862 0.229070
vt 0.921980 0.176045
vt 0.929898 0.176045
vt 0.928827 0.198636
vt 0.918930 0.198636
vt 0.929898 0.176045
vt 0.928827 0.198636
vt 0.938468 0.176045
vt 0.946385 0.176045
vt 0.949436 0.198636
vt 0.939539 0.198636
vt 0.921980 0.176045
vt 0.918930 0.198636
vt 0.952445 0.176045
vt 0.957010 0.198636
vt 0.915920 0.176045
vt 0.911355 0.198636
vt 0.955724 0.176045
vt 0.961110 0.198636
vt 0.912641 0.176045
vt 0.907256 0.198636
vt 0.955724 0.176045
vt 0.961110 0.198636
vt 0.912641 0.176045
vt 0.907256 0.198636
vt 0.952445 0.176045
vt 0.957010 0.198636
vt 0.915920 0.176045
vt 0.911355 0.198636
vt 0.927398 0.159470
vt 0.940967 0.159470
vt 0.940253 0.143333
vt 0.928112 0.143333
vt 0.953503 0.159470
vt 0.951469 0.143333
vt 0.963098 0.159470
vt 0.960054 0.143333
vt 0.968290 0.159470
vt 0.964700 0.143333
vt 0.968290 0.159470
vt 0.964700 0.143333
vt 0.963098 0.159470
vt 0.960054 0.143333
vt 0.953503 0.159470
vt 0.951469 0.143333
vt 0.940967 0.159470
vt 0.940253 0.143333
vt 0.927398 0.159470
vt 0.928112 0.143333
vt 0.914862 0.159470
vt 0.916896 0.143333
vt 0.905268 0.159470
vt 0.908311 0.143333
vt 0.900075 0.159470
vt 0.903665 0.143333
vt 0.900075 0.159470
vt 0.903665 0.143333
vt 0.905268 0.159470
vt 0.908311 0.143333
vt 0.914862 0.159470
vt 0.916896 0.143333
vt 0.934183 0.199074
vt 0.938468 0.199074
vt 0.929898 0.199074
vt 0.946385 0.199074
vt 0.952445 0.199074
vt 0.955724 0.199074
vt 0.955724 0.199074
vt 0.952445 0.199074
vt 0.946385 0.199074
vt 0.938468 0.199074
vt 0.929898 0.199074
vt 0.921980 0.199074
vt 0.915920 0.199074
vt 0.912641 0.199074
vt 0.912641 0.199074
vt 0.915920 0.199074
vt 0.921980 0.199074
vt 0.934183 0.120304
vt 0.928112 0.120304
vt 0.940253 0.120304
vt 0.951469 0.120304
vt 0.960054 0.120304
vt 0.964700 0.120304
vt 0.964700 0.120304
vt 0.960054 0.120304
vt 0.951469 0.120304
vt 0.940253 0.120304
vt 0.928112 0.120304
vt 0.916896 0.120304
vt 0.908311 0.120304
vt 0.903665 0.120304
vt 0.903665 0.120304
vt 0.908311 0.120304
vt 0.916896 0.120304
vn -0.5159 -0.3710 -0.7721
vn -0.5556 0.0000 -0.8315
vn -0.1951 0.0000 -0.9808
vn -0.1812 -0.3710 -0.9108
vn 0.5159 -0.3710 -0.7721
vn 0.5556 0.0000 -0.8315
vn 0.8315 0.0000 -0.5556
vn 0.9808 0.0000 -0.1951
vn 0.9808 0.0000 0.1951
vn 0.8315 0.0000 0.5556
vn 0.7721 -0.3710 0.5159
vn 0.5556 0.0000 0.8315
vn 0.5159 -0.3710 0.7721
vn 0.1951 0.0000 0.9808
vn -0.1951 0.0000 0.9808
vn -0.5556 0.0000 0.8315
vn -0.8315 0.0000 0.5556
vn -0.9808 0.0000 0.1951
vn -0.9108 -0.3710 0.1812
vn -0.9808 -0.0000 -0.1951
vn -0.9108 -0.3710 -0.1812
vn -0.8315 -0.0000 -0.5556
vn -0.7721 -0.3710 -0.5159
vn -0.3751 0.7376 -0.5614
vn -0.1317 0.7376 -0.6622
vn 0.1812 -0.3710 -0.9108
vn 0.1951 0.0000 -0.9808
vn -0.0000 1.0000 0.0000
vn 0.3751 0.7376 0.5614
vn 0.1317 0.7376 0.6622
vn 0.1317 0.7376 -0.6622
vn -0.1317 0.7376 0.6622
vn -0.3751 0.7376 0.5614
vn 0.3751 0.7376 -0.5614
vn -0.5614 0.7376 0.3751
vn 0.5614 0.7376 -0.3751
vn -0.6622 0.7376 0.1317
vn 0.6622 0.7376 -0.1317
vn -0.6622 0.7376 -0.1317
vn 0.6622 0.7376 0.1317
vn -0.5614 0.7376 -0.3751
vn 0.5614 0.7376 0.3751
vn 0.1366 -0.7139 -0.6868
vn -0.1366 -0.7139 -0.6868
vn 0.3890 -0.7139 -0.5822
vn 0.5822 -0.7139 -0.3890
vn 0.6868 -0.7139 -0.1366
vn 0.6868 -0.7139 0.1366
vn 0.5822 -0.7139 0.3890
vn 0.3890 -0.7139 0.5822
vn 0.1366 -0.7139 0.6868
vn -0.1366 -0.7139 0.6868
vn -0.3890 -0.7139 0.5822
vn -0.5822 -0.7139 0.3890
vn -0.6868 -0.7139 0.1366
vn -0.6868 -0.7139 -0.1366
vn -0.5822 -0.7139 -0.3890
vn -0.3890 -0.7139 -0.5822
vn 0.0000 -1.0000 -0.0000
usemtl holiday
s 1
f 50/1/1 32/2/2 18/3/3 35/4/4
f 37/5/5 19/6/6 20/7/7 38/8/7
f 38/8/7 20/7/7 21/9/8 39/10/8
f 39/10/8 21/9/8 22/11/9 40/12/9
f 40/12/9 22/11/9 23/13/10 41/14/11
f 41/14/11 23/13/10 24/15/12 42/16/13
f 42/16/13 24/15/12 25/17/14 43/18/14
f 43/18/14 25/17/14 26/19/15 44/20/15
f 44/20/15 26/19/15 27/21/16 45/22/16
f 45/22/16 27/21/16 28/23/17 46/24/17
f 46/24/17 28/23/17 29/25/18 47/26/19
f 47/26/19 29/25/18 30/27/20 48/28/21
f 48/28/21 30/27/20 31/29/22 49/30/23
f 49/30/23 31/29/22 32/2/2 50/1/1
f 58/31/24 59/32/25 9/33/25 8/34/24
f 36/35/26 17/36/27 19/6/6 37/5/5
f 35/4/4 18/3/3 17/36/27 36/35/26
f 1/37/28 2/38/28 17/39/28 18/40/28
f 2/38/28 3/41/28 19/42/28 17/39/28
f 3/41/28 4/43/28 20/44/28 19/42/28
f 4/43/28 5/45/28 21/46/28 20/44/28
f 5/45/28 6/47/28 22/48/28 21/46/28
f 6/47/28 7/49/28 23/50/28 22/48/28
f 7/49/28 8/51/28 24/52/28 23/50/28
f 8/51/28 9/53/28 25/54/28 24/52/28
f 9/53/28 10/55/28 26/56/28 25/54/28
f 10/55/28 11/57/28 27/58/28 26/56/28
f 11/57/28 12/59/28 28/60/28 27/58/28
f 12/59/28 13/61/28 29/62/28 28/60/28
f 13/61/28 14/63/28 30/64/28 29/62/28
f 14/63/28 15/65/28 31/66/28 30/64/28
f 15/65/28 16/67/28 32/68/28 31/66/28
f 16/67/28 1/37/28 18/40/28 32/68/28
f 66/69/29 52/70/30 1/71/30 16/72/29
f 59/32/25 60/73/31 10/74/31 9/33/25
f 51/75/32 53/76/33 3/77/33 2/78/32
f 60/73/31 61/79/34 11/80/34 10/74/31
f 53/76/33 54/81/35 4/82/35 3/77/33
f 61/79/34 62/83/36 12/84/36 11/80/34
f 54/81/35 55/85/37 5/86/37 4/82/35
f 62/83/36 63/87/38 13/88/38 12/84/36
f 55/85/37 56/89/39 6/90/39 5/86/37
f 63/87/38 64/91/40 14/92/40 13/88/38
f 56/89/39 57/93/41 7/94/41 6/90/39
f 64/91/40 65/95/42 15/96/42 14/92/40
f 57/93/41 58/31/24 8/34/24 7/94/41
f 65/95/42 66/69/29 16/72/29 15/96/42
f 52/70/30 51/75/32 2/78/32 1/71/30
f 35/97/4 36/98/26 67/99/43 68/100/44
f 36/98/26 37/101/5 69/102/45 67/99/43
f 37/101/5 38/103/46 70/104/46 69/102/45
f 38/103/46 39/105/47 71/106/47 70/104/46
f 39/105/47 40/107/48 72/108/48 71/106/47
f 40/107/48 41/109/11 73/110/49 72/108/48
f 41/109/11 42/111/13 74/112/50 73/110/49
f 42/111/13 43/113/51 75/114/51 74/112/50
f 43/113/51 44/115/52 76/116/52 75/114/51
f 44/115/52 45/117/53 77/118/53 76/116/52
f 45/117/53 46/119/54 78/120/54 77/118/53
f 46/119/54 47/121/19 79/122/55 78/120/54
f 47/121/19 48/123/21 80/124/56 79/122/55
f 48/123/21 49/125/23 81/126/57 80/124/56
f 49/125/23 50/127/1 82/128/58 81/126/57
f 50/127/1 35/97/4 68/100/44 82/128/58
f 33/129/28 51/130/28 52/131/28
f 33/129/28 53/132/28 51/130/28
f 33/129/28 54/133/28 53/132/28
f 33/129/28 55/134/28 54/133/28
f 33/129/28 56/135/28 55/134/28
f 33/129/28 57/136/28 56/135/28
f 33/129/28 58/137/28 57/136/28
f 33/129/28 59/138/28 58/137/28
f 33/129/28 60/139/28 59/138/28
f 33/129/28 61/140/28 60/139/28
f 33/129/28 62/141/28 61/140/28
f 33/129/28 63/142/28 62/141/28
f 33/129/28 64/143/28 63/142/28
f 33/129/28 65/144/28 64/143/28
f 33/129/28 66/145/28 65/144/28
f 33/129/28 52/131/28 66/145/28
f 34/146/59 68/147/59 67/148/59
f 34/146/59 67/148/59 69/149/59
f 34/146/59 69/149/59 70/150/59
f 34/146/59 70/150/59 71/151/59
f 34/146/59 71/151/59 72/152/59
f 34/146/59 72/152/59 73/153/59
f 34/146/59 73/153/59 74/154/59
f 34/146/59 74/154/59 75/155/59
f 34/146/59 75/155/59 76/156/59
f 34/146/59 76/156/59 77/157/59
f 34/146/59 77/157/59 78/158/59
f 34/146/59 78/158/59 79/159/59
f 34/146/59 79/159/59 80/160/59
f 34/146/59 80/160/59 81/161/59
f 34/146/59 81/161/59 82/162/59
f 34/146/59 82/162/59 68/147/59
