# Blender v3.4.1 OBJ File: 'Holiday_Bits_Export.blend'
# www.blender.org
mtllib stool.mtl
o stool
v -0.000000 0.525000 -0.500000
v -0.000000 0.675000 -0.500000
v 0.250000 0.525000 -0.433012
v 0.250000 0.675000 -0.433012
v 0.433013 0.525000 -0.250000
v 0.433013 0.675000 -0.250000
v 0.500000 0.525000 0.000000
v 0.500000 0.675000 0.000000
v 0.433013 0.525000 0.250000
v 0.433013 0.675000 0.250001
v 0.250000 0.525000 0.433013
v 0.250000 0.675000 0.433013
v -0.000000 0.525000 0.500000
v -0.000000 0.700000 0.000000
v -0.000000 0.675000 0.500000
v -0.000000 0.500000 0.000000
v -0.250000 0.525000 0.433013
v -0.250000 0.675000 0.433013
v -0.433013 0.525000 0.250000
v -0.433013 0.675000 0.250000
v -0.500000 0.525000 0.000000
v -0.500000 0.675000 0.000000
v -0.433013 0.525000 -0.249999
v -0.433013 0.675000 -0.249999
v -0.250000 0.525000 -0.433012
v -0.250000 0.675000 -0.433012
v 0.235096 0.500000 -0.407198
v -0.000000 0.500000 -0.470191
v -0.000000 0.700000 -0.470191
v 0.235096 0.700000 -0.407198
v 0.407198 0.500000 -0.235095
v 0.407198 0.700000 -0.235095
v 0.470192 0.500000 0.000000
v 0.470192 0.700000 0.000000
v 0.407198 0.500000 0.235096
v 0.407198 0.700000 0.235096
v 0.235096 0.500000 0.407199
v 0.235096 0.700000 0.407199
v -0.000000 0.500000 0.470192
v -0.000000 0.700000 0.470192
v -0.235096 0.500000 0.407199
v -0.235096 0.700000 0.407199
v -0.407198 0.500000 0.235096
v -0.407198 0.700000 0.235096
v -0.470192 0.500000 0.000000
v -0.470192 0.700000 0.000000
v -0.407198 0.500000 -0.235095
v -0.407198 0.700000 -0.235095
v -0.235096 0.500000 -0.407198
v -0.235096 0.700000 -0.407198
v -0.057585 0.007257 0.287924
v -0.043242 0.600000 0.187097
v 0.057585 0.007257 0.287924
v 0.043242 0.600000 0.187097
v -0.057585 0.007257 0.403094
v -0.043242 0.600000 0.273582
v 0.057585 0.007257 0.403094
v 0.043242 0.600000 0.273582
v -0.000000 0.003970 0.275305
v -0.000000 0.600000 0.170881
v 0.072793 0.034155 0.270317
v 0.070204 0.003970 0.345509
v 0.059458 0.600000 0.230339
v 0.072793 0.034155 0.415903
v -0.000000 0.003970 0.415713
v -0.000000 0.600000 0.289798
v -0.072793 0.034155 0.415903
v -0.070204 0.003970 0.345509
v -0.059458 0.600000 0.230339
v -0.072793 0.034155 0.270316
v -0.000000 -0.002928 0.345509
v -0.100168 0.033831 0.343110
v -0.000000 0.033831 0.443278
v 0.100168 0.033831 0.343110
v -0.000000 0.033831 0.242941
v -0.220557 0.007257 -0.193832
v -0.140409 0.600000 -0.130997
v -0.278142 0.007257 -0.094092
v -0.183652 0.600000 -0.056099
v -0.320297 0.007257 -0.251417
v -0.215307 0.600000 -0.174240
v -0.377882 0.007257 -0.151677
v -0.258550 0.600000 -0.099342
v -0.238421 0.003970 -0.137653
v -0.147987 0.600000 -0.085440
v -0.270497 0.034155 -0.072118
v -0.334321 0.003970 -0.111956
v -0.229209 0.600000 -0.063677
v -0.396579 0.034155 -0.144911
v -0.360018 0.003970 -0.207856
v -0.250972 0.600000 -0.144899
v -0.323786 0.034155 -0.270992
v -0.264118 0.003970 -0.233553
v -0.169750 0.600000 -0.166662
v -0.197704 0.034155 -0.198199
v -0.299219 -0.002928 -0.172755
v -0.247057 0.033831 -0.258303
v -0.383890 0.033831 -0.221639
v -0.347226 0.033831 -0.084807
v -0.210393 0.033831 -0.121471
v 0.278142 0.007257 -0.094092
v 0.183652 0.600000 -0.056099
v 0.220557 0.007257 -0.193832
v 0.140409 0.600000 -0.130997
v 0.377882 0.007257 -0.151677
v 0.258550 0.600000 -0.099342
v 0.320297 0.007257 -0.251417
v 0.215308 0.600000 -0.174240
v 0.238421 0.003970 -0.137653
v 0.147987 0.600000 -0.085440
v 0.197704 0.034155 -0.198199
v 0.264118 0.003970 -0.233553
v 0.169751 0.600000 -0.166662
v 0.323786 0.034155 -0.270992
v 0.360018 0.003970 -0.207856
v 0.250972 0.600000 -0.144899
v 0.396579 0.034155 -0.144911
v 0.334321 0.003970 -0.111956
v 0.229209 0.600000 -0.063677
v 0.270498 0.034155 -0.072118
v 0.299220 -0.002928 -0.172754
v 0.347226 0.033831 -0.084806
v 0.383890 0.033831 -0.221639
v 0.247058 0.033831 -0.258303
v 0.210393 0.033831 -0.121471
v -0.000000 0.300000 0.000001
v -0.000000 0.200000 0.000001
v 0.136032 0.200000 -0.235613
v -0.000000 0.200000 -0.272063
v -0.000000 0.300000 -0.272063
v 0.136032 0.300000 -0.235613
v 0.235614 0.200000 -0.136031
v 0.235614 0.300000 -0.136031
v 0.272063 0.200000 0.000001
v 0.272063 0.300000 0.000001
v 0.235614 0.200000 0.136032
v 0.235614 0.300000 0.136032
v 0.136032 0.200000 0.235614
v 0.136032 0.300000 0.235614
v -0.000000 0.200000 0.272064
v -0.000000 0.300000 0.272064
v -0.136032 0.200000 0.235614
v -0.136032 0.300000 0.235614
v -0.235614 0.200000 0.136032
v -0.235614 0.300000 0.136032
v -0.272063 0.200000 0.000001
v -0.272063 0.300000 0.000001
v -0.235614 0.200000 -0.136031
v -0.235614 0.300000 -0.136031
v -0.136032 0.200000 -0.235613
v -0.136032 0.300000 -0.235613
v -0.000000 0.250000 -0.289872
v 0.144936 0.250000 -0.251036
v -0.144936 0.250000 -0.251036
v 0.251037 0.250000 -0.144936
v 0.289873 0.250000 0.000001
v 0.251037 0.250000 0.144937
v 0.144936 0.250000 0.251038
v -0.000000 0.250000 0.289873
v -0.144936 0.250000 0.251038
v -0.251037 0.250000 0.144937
v -0.289873 0.250000 0.000001
v -0.251037 0.250000 -0.144936
vt 0.665617 0.598940
vt 0.665617 0.614061
vt 0.687500 0.614061
vt 0.687500 0.598940
vt 0.725402 0.598940
vt 0.725402 0.614061
vt 0.731265 0.614061
vt 0.731265 0.598940
vt 0.725402 0.614061
vt 0.725402 0.598940
vt 0.709383 0.614061
vt 0.709383 0.598940
vt 0.687500 0.614061
vt 0.687500 0.598940
vt 0.665617 0.614061
vt 0.665617 0.598940
vt 0.649598 0.614061
vt 0.649598 0.598940
vt 0.643735 0.614061
vt 0.643735 0.598940
vt 0.649598 0.614061
vt 0.649598 0.598940
vt 0.709383 0.598940
vt 0.709383 0.614061
vt 0.687500 0.645815
vt 0.709383 0.645815
vt 0.708078 0.643294
vt 0.687500 0.643294
vt 0.709383 0.660936
vt 0.687500 0.660936
vt 0.687500 0.663456
vt 0.708078 0.663456
vt 0.725402 0.645815
vt 0.723142 0.643294
vt 0.725402 0.660936
vt 0.723142 0.663456
vt 0.731265 0.645815
vt 0.728656 0.643294
vt 0.731265 0.660936
vt 0.728656 0.663456
vt 0.725402 0.645815
vt 0.723142 0.643294
vt 0.725402 0.660936
vt 0.723142 0.663456
vt 0.709383 0.645815
vt 0.708078 0.643294
vt 0.709383 0.660936
vt 0.708078 0.663456
vt 0.687500 0.645815
vt 0.687500 0.643294
vt 0.687500 0.660936
vt 0.687500 0.663456
vt 0.665617 0.645815
vt 0.666922 0.643294
vt 0.665617 0.660936
vt 0.666922 0.663456
vt 0.649598 0.645815
vt 0.651858 0.643294
vt 0.649598 0.660936
vt 0.651858 0.663456
vt 0.643735 0.645815
vt 0.646344 0.643294
vt 0.643735 0.660936
vt 0.646344 0.663456
vt 0.649598 0.645815
vt 0.651858 0.643294
vt 0.649598 0.660936
vt 0.651858 0.663456
vt 0.665617 0.645815
vt 0.666922 0.643294
vt 0.665617 0.660936
vt 0.666922 0.663456
vt 0.687500 0.596419
vt 0.687500 0.596419
vt 0.708078 0.596419
vt 0.687500 0.616581
vt 0.708078 0.616581
vt 0.687500 0.616581
vt 0.723142 0.596419
vt 0.723142 0.616581
vt 0.728656 0.596419
vt 0.728656 0.616581
vt 0.723142 0.596419
vt 0.723142 0.616581
vt 0.708078 0.596419
vt 0.708078 0.616581
vt 0.687500 0.596419
vt 0.687500 0.616581
vt 0.666922 0.596419
vt 0.666922 0.616581
vt 0.651858 0.596419
vt 0.651858 0.616581
vt 0.646344 0.596419
vt 0.646344 0.616581
vt 0.651858 0.596419
vt 0.651858 0.616581
vt 0.666922 0.596419
vt 0.666922 0.616581
vt 0.908745 0.593025
vt 0.898483 0.684625
vt 0.898483 0.684625
vt 0.907687 0.591466
vt 0.907687 0.684625
vt 0.923804 0.592556
vt 0.913361 0.593411
vt 0.898483 0.684625
vt 0.916892 0.684625
vt 0.940375 0.591466
vt 0.916892 0.684625
vt 0.938750 0.593025
vt 0.916892 0.684625
vt 0.934021 0.593411
vt 0.907687 0.684625
vt 0.923691 0.593358
vt 0.907687 0.586563
vt 0.924031 0.586563
vt 0.924031 0.587093
vt 0.913148 0.588202
vt 0.940375 0.586563
vt 0.934914 0.588202
vt 0.932203 0.589015
vt 0.924031 0.588478
vt 0.915859 0.589015
vt 0.908745 0.593025
vt 0.898483 0.684625
vt 0.898483 0.684625
vt 0.907687 0.591466
vt 0.907687 0.684625
vt 0.923804 0.592556
vt 0.913361 0.593411
vt 0.898483 0.684625
vt 0.916892 0.684625
vt 0.940375 0.591466
vt 0.916892 0.684625
vt 0.938750 0.593025
vt 0.916892 0.684625
vt 0.934021 0.593411
vt 0.907687 0.684625
vt 0.923691 0.593358
vt 0.907687 0.586563
vt 0.924031 0.586563
vt 0.924031 0.587093
vt 0.913148 0.588202
vt 0.940375 0.586563
vt 0.934914 0.588202
vt 0.932203 0.589015
vt 0.924031 0.588478
vt 0.915859 0.589015
vt 0.916892 0.684625
vt 0.907687 0.684625
vt 0.923691 0.593358
vt 0.934021 0.593411
vt 0.907687 0.586563
vt 0.924031 0.586563
vt 0.924031 0.587093
vt 0.913148 0.588202
vt 0.940375 0.586563
vt 0.934914 0.588202
vt 0.932203 0.589015
vt 0.924031 0.588478
vt 0.915859 0.589015
vt 0.898483 0.684625
vt 0.913361 0.593411
vt 0.916892 0.684625
vt 0.916892 0.684625
vt 0.938750 0.593025
vt 0.940375 0.591466
vt 0.898483 0.684625
vt 0.907687 0.684625
vt 0.923804 0.592556
vt 0.907687 0.591466
vt 0.898483 0.684625
vt 0.908745 0.593025
vt 0.937500 0.653375
vt 0.916922 0.653375
vt 0.916922 0.663456
vt 0.937500 0.663456
vt 0.978656 0.653375
vt 0.973142 0.653375
vt 0.973142 0.663456
vt 0.978656 0.663456
vt 0.973142 0.653375
vt 0.973142 0.663456
vt 0.958078 0.653375
vt 0.958078 0.663456
vt 0.937500 0.653375
vt 0.937500 0.663456
vt 0.916922 0.653375
vt 0.916922 0.663456
vt 0.901858 0.653375
vt 0.901858 0.663456
vt 0.896344 0.653375
vt 0.896344 0.663456
vt 0.901858 0.653375
vt 0.901858 0.663456
vt 0.958078 0.653375
vt 0.958078 0.663456
vt 0.937500 0.596419
vt 0.937500 0.596419
vt 0.958078 0.596419
vt 0.937500 0.616581
vt 0.958078 0.616581
vt 0.937500 0.616581
vt 0.973142 0.596419
vt 0.973142 0.616581
vt 0.978656 0.596419
vt 0.978656 0.616581
vt 0.973142 0.596419
vt 0.973142 0.616581
vt 0.958078 0.596419
vt 0.958078 0.616581
vt 0.937500 0.596419
vt 0.937500 0.616581
vt 0.916922 0.596419
vt 0.916922 0.616581
vt 0.901858 0.596419
vt 0.901858 0.616581
vt 0.896344 0.596419
vt 0.896344 0.616581
vt 0.901858 0.596419
vt 0.901858 0.616581
vt 0.916922 0.596419
vt 0.916922 0.616581
vt 0.958078 0.643294
vt 0.937500 0.643294
vt 0.973142 0.643294
vt 0.916922 0.643294
vt 0.901858 0.643294
vt 0.896344 0.643294
vt 0.901858 0.643294
vt 0.916922 0.643294
vt 0.937500 0.643294
vt 0.958078 0.643294
vt 0.973142 0.643294
vt 0.978656 0.643294
vn -0.5000 0.0000 -0.8660
vn -0.0000 0.0000 -1.0000
vn 0.8660 0.0000 -0.5000
vn 1.0000 0.0000 0.0000
vn 0.8660 0.0000 0.5000
vn 0.5000 -0.0000 0.8660
vn -0.0000 -0.0000 1.0000
vn -0.5000 -0.0000 0.8660
vn -0.8660 -0.0000 0.5000
vn -1.0000 -0.0000 -0.0000
vn -0.8660 0.0000 -0.5000
vn 0.5000 0.0000 -0.8660
vn 0.0000 -0.7662 -0.6426
vn 0.3213 -0.7662 -0.5565
vn 0.3213 0.7662 -0.5565
vn -0.0000 0.7662 -0.6426
vn 0.5565 -0.7662 -0.3213
vn 0.5565 0.7662 -0.3213
vn 0.6426 -0.7662 0.0000
vn 0.6426 0.7662 0.0000
vn 0.5565 -0.7662 0.3213
vn 0.5565 0.7662 0.3213
vn 0.3213 -0.7662 0.5565
vn 0.3213 0.7662 0.5565
vn -0.0000 -0.7662 0.6426
vn 0.0000 0.7662 0.6426
vn -0.3213 -0.7662 0.5565
vn -0.3213 0.7662 0.5565
vn -0.5565 -0.7662 0.3213
vn -0.5565 0.7662 0.3213
vn -0.6426 -0.7662 0.0000
vn -0.6426 0.7662 0.0000
vn -0.5565 -0.7662 -0.3213
vn -0.5565 0.7662 -0.3213
vn -0.3213 -0.7662 -0.5565
vn -0.3213 0.7662 -0.5565
vn -0.0000 -1.0000 -0.0000
vn 0.0000 1.0000 0.0000
vn 0.0000 -0.4082 -0.9129
vn 0.0000 -0.1263 -0.9920
vn 0.3495 -0.1184 -0.9294
vn 0.6670 -0.3800 -0.6409
vn 0.9361 -0.0028 -0.3517
vn 0.9970 0.0627 -0.0450
vn 0.9558 -0.2932 0.0206
vn -0.6670 -0.3800 -0.6409
vn -0.3495 -0.1184 -0.9294
vn 0.9275 0.1360 0.3481
vn 0.3403 0.2460 0.9076
vn -0.0000 0.2616 0.9652
vn -0.3403 0.2460 0.9076
vn -0.9275 0.1360 0.3481
vn -0.9970 0.0627 -0.0450
vn -0.9558 -0.2932 0.0206
vn -0.9361 -0.0028 -0.3517
vn 0.3812 -0.8479 -0.3686
vn 0.4834 -0.8754 0.0064
vn 0.0000 -0.8870 -0.4618
vn 0.3904 -0.8271 0.4043
vn 0.0000 -0.9961 0.0881
vn -0.3904 -0.8271 0.4043
vn -0.4834 -0.8754 0.0064
vn -0.3812 -0.8479 -0.3686
vn -0.5363 -0.6611 0.5247
vn 0.5363 -0.6611 0.5247
vn -0.0000 -0.6244 0.7811
vn 0.7906 -0.4082 0.4565
vn 0.8591 -0.1263 0.4960
vn 0.6302 -0.1184 0.7674
vn 0.2216 -0.3800 0.8981
vn -0.1635 -0.0028 0.9865
vn -0.4596 0.0627 0.8859
vn -0.4958 -0.2932 0.8174
vn 0.8885 -0.3800 -0.2572
vn 0.9797 -0.1184 0.1620
vn -0.7652 0.1360 0.6292
vn -0.9561 0.2460 -0.1591
vn -0.8359 0.2616 -0.4826
vn -0.6159 0.2460 -0.7485
vn 0.1623 0.1360 -0.9773
vn 0.5374 0.0627 -0.8410
vn 0.4600 -0.2932 -0.8381
vn 0.7726 -0.0028 -0.6349
vn 0.1286 -0.8479 0.5144
vn -0.2473 -0.8754 0.4155
vn 0.4000 -0.8870 0.2309
vn -0.5453 -0.8271 0.1359
vn -0.0763 -0.9961 -0.0440
vn -0.1550 -0.8271 -0.5402
vn 0.2362 -0.8754 -0.4219
vn 0.5098 -0.8479 -0.1458
vn -0.1863 -0.6611 -0.7268
vn -0.7225 -0.6611 0.2021
vn -0.6764 -0.6244 -0.3905
vn 0.7652 0.1360 0.6292
vn 0.4596 0.0627 0.8859
vn 0.4958 -0.2932 0.8174
vn -0.5098 -0.8479 -0.1458
vn -0.2362 -0.8754 -0.4219
vn -0.4000 -0.8870 0.2309
vn 0.1550 -0.8271 -0.5402
vn 0.0763 -0.9961 -0.0440
vn 0.5453 -0.8271 0.1359
vn 0.2473 -0.8754 0.4155
vn -0.1286 -0.8479 0.5144
vn 0.7225 -0.6611 0.2021
vn 0.1635 -0.0028 0.9865
vn -0.2216 -0.3800 0.8981
vn 0.6159 0.2460 -0.7485
vn 0.8359 0.2616 -0.4826
vn 0.1863 -0.6611 -0.7268
vn 0.6764 -0.6244 -0.3905
vn 0.9561 0.2460 -0.1591
vn -0.7726 -0.0028 -0.6349
vn -0.5374 0.0627 -0.8410
vn -0.4600 -0.2932 -0.8381
vn -0.8885 -0.3800 -0.2572
vn -0.1623 0.1360 -0.9773
vn -0.6302 -0.1184 0.7674
vn -0.8591 -0.1263 0.4960
vn -0.7906 -0.4082 0.4565
vn -0.9797 -0.1184 0.1620
vn -0.4710 0.3355 -0.8158
vn 0.0000 0.3355 -0.9420
vn 0.8158 0.3355 -0.4710
vn 0.9420 0.3355 0.0000
vn 0.8158 0.3355 0.4710
vn 0.4710 0.3355 0.8158
vn 0.0000 0.3355 0.9420
vn -0.4710 0.3355 0.8158
vn -0.8158 0.3355 0.4710
vn -0.9420 0.3355 -0.0000
vn -0.8158 0.3355 -0.4710
vn 0.4710 0.3355 -0.8158
vn 0.4710 -0.3355 -0.8158
vn 0.0000 -0.3355 -0.9420
vn 0.8158 -0.3355 -0.4710
vn -0.4710 -0.3355 -0.8158
vn -0.8158 -0.3355 -0.4710
vn -0.9420 -0.3355 -0.0000
vn -0.8158 -0.3355 0.4710
vn -0.4710 -0.3355 0.8158
vn -0.0000 -0.3355 0.9420
vn 0.4710 -0.3355 0.8158
vn 0.8158 -0.3355 0.4710
vn 0.9420 -0.3355 0.0000
usemtl holiday
s 1
f 25/1/1 26/2/1 2/3/2 1/4/2
f 5/5/3 6/6/3 8/7/4 7/8/4
f 7/8/4 8/7/4 10/9/5 9/10/5
f 9/10/5 10/9/5 12/11/6 11/12/6
f 11/12/6 12/11/6 15/13/7 13/14/7
f 13/14/7 15/13/7 18/15/8 17/16/8
f 17/16/8 18/15/8 20/17/9 19/18/9
f 19/18/9 20/17/9 22/19/10 21/20/10
f 21/20/10 22/19/10 24/21/11 23/22/11
f 23/22/11 24/21/11 26/2/1 25/1/1
f 3/23/12 4/24/12 6/6/3 5/5/3
f 1/4/2 2/3/2 4/24/12 3/23/12
f 1/25/13 3/26/14 27/27/14 28/28/13
f 4/29/15 2/30/16 29/31/16 30/32/15
f 3/26/14 5/33/17 31/34/17 27/27/14
f 6/35/18 4/29/15 30/32/15 32/36/18
f 5/33/17 7/37/19 33/38/19 31/34/17
f 8/39/20 6/35/18 32/36/18 34/40/20
f 7/37/19 9/41/21 35/42/21 33/38/19
f 10/43/22 8/39/20 34/40/20 36/44/22
f 9/41/21 11/45/23 37/46/23 35/42/21
f 12/47/24 10/43/22 36/44/22 38/48/24
f 11/45/23 13/49/25 39/50/25 37/46/23
f 15/51/26 12/47/24 38/48/24 40/52/26
f 13/49/25 17/53/27 41/54/27 39/50/25
f 18/55/28 15/51/26 40/52/26 42/56/28
f 17/53/27 19/57/29 43/58/29 41/54/27
f 20/59/30 18/55/28 42/56/28 44/60/30
f 19/57/29 21/61/31 45/62/31 43/58/29
f 22/63/32 20/59/30 44/60/30 46/64/32
f 21/61/31 23/65/33 47/66/33 45/62/31
f 24/67/34 22/63/32 46/64/32 48/68/34
f 23/65/33 25/69/35 49/70/35 47/66/33
f 26/71/36 24/67/34 48/68/34 50/72/36
f 25/69/35 1/25/13 28/28/13 49/70/35
f 2/30/16 26/71/36 50/72/36 29/31/16
f 16/73/37 28/74/37 27/75/37
f 14/76/38 30/77/38 29/78/38
f 16/73/37 27/75/37 31/79/37
f 14/76/38 32/80/38 30/77/38
f 16/73/37 31/79/37 33/81/37
f 14/76/38 34/82/38 32/80/38
f 16/73/37 33/81/37 35/83/37
f 14/76/38 36/84/38 34/82/38
f 16/73/37 35/83/37 37/85/37
f 14/76/38 38/86/38 36/84/38
f 16/73/37 37/85/37 39/87/37
f 14/76/38 40/88/38 38/86/38
f 16/73/37 39/87/37 41/89/37
f 14/76/38 42/90/38 40/88/38
f 16/73/37 41/89/37 43/91/37
f 14/76/38 44/92/38 42/90/38
f 16/73/37 43/91/37 45/93/37
f 14/76/38 46/94/38 44/92/38
f 16/73/37 45/93/37 47/95/37
f 14/76/38 48/96/38 46/94/38
f 16/73/37 47/95/37 49/97/37
f 14/76/38 50/98/38 48/96/38
f 16/73/37 49/97/37 28/74/37
f 14/76/38 29/78/38 50/98/38
f 75/99/39 60/100/40 54/101/41 61/102/42
f 61/102/42 54/101/43 63/103/44 74/104/45
f 70/105/46 52/106/47 60/100/40 75/99/39
f 74/104/45 63/103/44 58/107/48 64/108/48
f 64/108/49 58/107/49 66/109/50 73/110/50
f 73/110/50 66/109/50 56/111/51 67/112/51
f 67/112/52 56/111/52 69/113/53 72/114/54
f 72/114/54 69/113/53 52/106/55 70/105/46
f 53/115/56 62/116/57 71/117/37 59/118/58
f 62/116/57 57/119/59 65/120/60 71/117/37
f 71/117/37 65/120/60 55/121/61 68/122/62
f 59/118/58 71/117/37 68/122/62 51/123/63
f 55/121/61 67/112/64 72/114/54 68/122/62
f 68/122/62 72/114/54 70/105/46 51/123/63
f 57/119/59 64/108/65 73/110/66 65/120/66
f 65/120/66 73/110/66 67/112/64 55/121/61
f 53/115/56 61/102/42 74/104/45 62/116/57
f 62/116/57 74/104/45 64/108/65 57/119/59
f 51/123/63 70/105/46 75/99/39 59/118/58
f 59/118/58 75/99/39 61/102/42 53/115/56
f 100/124/67 85/125/68 79/126/69 86/127/70
f 86/127/70 79/126/71 88/128/72 99/129/73
f 95/130/74 77/131/75 85/125/68 100/124/67
f 99/129/73 88/128/72 83/132/76 89/133/76
f 89/133/77 83/132/77 91/134/78 98/135/78
f 98/135/78 91/134/78 81/136/79 92/137/79
f 92/137/80 81/136/80 94/138/81 97/139/82
f 97/139/82 94/138/81 77/131/83 95/130/74
f 78/140/84 87/141/85 96/142/37 84/143/86
f 87/141/85 82/144/87 90/145/88 96/142/37
f 96/142/37 90/145/88 80/146/89 93/147/90
f 84/143/86 96/142/37 93/147/90 76/148/91
f 80/146/89 92/137/92 97/139/82 93/147/90
f 93/147/90 97/139/82 95/130/74 76/148/91
f 82/144/87 89/133/93 98/135/94 90/145/94
f 90/145/94 98/135/94 92/137/92 80/146/89
f 78/140/84 86/127/70 99/129/73 87/141/85
f 87/141/85 99/129/73 89/133/93 82/144/87
f 76/148/91 95/130/74 100/124/67 84/143/86
f 84/143/86 100/124/67 86/127/70 78/140/84
f 106/149/95 119/150/96 122/151/97 117/152/95
f 103/153/98 112/154/99 121/155/37 109/156/100
f 112/154/99 107/157/101 115/158/102 121/155/37
f 121/155/37 115/158/102 105/159/103 118/160/104
f 109/156/100 121/155/37 118/160/104 101/161/105
f 105/159/103 117/152/106 122/151/97 118/160/104
f 119/150/96 102/162/107 120/163/108 122/151/97
f 108/164/109 116/165/110 123/166/110 114/167/109
f 118/160/104 122/151/97 120/163/108 101/161/105
f 107/157/101 114/167/111 123/166/112 115/158/112
f 116/165/110 106/149/113 117/152/113 123/166/110
f 104/168/114 113/169/115 124/170/116 111/171/117
f 115/158/112 123/166/112 117/152/106 105/159/103
f 103/153/98 111/171/117 124/170/116 112/154/99
f 113/169/115 108/164/118 114/167/118 124/170/116
f 120/163/108 102/162/119 110/172/120 125/173/121
f 112/154/99 124/170/116 114/167/111 107/157/101
f 101/161/105 120/163/108 125/173/121 109/156/100
f 110/172/120 104/168/122 111/171/117 125/173/121
f 109/156/100 125/173/121 111/171/117 103/153/98
f 152/174/2 154/175/1 151/176/123 130/177/124
f 156/178/4 155/179/3 133/180/125 135/181/126
f 157/182/5 156/178/4 135/181/126 137/183/127
f 158/184/6 157/182/5 137/183/127 139/185/128
f 159/186/7 158/184/6 139/185/128 141/187/129
f 160/188/8 159/186/7 141/187/129 143/189/130
f 161/190/9 160/188/8 143/189/130 145/191/131
f 162/192/10 161/190/9 145/191/131 147/193/132
f 163/194/11 162/192/10 147/193/132 149/195/133
f 154/175/1 163/194/11 149/195/133 151/176/123
f 155/179/3 153/196/12 131/197/134 133/180/125
f 153/196/12 152/174/2 130/177/124 131/197/134
f 127/198/37 129/199/37 128/200/37
f 126/201/38 131/202/38 130/203/38
f 127/198/37 128/200/37 132/204/37
f 126/201/38 133/205/38 131/202/38
f 127/198/37 132/204/37 134/206/37
f 126/201/38 135/207/38 133/205/38
f 127/198/37 134/206/37 136/208/37
f 126/201/38 137/209/38 135/207/38
f 127/198/37 136/208/37 138/210/37
f 126/201/38 139/211/38 137/209/38
f 127/198/37 138/210/37 140/212/37
f 126/201/38 141/213/38 139/211/38
f 127/198/37 140/212/37 142/214/37
f 126/201/38 143/215/38 141/213/38
f 127/198/37 142/214/37 144/216/37
f 126/201/38 145/217/38 143/215/38
f 127/198/37 144/216/37 146/218/37
f 126/201/38 147/219/38 145/217/38
f 127/198/37 146/218/37 148/220/37
f 126/201/38 149/221/38 147/219/38
f 127/198/37 148/220/37 150/222/37
f 126/201/38 151/223/38 149/221/38
f 127/198/37 150/222/37 129/199/37
f 126/201/38 130/203/38 151/223/38
f 128/224/135 129/225/136 152/174/2 153/196/12
f 132/226/137 128/224/135 153/196/12 155/179/3
f 150/227/138 148/228/139 163/194/11 154/175/1
f 148/228/139 146/229/140 162/192/10 163/194/11
f 146/229/140 144/230/141 161/190/9 162/192/10
f 144/230/141 142/231/142 160/188/8 161/190/9
f 142/231/142 140/232/143 159/186/7 160/188/8
f 140/232/143 138/233/144 158/184/6 159/186/7
f 138/233/144 136/234/145 157/182/5 158/184/6
f 136/234/145 134/235/146 156/178/4 157/182/5
f 134/235/146 132/226/137 155/179/3 156/178/4
f 129/225/136 150/227/138 154/175/1 152/174/2
