# Blender v3.4.1 OBJ File: 'Holiday_Bits_Export.blend'
# www.blender.org
mtllib tracks_straight_station.mtl
o tracks_straight_station
v -0.249245 0.000000 -0.237387
v -0.077889 0.030000 -0.160488
v 0.249245 0.000000 -0.237387
v 0.077889 0.030000 -0.160488
v -0.249245 0.000000 -0.362613
v -0.077889 0.030000 -0.454528
v 0.249245 0.000000 -0.362613
v 0.077889 0.030000 -0.454528
v -0.249245 -0.000000 0.237387
v -0.077889 0.030000 0.160488
v 0.249245 -0.000000 0.237387
v 0.077889 0.030000 0.160489
v -0.249245 -0.000000 0.362613
v -0.077889 0.030000 0.454528
v 0.249245 -0.000000 0.362613
v 0.077889 0.030000 0.454528
v 0.194510 0.029999 -1.500000
v 0.138936 0.029999 -1.500000
v -0.138936 0.029999 -1.500000
v -0.194510 0.029999 -1.500000
v 0.181988 0.049999 -1.500000
v 0.151459 0.049999 -1.500000
v -0.151458 0.049999 -1.500000
v -0.181987 0.049999 -1.500000
v -0.249245 0.000000 -1.037387
v -0.077889 0.030000 -0.945472
v 0.249245 0.000000 -1.037387
v 0.077889 0.030000 -0.945472
v -0.249245 0.000000 -1.237387
v -0.236783 0.030000 -1.224925
v 0.249245 0.000000 -1.237387
v 0.236782 0.030000 -1.224924
v -0.249245 0.000000 -1.062613
v -0.236783 0.030000 -1.075076
v 0.249245 0.000000 -1.062613
v 0.236783 0.030000 -1.075075
v -0.249245 0.000000 -1.437387
v -0.236783 0.030000 -1.424925
v 0.249245 0.000000 -1.437387
v 0.236782 0.030000 -1.424924
v -0.249245 0.000000 -1.362613
v -0.236783 0.030000 -1.375076
v 0.249245 0.000000 -1.362613
v 0.236783 0.030000 -1.375075
v 0.194510 0.029999 1.500000
v 0.138936 0.029999 1.500000
v -0.138936 0.029999 1.500000
v -0.194510 0.029999 1.500000
v 0.181987 0.049999 1.500000
v 0.151458 0.049999 1.500000
v -0.151458 0.049999 1.500000
v -0.181987 0.049999 1.500000
v -0.249245 -0.000000 1.037387
v -0.077889 0.030000 0.945472
v 0.249245 -0.000000 1.037387
v 0.077889 0.030000 0.945472
v -0.249245 -0.000000 1.062613
v -0.236783 0.030000 1.075075
v 0.249245 -0.000000 1.062613
v 0.236783 0.030000 1.075076
v -0.249245 -0.000000 1.237387
v -0.236783 0.030000 1.224924
v 0.249245 -0.000000 1.237387
v 0.236783 0.030000 1.224925
v -0.249245 -0.000000 1.362613
v -0.236783 0.030000 1.375075
v 0.249245 -0.000000 1.362613
v 0.236783 0.030000 1.375076
v -0.249245 -0.000000 1.437387
v -0.236783 0.030000 1.424924
v 0.249245 -0.000000 1.437387
v 0.236783 0.030000 1.424925
v -0.249245 -0.000000 0.262613
v -0.236783 0.030000 0.275075
v 0.249245 -0.000000 0.262613
v 0.236783 0.030000 0.275075
v -0.249245 -0.000000 0.337387
v -0.236783 0.030000 0.324924
v 0.249245 -0.000000 0.337387
v 0.236783 0.030000 0.324925
v -0.249245 0.000000 -0.337387
v -0.236783 0.030000 -0.324925
v 0.249245 0.000000 -0.337387
v 0.236783 0.030000 -0.324925
v -0.249245 0.000000 -0.262613
v -0.236783 0.030000 -0.275076
v 0.249245 0.000000 -0.262613
v 0.236783 0.030000 -0.275075
v -0.236783 0.030000 0.224924
v -0.236783 0.030000 -0.224925
v 0.236782 0.030000 -0.224924
v 0.236783 0.030000 0.224925
v 0.236783 0.030000 -0.375075
v -0.236783 0.030000 -0.375076
v -0.236783 0.030000 0.375075
v 0.236783 0.030000 0.375076
v -0.236783 0.030000 -1.024925
v 0.236782 0.030000 -1.024924
v 0.236783 0.030000 1.024925
v -0.236783 0.030000 1.024924
v -0.057889 0.020000 0.140488
v -0.057889 0.020000 -0.140488
v 0.057889 0.020000 -0.140488
v 0.057889 0.020000 0.140489
v 0.057889 0.020000 -0.474528
v -0.057889 0.020000 -0.474528
v -0.057889 0.020000 0.474528
v 0.057889 0.020000 0.474528
v -0.057889 0.020000 -0.925472
v 0.057889 0.020000 -0.925472
v 0.057889 0.020000 0.925472
v -0.057889 0.020000 0.925472
vt 0.601257 0.564092
vt 0.601257 0.592161
vt 0.601257 0.592161
vt 0.601257 0.564092
vt 0.523747 0.592161
vt 0.523747 0.564092
vt 0.523747 0.564092
vt 0.523747 0.592161
vt 0.523747 0.564092
vt 0.523747 0.592161
vt 0.523747 0.592161
vt 0.523747 0.564092
vt 0.582305 0.592161
vt 0.542699 0.592161
vt 0.542699 0.592161
vt 0.582305 0.592161
vt 0.551125 0.592161
vt 0.573879 0.592161
vt 0.573879 0.592161
vt 0.551125 0.592161
vt 0.601257 0.564092
vt 0.601257 0.592161
vt 0.601257 0.592161
vt 0.601257 0.564092
vt 0.471338 0.622441
vt 0.470557 0.622441
vt 0.470733 0.658809
vt 0.471162 0.627559
vt 0.476028 0.622441
vt 0.475246 0.622441
vt 0.475422 0.658809
vt 0.475851 0.627559
vt 0.445166 0.627559
vt 0.445166 0.622441
vt 0.445166 0.627559
vt 0.445166 0.622441
vt 0.445166 0.622441
vt 0.445166 0.658809
vt 0.445166 0.622441
vt 0.445166 0.658809
vt 0.601257 0.564092
vt 0.601257 0.592161
vt 0.601257 0.592161
vt 0.601257 0.564092
vt 0.542699 0.592161
vt 0.582305 0.592161
vt 0.582305 0.592161
vt 0.542699 0.592161
vt 0.476257 0.564092
vt 0.476257 0.592161
vt 0.476257 0.592161
vt 0.476257 0.564092
vt 0.398747 0.592161
vt 0.398747 0.564092
vt 0.398747 0.592161
vt 0.398747 0.564092
vt 0.726257 0.564092
vt 0.726257 0.592161
vt 0.726257 0.592161
vt 0.726257 0.564092
vt 0.648747 0.592161
vt 0.648747 0.564092
vt 0.648747 0.592161
vt 0.648747 0.564092
vt 0.523747 0.564092
vt 0.523747 0.564092
vt 0.523747 0.592161
vt 0.523747 0.592161
vt 0.476257 0.564092
vt 0.476257 0.592161
vt 0.476257 0.592161
vt 0.476257 0.564092
vt 0.398747 0.592161
vt 0.398747 0.564092
vt 0.398747 0.592161
vt 0.398747 0.564092
vt 0.726257 0.564092
vt 0.726257 0.592161
vt 0.726257 0.592161
vt 0.726257 0.564092
vt 0.648747 0.592161
vt 0.648747 0.564092
vt 0.648747 0.592161
vt 0.648747 0.564092
vt 0.476257 0.564092
vt 0.476257 0.592161
vt 0.476257 0.592161
vt 0.476257 0.564092
vt 0.398747 0.592161
vt 0.398747 0.564092
vt 0.398747 0.592161
vt 0.398747 0.564092
vt 0.476257 0.564092
vt 0.476257 0.592161
vt 0.476257 0.592161
vt 0.476257 0.564092
vt 0.398747 0.592161
vt 0.398747 0.564092
vt 0.398747 0.592161
vt 0.398747 0.564092
vt 0.551125 0.592161
vt 0.573879 0.592161
vt 0.542699 0.592161
vt 0.582305 0.592161
vt 0.582305 0.592161
vt 0.542699 0.592161
vt 0.582305 0.592161
vt 0.542699 0.592161
vt 0.573879 0.592161
vt 0.551125 0.592161
vt 0.542699 0.592161
vt 0.582305 0.592161
vn 0.0000 0.3836 -0.9235
vn 0.9235 0.3836 -0.0000
vn -0.9235 0.3836 0.0000
vn 0.0000 -1.0000 -0.0000
vn -0.0000 0.3836 0.9235
vn 0.4472 0.8944 0.0000
vn -0.4472 0.8944 0.0000
vn -0.0000 0.0000 -1.0000
vn 0.8476 0.5307 0.0000
vn -0.8476 0.5307 0.0000
vn 0.0000 1.0000 0.0000
vn 0.0000 0.0000 1.0000
vn -0.0000 0.8944 0.4472
vn 0.0000 0.8944 -0.4472
usemtl holiday
s 1
f 1/1/1 90/2/1 91/3/1 3/4/1
f 3/4/2 91/3/2 92/5/2 11/6/2
f 9/7/3 89/8/3 90/2/3 1/1/3
f 11/6/4 9/7/4 1/1/4 3/4/4
f 7/9/5 93/10/5 94/11/5 5/12/5
f 26/13/6 6/14/6 106/15/6 109/16/6
f 12/17/7 4/18/7 103/19/7 104/20/7
f 11/6/5 92/5/5 89/8/5 9/7/5
f 13/21/1 95/22/1 96/23/1 15/24/1
f 19/25/8 20/26/8 24/27/8 23/28/8
f 17/29/8 18/30/8 22/31/8 21/32/8
f 23/28/9 51/33/9 47/34/9 19/25/9
f 21/32/9 49/35/9 45/36/9 17/29/9
f 18/30/10 46/37/10 50/38/10 22/31/10
f 50/38/11 49/35/11 21/32/11 22/31/11
f 20/26/10 48/39/10 52/40/10 24/27/10
f 25/41/1 97/42/1 98/43/1 27/44/1
f 56/45/7 16/46/7 108/47/7 111/48/7
f 29/49/1 30/50/1 32/51/1 31/52/1
f 31/52/2 32/51/2 36/53/2 35/54/2
f 35/54/5 36/53/5 34/55/5 33/56/5
f 33/56/3 34/55/3 30/50/3 29/49/3
f 31/52/4 35/54/4 33/56/4 29/49/4
f 36/53/11 32/51/11 30/50/11 34/55/11
f 37/57/1 38/58/1 40/59/1 39/60/1
f 39/60/2 40/59/2 44/61/2 43/62/2
f 43/62/5 44/61/5 42/63/5 41/64/5
f 41/64/3 42/63/3 38/58/3 37/57/3
f 39/60/4 43/62/4 41/64/4 37/57/4
f 44/61/11 40/59/11 38/58/11 42/63/11
f 15/24/4 55/65/4 53/66/4 13/21/4
f 94/11/3 97/42/3 25/41/3 5/12/3
f 27/44/4 7/9/4 5/12/4 25/41/4
f 98/43/2 93/10/2 7/9/2 27/44/2
f 47/34/12 51/33/12 52/40/12 48/39/12
f 45/36/12 49/35/12 50/38/12 46/37/12
f 45/36/4 46/37/4 18/30/4 17/29/4
f 19/25/4 47/34/4 48/39/4 20/26/4
f 24/27/11 52/40/11 51/33/11 23/28/11
f 55/65/5 99/67/5 100/68/5 53/66/5
f 53/66/3 100/68/3 95/22/3 13/21/3
f 15/24/2 96/23/2 99/67/2 55/65/2
f 57/69/1 58/70/1 60/71/1 59/72/1
f 59/72/2 60/71/2 64/73/2 63/74/2
f 63/74/5 64/73/5 62/75/5 61/76/5
f 61/76/3 62/75/3 58/70/3 57/69/3
f 59/72/4 63/74/4 61/76/4 57/69/4
f 64/73/11 60/71/11 58/70/11 62/75/11
f 65/77/1 66/78/1 68/79/1 67/80/1
f 67/80/2 68/79/2 72/81/2 71/82/2
f 71/82/5 72/81/5 70/83/5 69/84/5
f 69/84/3 70/83/3 66/78/3 65/77/3
f 67/80/4 71/82/4 69/84/4 65/77/4
f 72/81/11 68/79/11 66/78/11 70/83/11
f 73/85/1 74/86/1 76/87/1 75/88/1
f 75/88/2 76/87/2 80/89/2 79/90/2
f 79/90/5 80/89/5 78/91/5 77/92/5
f 77/92/3 78/91/3 74/86/3 73/85/3
f 75/88/4 79/90/4 77/92/4 73/85/4
f 80/89/11 76/87/11 74/86/11 78/91/11
f 81/93/1 82/94/1 84/95/1 83/96/1
f 83/96/2 84/95/2 88/97/2 87/98/2
f 87/98/5 88/97/5 86/99/5 85/100/5
f 85/100/3 86/99/3 82/94/3 81/93/3
f 83/96/4 87/98/4 85/100/4 81/93/4
f 88/97/11 84/95/11 82/94/11 86/99/11
f 10/101/11 2/102/11 90/2/11 89/8/11
f 4/18/11 12/17/11 92/5/11 91/3/11
f 2/102/11 4/18/11 91/3/11 90/2/11
f 8/103/11 6/14/11 94/11/11 93/10/11
f 12/17/11 10/101/11 89/8/11 92/5/11
f 14/104/11 16/46/11 96/23/11 95/22/11
f 26/13/11 28/105/11 98/43/11 97/42/11
f 56/45/11 54/106/11 100/68/11 99/67/11
f 6/14/11 26/13/11 97/42/11 94/11/11
f 28/105/11 8/103/11 93/10/11 98/43/11
f 54/106/11 14/104/11 95/22/11 100/68/11
f 16/46/11 56/45/11 99/67/11 96/23/11
f 111/48/11 108/47/11 107/107/11 112/108/11
f 104/20/11 103/19/11 102/109/11 101/110/11
f 105/111/11 110/112/11 109/16/11 106/15/11
f 16/46/13 14/104/13 107/107/13 108/47/13
f 4/18/13 2/102/13 102/109/13 103/19/13
f 8/103/7 28/105/7 110/112/7 105/111/7
f 28/105/13 26/13/13 109/16/13 110/112/13
f 6/14/14 8/103/14 105/111/14 106/15/14
f 14/104/6 54/106/6 112/108/6 107/107/6
f 2/102/6 10/101/6 101/110/6 102/109/6
f 54/106/14 56/45/14 111/48/14 112/108/14
f 10/101/14 12/17/14 104/20/14 101/110/14
